<svg xmlns="http://www.w3.org/2000/svg" height="1024" preserveAspectRatio="none" style="display: block;" version="1.1" viewBox="0 0 2048 2048" width="1024">
<path d="M 831.225 488.12 C 811.367 463.072 803.321 432.459 817.754 402.324 C 826.664 383.496 842.814 369.075 862.527 362.345 C 881.825 355.533 903.05 356.759 921.436 365.747 C 956.608 382.936 973.682 422.582 960.373 459.967 C 957.618 467.707 953.544 475.346 949.883 482.728 C 986.142 506.18 1017.82 530.854 1052.5 556.551 L 1169.61 641.907 C 1191.11 657.452 1211.04 672.586 1233.02 687.627 C 1241.25 679.9 1248.21 673.429 1258.78 669.013 C 1288.18 656.488 1326.46 673.445 1336.8 703.718 C 1350.27 743.125 1320.42 782.994 1278.99 781.736 C 1265.83 781.337 1257.33 776.723 1246.04 771.151 C 1232.74 784.092 1220.9 797.637 1207.94 810.457 L 1000.98 1014.36 C 999.966 1062.06 1000.77 1110.24 999.831 1158.16 C 987.177 1172.8 968.552 1189.26 954.618 1203.7 C 901.262 1258.38 847.074 1312.24 792.073 1365.26 C 790.906 1297.79 792.713 1229.08 791.92 1161.53 C 791.611 1135.29 793.033 1104.14 791.819 1078.44 C 746.389 1126.86 697.837 1173.21 651.476 1220.8 C 640.061 1232.51 627.466 1243.96 617.066 1256.55 C 630.172 1290.53 633.401 1315.39 620.379 1350.36 L 815.237 1454.11 C 861.183 1479 907.389 1505.09 954.175 1528.21 L 954.871 1527.49 C 983.813 1498.02 1028.4 1487.57 1066.63 1505.25 C 1080.46 1511.64 1088.26 1518.86 1098.95 1529.53 C 1173.59 1475.7 1248.72 1422.58 1324.36 1370.17 L 1389.77 1323.86 C 1405.57 1312.48 1422.76 1299.16 1439.51 1289.68 C 1431.03 1273.65 1427.04 1262.83 1425.22 1244.29 C 1413.03 1126.06 1569.83 1068.65 1638.14 1166.48 C 1706.52 1264.42 1599.68 1382.57 1494.51 1336.45 C 1477.49 1328.99 1465.75 1319.54 1452.37 1306.74 C 1421.73 1327.71 1391.01 1350.53 1360.51 1372.01 L 1111.23 1548.7 C 1123.12 1576.39 1125.02 1605.92 1111.38 1633.35 C 1099.95 1656.5 1079.77 1674.13 1055.29 1682.36 C 1030.98 1690.52 1004.41 1688.56 981.55 1676.93 C 935.049 1653.2 916.376 1594.66 940.115 1548.2 C 914.637 1536.52 888.995 1519.85 863.666 1507.13 C 778.335 1464.27 695.485 1413.75 610.182 1371.17 C 581.125 1406.81 548.108 1428.31 500.702 1424 C 434.597 1417.72 382.536 1358.11 391.627 1291 C 400.67 1224.25 455.599 1180.88 522.378 1187.77 C 524.647 1171.82 528.929 1154.48 532.083 1138.5 L 553.923 1029.72 C 565.383 970.085 577.596 910.6 590.557 851.276 C 594.865 831.893 598.742 811.465 603.718 792.33 C 568.463 776.803 541.303 749.873 533.836 710.943 C 528.242 682.924 534.251 653.834 550.49 630.325 C 587.823 575.821 654.17 568.726 706.9 605.586 C 737.192 576.891 766.751 547.634 797.367 519.364 C 808.743 508.859 819.28 498.106 831.225 488.12 z M 847.24 503.38 C 825.347 523.678 803.597 544.13 781.992 564.733 C 764.486 581.586 739.936 605.855 721.177 620.873 C 727.342 629.92 733.469 639.126 737.409 649.406 C 766.477 725.235 709.274 806.313 626.686 796.904 L 569.802 1078.9 C 565.186 1102.14 559.622 1125.44 555.137 1148.74 C 552.317 1163.39 548.579 1178.76 547.553 1193.65 C 575.286 1202.86 585.965 1213.83 604.807 1235.32 C 667.749 1173.6 730.007 1111.2 791.569 1048.11 C 793.971 1039.24 791.988 969.358 791.93 955.511 C 796.355 949.878 805.524 941.329 810.699 935.916 C 825.557 920.372 841.395 905.562 856.571 890.342 L 1000.83 746.745 C 1001.37 764.488 1000.8 785.034 1000.83 803.02 L 1000.96 918.724 C 1000.95 938.911 1000.43 961.989 1001.38 981.95 C 1052.01 933.862 1101.92 885.028 1151.1 835.463 C 1177.48 809.21 1204.5 780.818 1231.56 755.402 C 1221.67 736.244 1220.39 729.747 1224.21 708.184 C 1152.12 660.392 1081.99 603.989 1011.36 553.903 C 989.369 538.305 956.173 511.621 934.644 498.784 C 905.569 517.77 878.195 517.946 847.24 503.38 z" fill="rgb(25,41,84)" transform="translate(0,0)"></path>
<path d="M 793.513 673.464 C 804.785 672.607 822.03 673.16 833.644 673.217 L 898.632 673.246 L 959.692 673.12 C 971.526 673.097 987.869 672.565 999.194 674.064 C 994.443 680.986 973.792 700.315 966.518 707.425 C 941.915 731.071 917.559 754.973 893.453 779.126 L 824.502 848.003 C 813.747 858.801 802.204 871.674 791.159 881.618 C 790.041 849.291 791.831 813.492 791.426 780.761 C 791.011 747.266 792.156 713.058 791.525 679.484 C 791.448 675.397 791.433 675.405 793.513 673.464 z" fill="rgb(4,206,177)" transform="translate(0,0)"></path>
<path d="M 1000.83 746.745 C 1001.37 764.488 1000.8 785.034 1000.83 803.02 L 1000.96 918.724 C 1000.95 938.911 1000.43 961.989 1001.38 981.95 C 1000.27 989.589 1000.87 1005.95 1000.98 1014.36 C 999.966 1062.06 1000.77 1110.24 999.831 1158.16 C 987.177 1172.8 968.552 1189.26 954.618 1203.7 C 901.262 1258.38 847.074 1312.24 792.073 1365.26 C 790.906 1297.79 792.713 1229.08 791.92 1161.53 C 791.611 1135.29 793.033 1104.14 791.819 1078.44 C 791.994 1068.33 791.91 1058.22 791.569 1048.11 C 793.971 1039.24 791.988 969.358 791.93 955.511 C 796.355 949.878 805.524 941.329 810.699 935.916 C 825.557 920.372 841.395 905.562 856.571 890.342 L 1000.83 746.745 z" fill="rgb(4,206,177)" transform="translate(0,0)"></path>
<path d="M 630.615 623.704 C 667.594 619.074 701.272 645.439 705.654 682.449 C 710.035 719.459 683.445 752.959 646.406 757.092 C 609.718 761.186 576.603 734.901 572.263 698.241 C 567.923 661.581 593.985 628.29 630.615 623.704 z" fill="rgb(4,206,177)" transform="translate(0,0)"></path>
<path d="M 1131.17 1214.94 C 1155.13 1216.75 1193.93 1215.59 1219.08 1215.6 C 1260.2 1216.71 1302.69 1215.01 1343.93 1215.54 C 1357.3 1215.71 1372.27 1214.71 1385.35 1215.28 C 1371.3 1231.41 1352.37 1248.57 1336.99 1263.98 C 1297.44 1303.6 1257.9 1342.03 1218.92 1382.32 C 1213.44 1383.73 1192.24 1383.3 1185.55 1383.28 L 1127.86 1383.17 C 1035.17 1382.83 942.476 1383.12 849.79 1384.05 C 858.848 1370.96 891.727 1340.44 903.995 1328.22 L 1016.66 1216.06 C 1042.54 1214.4 1073.22 1217.56 1098.6 1215.33 C 1107.31 1215.3 1123.07 1215.66 1131.17 1214.94 z" fill="rgb(4,206,177)" transform="translate(0,0)"></path>
<path d="M 1219.08 1215.6 C 1260.2 1216.71 1302.69 1215.01 1343.93 1215.54 C 1357.3 1215.71 1372.27 1214.71 1385.35 1215.28 C 1371.3 1231.41 1352.37 1248.57 1336.99 1263.98 C 1297.44 1303.6 1257.9 1342.03 1218.92 1382.32 C 1219.69 1326.75 1219.75 1271.17 1219.08 1215.6 z" fill="rgb(25,41,84)" transform="translate(0,0)"></path>
<path d="M 1414.26 906.296 C 1383.57 854.66 1429.3 795.779 1482.82 810.904 C 1499.33 815.485 1513.32 826.473 1521.68 841.424 C 1554.92 901.439 1486.01 961.861 1430.38 922.307 C 1413.51 935.823 1395.57 956.835 1379.81 972.35 L 1267.7 1082.3 C 1233.77 1115.69 1198.49 1147.85 1165.09 1181.77 C 1155.14 1191.88 1139.72 1205 1131.17 1214.94 C 1123.07 1215.66 1107.31 1215.3 1098.6 1215.33 C 1137.22 1178.94 1174.71 1139.86 1212.95 1102.8 C 1280.71 1037.98 1347.82 972.479 1414.26 906.296 z" fill="rgb(25,41,84)" transform="translate(0,0)"></path>
<path d="M 1458.39 833.995 C 1479.38 829.034 1500.42 842.002 1505.42 862.981 C 1510.42 883.959 1497.49 905.023 1476.52 910.059 C 1455.5 915.108 1434.37 902.137 1429.36 881.106 C 1424.34 860.075 1437.35 838.969 1458.39 833.995 z" fill="rgb(4,206,177)" transform="translate(0,0)"></path>
<metadata><recraft-signature>{"signed_by": "recraft", "signature_b64": "8DyVOfRXrX7f0tKDp4ZFf7b5Y5h5Gkexs/ng/GH5YNakqL88KEov1hw9HxVp//0w8sHMaabiINStBBr0xZpsDA==", "signing_algo": "Ed25519", "generation_timestamp": 1778163231, "identifier": "857ec542-a7dc-4f47-a084-b549ddff6770"}</recraft-signature></metadata></svg>