<svg xmlns="http://www.w3.org/2000/svg" height="1024" preserveAspectRatio="none" style="display: block;" version="1.1" viewBox="0 0 2048 2048" width="1024">
<defs>
	<linearGradient gradientUnits="userSpaceOnUse" id="Gradient1" x1="1445.39" x2="266.672" y1="1044.6" y2="569.41">
		<stop class="stop0" offset="0" stop-color="rgb(11,114,102)" stop-opacity="1"></stop>
		<stop class="stop1" offset="1" stop-color="rgb(14,157,137)" stop-opacity="1"></stop>
	</linearGradient>
</defs>
<path d="M 1242.94 1314.36 C 970.678 1521.62 583.306 1476.73 365.663 1212.69 C 148.019 948.659 177.881 559.84 433.292 332.139 C 688.702 104.437 1078.39 119.226 1315.8 365.63 C 1553.22 612.035 1553.53 1002 1316.5 1248.78 C 1293.71 1272.5 1269.12 1294.43 1242.94 1314.36 z M 883.556 1334.15 C 1174.79 1319.67 1399.09 1071.76 1384.43 780.533 C 1369.78 489.311 1121.73 265.162 830.515 279.993 C 539.553 294.81 315.639 542.603 330.28 833.574 C 344.92 1124.54 592.576 1348.61 883.556 1334.15 z" fill="url(#Gradient1)" transform="translate(0,0)"></path>
<path d="M 830.764 339.947 C 1089.17 324.545 1311.07 521.679 1326.21 780.1 C 1341.36 1038.52 1144 1260.22 885.566 1275.11 C 627.495 1289.97 406.174 1092.96 391.051 834.902 C 375.928 576.847 572.723 355.328 830.764 339.947 z M 879.535 1233.54 C 1114.78 1221.73 1295.91 1021.46 1284.1 786.22 C 1272.3 550.979 1072.04 369.846 836.795 381.645 C 601.55 393.445 420.412 593.716 432.215 828.961 C 444.017 1064.21 644.29 1245.34 879.535 1233.54 z" fill="rgb(10,110,103)" transform="translate(0,0)"></path>
<path d="M 797.244 603.038 C 775.456 561.347 787.242 510 825.032 481.985 C 862.821 453.971 915.377 457.618 948.934 490.583 C 982.492 523.549 987.074 576.031 959.736 614.313 C 952.611 624.291 943.632 632.805 933.29 639.391 C 898.391 661.612 853.156 658.857 821.212 632.564 C 811.325 624.427 803.175 614.386 797.244 603.038 z M 891.491 604.011 C 917.162 598.67 933.607 573.486 928.176 547.834 C 922.744 522.182 897.503 505.825 871.87 511.348 C 846.364 516.842 830.107 541.931 835.512 567.455 C 840.916 592.98 865.947 609.325 891.491 604.011 z" fill="rgb(10,110,103)" transform="translate(0,0)"></path>
<path d="M 659.378 882.329 C 617.791 905.05 565.802 893.367 537.934 855.04 C 510.065 816.713 514.98 763.655 549.414 731.099 C 583.848 698.542 637.099 696.608 673.804 726.58 C 683.673 734.639 691.806 744.614 697.711 755.903 C 714.768 788.508 711.294 828.058 688.815 857.19 C 680.847 867.516 670.823 876.076 659.378 882.329 z M 620.528 845.156 C 645.98 841.196 663.431 817.39 659.547 791.926 C 655.663 766.462 631.908 748.941 606.433 752.75 C 580.85 756.574 563.24 780.45 567.14 806.021 C 571.04 831.592 594.969 849.132 620.528 845.156 z" fill="rgb(10,110,103)" transform="translate(0,0)"></path>
<path d="M 1055.58 709.328 C 1094.2 682.475 1146.74 688.394 1178.42 723.166 C 1210.09 757.938 1211.1 810.799 1180.78 846.755 C 1150.45 882.711 1098.17 890.631 1058.56 865.272 C 1048.8 859.028 1040.29 851.031 1033.45 841.686 C 1010.73 810.644 1009.27 768.872 1029.78 736.325 C 1036.48 725.687 1045.26 716.506 1055.58 709.328 z M 1117.53 832.394 C 1143.19 827.848 1160.31 803.384 1155.79 777.728 C 1151.28 752.071 1126.84 734.92 1101.17 739.402 C 1075.47 743.892 1058.28 768.387 1062.8 794.089 C 1067.32 819.791 1091.84 836.949 1117.53 832.394 z" fill="rgb(10,110,103)" transform="translate(0,0)"></path>
<path d="M 803.145 969.833 C 833.447 952.498 870.914 953.633 900.111 972.772 C 910.256 979.423 919 987.998 925.846 998.012 C 952.389 1036.84 945.694 1089.38 910.263 1120.31 C 874.831 1151.24 821.865 1150.77 786.981 1119.23 C 752.098 1087.68 746.325 1035.03 773.545 996.677 C 781.345 985.686 791.446 976.526 803.145 969.833 z M 856.57 1095.89 C 881.44 1092.09 898.561 1068.9 894.886 1044.01 C 891.211 1019.12 868.119 1001.88 843.211 1005.42 C 818.115 1008.99 800.712 1032.3 804.415 1057.37 C 808.118 1082.45 831.514 1099.73 856.57 1095.89 z" fill="rgb(10,110,103)" transform="translate(0,0)"></path>
<path d="M 1033.45 841.686 C 1040.29 851.031 1048.8 859.028 1058.56 865.272 C 1029.63 893.769 1000.87 922.445 972.296 951.298 C 957.332 966.302 940.172 982.702 925.846 998.012 C 919 987.998 910.256 979.423 900.111 972.772 C 904.18 967.341 913.082 958.759 918.358 953.684 C 952.376 920.965 985.371 887.314 1018.96 854.195 C 1023.33 849.886 1028.51 845.241 1033.45 841.686 z" fill="rgb(117,203,190)" transform="translate(0,0)"></path>
<path d="M 797.244 603.038 C 803.175 614.386 811.325 624.427 821.212 632.564 C 793.328 666.787 757.126 694.569 726.694 726.498 C 717.232 736.425 707.094 745.888 697.711 755.903 C 691.806 744.614 683.673 734.639 673.804 726.58 C 697.051 700.276 725.714 673.736 750.856 649.138 C 766.427 633.904 781.703 618.341 797.244 603.038 z" fill="rgb(117,203,190)" transform="translate(0,0)"></path>
<path d="M 688.815 857.19 C 699.072 867.638 712.163 878.929 723.146 889.779 L 803.145 969.833 C 791.446 976.526 781.345 985.686 773.545 996.677 L 711.596 934.638 C 693.682 916.433 678.186 899.785 659.378 882.329 C 670.823 876.076 680.847 867.516 688.815 857.19 z" fill="rgb(117,203,190)" transform="translate(0,0)"></path>
<path d="M 959.736 614.313 C 982.575 636.521 1005.48 658.765 1028.51 680.779 C 1037.78 689.636 1047.07 701.383 1055.58 709.328 C 1045.26 716.506 1036.48 725.687 1029.78 736.325 C 1011.87 721.406 993.573 701.098 976.775 684.403 C 962.944 670.655 944.913 654.23 933.29 639.391 C 943.632 632.805 952.611 624.291 959.736 614.313 z" fill="rgb(117,203,190)" transform="translate(0,0)"></path>
<path d="M 1433.3 1366.59 C 1444.48 1354.32 1456.02 1338.63 1473.59 1338.81 C 1481.27 1338.89 1487.12 1338.87 1493 1343.96 C 1511.72 1360.18 1530.4 1379.68 1548.11 1397.24 L 1658.72 1507.47 L 1758.13 1606.63 C 1792.46 1641.33 1820.11 1662.08 1827.24 1714.28 C 1841.21 1816.69 1745.4 1897.43 1646.58 1869.78 C 1603.36 1857.69 1584.14 1833.45 1553.56 1803.14 C 1522.43 1772.27 1492.54 1740.18 1461.61 1709.11 L 1352.84 1600.32 C 1335.92 1583.35 1317.8 1565.76 1301.49 1548.44 C 1289.96 1536.18 1292.92 1512.26 1303.75 1500.34 C 1311.16 1492.17 1319.05 1483.96 1327.1 1475.8 L 1365.42 1437.1 C 1374.39 1427.12 1429.14 1374.46 1433.3 1366.59 z" fill="rgb(10,110,103)" transform="translate(0,0)"></path>
<path d="M 1474.38 1444.7 C 1478.8 1446.92 1517.52 1486.93 1523.48 1492.79 L 1666.98 1635.11 C 1691.2 1659.48 1718.01 1682.7 1738.78 1710.11 C 1744.5 1717.67 1746.02 1738.24 1743.85 1747.01 C 1735.55 1780.55 1704.44 1798.37 1671.17 1791 C 1653.1 1785.88 1636.95 1765.85 1623.66 1752.52 C 1600.52 1729.27 1577.56 1705.84 1554.78 1682.24 C 1502.73 1629.4 1448.89 1577.89 1396.82 1524.74 C 1410.07 1510.12 1424.44 1495.72 1438.18 1481.51 C 1449.82 1469.46 1462.12 1455.91 1474.38 1444.7 z" fill="rgb(117,203,190)" transform="translate(0,0)"></path>
<path d="M 1316.5 1248.78 C 1324.51 1258.88 1349.84 1284.08 1360.11 1294.06 C 1382.92 1316.23 1409.83 1345.77 1433.3 1366.59 C 1429.14 1374.46 1374.39 1427.12 1365.42 1437.1 C 1335.13 1406.18 1305.05 1375.3 1273.89 1345.24 C 1263.53 1335.23 1252.82 1324.82 1242.94 1314.36 C 1269.12 1294.43 1293.71 1272.5 1316.5 1248.78 z" fill="rgb(13,63,68)" transform="translate(0,0)"></path>
<metadata><recraft-signature>{"signed_by": "recraft", "signature_b64": "VsqDjSkHnBqn39mSTJnwylrRym4stDiUM82jrxJ+11NNfYs7+pyT9cH//dn7lCN/wi3mGhhC1tBbRw1yLahaCg==", "signing_algo": "Ed25519", "generation_timestamp": 1778163147, "identifier": "089d947c-f7c5-47f6-ae21-01a44b7c2b84"}</recraft-signature></metadata></svg>