<svg xmlns="http://www.w3.org/2000/svg" height="1024" preserveAspectRatio="none" style="display: block;" version="1.1" viewBox="0 0 2048 2048" width="1024">
<path d="M 1023.04 1052.17 C 1091.34 1053.64 1161.32 1051.48 1229.74 1052.35 C 1254.93 1052.67 1290.03 1050.91 1313.8 1052.55 L 1313.3 1204.7 C 1313.22 1230.75 1313.71 1257.03 1312.73 1283.04 C 1311.59 1313.35 1287.51 1312.43 1264.98 1312.39 L 1022.97 1312.95 L 1023.04 1052.17 z" fill="rgb(59,82,95)" transform="translate(0,0)"></path>
<path d="M 1022.77 735.652 L 1209.4 735.983 L 1256.18 735.758 C 1275.26 735.621 1291.53 732.679 1305.3 748.201 C 1315.79 760.021 1313.48 783.972 1313.47 798.705 L 1313.5 849.475 C 1313.55 896.938 1313.6 944.539 1313.81 992.013 C 1313.81 993.04 1313.71 994.375 1313.67 995.104 L 1022.94 995.103 C 1021.32 909.494 1023.51 821.615 1022.77 735.652 z" fill="rgb(59,82,95)" transform="translate(0,0)"></path>
<path d="M 735.451 1052.77 C 764.814 1051.39 806.07 1052.19 836.098 1052.16 L 1023.04 1052.17 L 1022.97 1312.95 L 845.366 1312.85 L 795.483 1313.02 C 762.456 1313.15 734.956 1316.01 735.677 1272.81 C 736.002 1253.3 735.741 1232.16 735.749 1212.54 L 735.451 1052.77 z" fill="rgb(53,217,195)" transform="translate(0,0)"></path>
<path d="M 735.105 994.361 L 735.2 844.908 C 735.165 826.565 735.099 808.21 735.089 789.877 C 735.084 780.8 734.786 772.558 736.102 763.582 C 740.785 731.633 772.351 735.434 794.692 735.549 L 844.25 735.73 L 1022.77 735.652 C 1023.51 821.615 1021.32 909.494 1022.94 995.103 L 838.935 994.926 C 809.15 994.895 763.904 996.341 735.105 994.361 z" fill="rgb(53,217,195)" transform="translate(0,0)"></path>
<path d="M 715.921 478.491 C 762.907 478.078 809.895 477.905 856.884 477.973 C 880.082 477.982 911.581 477.091 934.265 478.552 C 935.208 498.761 934.806 523.084 935.014 543.576 C 912.567 544.289 886.484 543.669 863.708 543.659 L 726.336 543.613 C 672.69 543.626 616.308 535.439 575.649 576.417 C 538.613 613.744 543.134 651.743 543.368 699.779 L 543.652 779.5 C 543.74 831.503 544.431 884.937 543.135 936.841 C 522.463 936.238 501.537 936.435 480.803 936.03 C 480.683 934.433 480.628 933.114 480.627 931.51 L 480.152 739.624 C 479.944 659.946 468.548 593.258 530.936 531.926 C 588.917 474.927 642.416 478.817 715.921 478.491 z" fill="rgb(15,132,141)" transform="translate(0,0)"></path>
<path d="M 1119.01 478.467 C 1131.48 478.081 1147.44 478.773 1160.39 478.77 L 1264.66 478.759 L 1344.97 478.487 C 1371.04 478.332 1407.7 476.492 1431.99 483.248 C 1482.42 497.275 1520.02 524.865 1545.97 570.525 C 1556.75 589.265 1563.66 609.97 1566.32 631.422 C 1568.48 648.854 1569.74 928.477 1567.34 937.213 L 1565.24 937.891 C 1546.13 937.386 1522.93 938.471 1504.88 937.05 C 1503.68 915.62 1504.91 881.324 1504.9 858.738 C 1505.03 811.578 1504.8 764.418 1504.21 717.262 C 1504.09 667.342 1511.94 616.589 1474.46 577.377 C 1459.47 561.821 1440.29 550.943 1419.25 546.059 C 1400.14 541.722 1347.92 543.899 1326 543.568 C 1256.79 542.523 1184.98 545.269 1115.9 543.632 C 1115.86 534.267 1114.82 485.136 1116.54 479.373 L 1119.01 478.467 z" fill="rgb(15,132,141)" transform="translate(0,0)"></path>
<path d="M 480.22 1114.03 C 499.857 1113.22 523.163 1113.79 543.001 1113.91 C 544.389 1134.26 543.589 1166.3 543.657 1187.64 L 543.854 1328.58 C 543.807 1381.08 536.026 1423.81 574.086 1465.97 C 589.614 1482.88 609.78 1494.85 632.068 1500.38 C 649.725 1504.62 697.054 1503.14 718.082 1503.1 L 854.504 1502.89 C 878.765 1502.78 910.772 1501.68 934.334 1502.93 C 935.278 1519.8 934.311 1547.55 934.111 1565.11 C 933.856 1566.08 934.083 1565.44 933.061 1566.86 L 659.294 1567.18 C 608.065 1567.15 568.712 1549.41 532.108 1513.86 C 469.159 1452.72 480.868 1378.63 480.829 1298.45 L 480.22 1114.03 z" fill="rgb(15,132,141)" transform="translate(0,0)"></path>
<path d="M 1554.82 1111.54 C 1559.11 1111.36 1563.62 1111.42 1567.92 1111.4 L 1568.1 1306.2 C 1567.94 1388.9 1579.86 1450.72 1516.04 1515.31 C 1492.75 1538.56 1463.37 1554.75 1431.28 1562.03 C 1407.02 1567.54 1348.04 1566.16 1319.92 1566.19 L 1129.25 1566.31 L 1115.66 1566.34 C 1116.08 1545.74 1115.68 1523.87 1115.67 1503.18 C 1196.49 1501.89 1278.09 1505.04 1359.02 1503.52 C 1378.31 1503.16 1400.52 1504.67 1419.27 1500.36 C 1439.79 1495.46 1458.54 1484.95 1473.44 1470.01 C 1500 1443.75 1505.81 1410.66 1504.96 1375.05 C 1504.45 1353.17 1504.91 1330.48 1504.89 1308.53 L 1504.93 1112.2 L 1554.82 1111.54 z" fill="rgb(15,132,141)" transform="translate(0,0)"></path>
<path d="M 1761.61 963.222 C 1803.57 955.653 1843.7 983.609 1851.15 1025.6 C 1858.59 1067.58 1830.51 1107.63 1788.5 1114.95 C 1746.67 1122.23 1706.83 1094.3 1699.42 1052.49 C 1692.01 1010.68 1719.82 970.76 1761.61 963.222 z" fill="rgb(53,217,195)" transform="translate(0,0)"></path>
<path d="M 264.202 962.867 C 306.182 959.001 343.366 989.853 347.314 1031.83 C 351.262 1073.8 320.482 1111.04 278.518 1115.07 C 236.438 1119.11 199.068 1088.23 195.11 1046.14 C 191.151 1004.05 222.106 966.744 264.202 962.867 z" fill="rgb(53,217,195)" transform="translate(0,0)"></path>
<path d="M 444.19 991.373 L 549.189 991.749 C 567.872 991.788 609.244 989.052 623.828 998.754 C 630.579 1003.21 635.244 1010.2 636.761 1018.14 C 641.112 1039.93 628.363 1054.49 607.42 1057.88 C 576.794 1058.6 544.808 1057.24 513.913 1057.83 C 490.902 1057.72 467.877 1058.59 444.884 1057.65 C 430.502 1057.07 418.103 1048.71 415.109 1034.13 C 410.327 1010.85 421.237 995.815 444.19 991.373 z" fill="rgb(53,217,195)" transform="translate(0,0)"></path>
<path d="M 1014.23 1441.27 C 1021.86 1440.34 1028.46 1440.46 1035.77 1443.16 C 1044.91 1446.55 1053.24 1453.71 1057.19 1462.74 C 1062.45 1474.77 1062.97 1604.84 1057.03 1617.62 C 1052.45 1627.46 1043.73 1633.27 1033.78 1636.68 C 1008.89 1639.55 988.615 1629.5 987.881 1602.44 C 987.327 1582 986.553 1560.22 987.139 1539.77 C 987.889 1513.6 984.039 1484.72 990.665 1459.61 C 993.051 1451.07 1006.17 1444.07 1014.23 1441.27 z" fill="rgb(53,217,195)" transform="translate(0,0)"></path>
<path d="M 1451.35 992.232 C 1470.49 990.638 1601.81 990.162 1612.65 993.853 C 1621.02 996.701 1628.33 1004.44 1631.73 1012.44 C 1635.21 1020.59 1635.53 1031.25 1631.86 1039.41 C 1627.76 1048.56 1618.96 1054.18 1610.01 1057.77 C 1602.85 1058.87 1595.53 1058.97 1588.3 1058.92 C 1544.91 1058.77 1503.66 1059.22 1460.08 1058.65 C 1432.66 1058.29 1422.2 1035.09 1429.89 1010.26 C 1432.6 1001.54 1442.88 995.267 1451.35 992.232 z" fill="rgb(53,217,195)" transform="translate(0,0)"></path>
<path d="M 1019.94 406.237 C 1026.45 405.525 1033.41 406.989 1039.31 409.75 C 1046.93 413.314 1054.07 419.725 1056.65 427.95 C 1060.79 441.158 1060.43 551.264 1058.69 569.377 C 1058.14 575.148 1057.19 581.753 1054.19 586.777 C 1048.6 596.143 1038.36 600.481 1028.24 602.899 C 1020.6 603.45 1012.23 601.715 1005.62 597.791 C 998.628 593.636 992.848 586.91 990.987 578.885 C 987.416 563.487 987.87 453.833 990.215 436.407 C 991.019 430.435 992.506 425.282 995.948 420.251 C 1001.72 411.82 1010.22 408.073 1019.94 406.237 z" fill="rgb(53,217,195)" transform="translate(0,0)"></path>
<metadata><recraft-signature>{"signed_by": "recraft", "signature_b64": "4jPVKo4taNzgZAgyiGLdfQOCIuWQwLHBHQbKtgCy59B2+1MGh9SoM3TRvzRyORQ9lJBrbTGkll5zd+O16Jc4CA==", "signing_algo": "Ed25519", "generation_timestamp": 1778163169, "identifier": "2942d0e8-86f7-4733-a7e3-dc4ef187ed47"}</recraft-signature></metadata></svg>