<svg xmlns="http://www.w3.org/2000/svg" height="1024" preserveAspectRatio="none" style="display: block;" version="1.1" viewBox="0 0 2048 2048" width="1024">
<path d="M 462.615 74.5 L 1616.11 73.5785 C 1711.34 73.4585 1796.32 105.178 1863.7 173.038 C 1908.56 218.216 1940.34 277.979 1954.3 340.032 C 1965.32 389.049 1963.4 438.39 1963.33 488.368 L 1963.28 617.7 L 1963.29 1082.4 L 1963.22 1460.67 L 1963.13 1565.33 C 1963.13 1607.78 1965.18 1642.66 1955.33 1684.69 C 1940.11 1750.61 1906.63 1810.92 1858.72 1858.69 C 1804.64 1912.75 1731.18 1944.54 1655.42 1951.28 C 1634.19 1953.17 1606.88 1952.5 1585.2 1952.52 L 735.518 1952.28 L 512.508 1952.29 C 469.368 1952.29 403.663 1954.61 362.955 1946.87 C 296.708 1934.51 235.594 1902.85 187.297 1855.85 C 119.613 1790.4 84.0572 1694.22 83.4091 1601 C 83.1802 1568.08 83.7766 1534.25 83.8573 1501.22 L 83.8974 1313.46 L 83.7886 748.823 L 84.1747 514.317 C 84.1455 461.912 81.1762 406.85 89.3528 355.242 C 111.996 212.327 226.303 95.5607 370.867 77.1728 C 399.733 73.5011 433.325 74.6307 462.615 74.5 z M 1526.07 1719.72 C 1583.26 1715.87 1636.94 1691.44 1675.04 1648.17 C 1702.01 1617.59 1719.28 1579.69 1724.67 1539.27 C 1727.81 1517.13 1727.06 1495.7 1727.05 1473.41 L 1727.01 1393.15 L 1726.91 1110.89 L 1726.96 703.083 L 1727.02 578.3 C 1727.05 557.246 1727.89 528.436 1726.48 507.833 C 1722.82 451.122 1696.66 398.223 1653.8 360.905 C 1600.49 314.6 1547.97 310.919 1481.47 310.931 L 1403.32 310.99 L 1139.96 310.955 L 727.019 310.941 L 592.537 310.966 C 571.912 310.973 541.831 310.017 522.21 311.411 C 423.275 316.805 342.607 388.826 325.705 486.431 C 322.302 506.081 322.732 526.814 322.585 546.732 L 322.383 613.921 C 322.715 685.963 322.686 758.006 322.294 830.047 L 321.985 1288.18 L 321.928 1426.42 C 321.814 1455.99 321.452 1485.26 322.359 1514.7 C 325.586 1619.43 405.537 1703.65 508.13 1717.49 C 529.436 1720.37 548.226 1719.92 569.729 1719.89 L 640.998 1719.76 L 893.164 1719.56 L 1316.5 1719.76 L 1452.35 1719.96 C 1475.37 1720 1503.44 1720.74 1526.07 1719.72 z" fill="rgb(22,147,148)" transform="translate(0,0)"></path>
<path d="M 450.279 1020.2 C 450.002 1019.98 448.108 1017.84 447.815 1017.52 C 448.322 1012.85 458.015 1006 461.661 1002.43 C 471.617 992.557 481.518 982.624 491.363 972.636 L 605.841 856.588 C 615.889 866.425 625.29 876.993 635.308 886.979 C 679.652 930.753 723.653 974.873 767.308 1019.33 L 951.864 1203.37 C 975.236 1226.69 1000.02 1254.09 1024.13 1276.16 C 1025.39 1380.07 1024.61 1487.74 1024.45 1591.77 C 1015.51 1584.23 1001.8 1568.11 992.497 1558.97 L 878.717 1445.17 L 450.279 1020.2 z" fill="rgb(3,210,196)" transform="translate(0,0)"></path>
<path d="M 450.279 1020.2 C 450.002 1019.98 448.108 1017.84 447.815 1017.52 C 448.322 1012.85 458.015 1006 461.661 1002.43 C 471.617 992.557 481.518 982.624 491.363 972.636 L 605.841 856.588 C 615.889 866.425 625.29 876.993 635.308 886.979 C 679.652 930.753 723.653 974.873 767.308 1019.33 C 743.884 1020.9 703.983 1019.22 679.174 1019.13 L 507.233 1019.03 C 499.386 1019.05 454.854 1018.5 450.279 1020.2 z" fill="rgb(22,147,148)" transform="translate(0,0)"></path>
<path d="M 1441.05 858.365 C 1462.48 876.763 1483.29 900.518 1503.77 920.422 C 1533.86 949.676 1562.13 981.203 1592.36 1010.34 C 1594.24 1012.16 1596.29 1014.77 1596.67 1017.44 L 1595.26 1019.59 L 1247.8 1366.88 L 1074.68 1540.48 C 1058.26 1556.76 1040.83 1576.19 1024.45 1591.77 C 1024.61 1487.74 1025.39 1380.07 1024.13 1276.16 C 1044.84 1256.28 1068.74 1230.79 1089.57 1209.93 L 1282.23 1016.61 L 1391.12 907.381 C 1403.27 895.237 1429.06 867.893 1441.05 858.365 z" fill="rgb(34,71,101)" transform="translate(0,0)"></path>
<path d="M 1441.05 858.365 C 1462.48 876.763 1483.29 900.518 1503.77 920.422 C 1533.86 949.676 1562.13 981.203 1592.36 1010.34 C 1594.24 1012.16 1596.29 1014.77 1596.67 1017.44 L 1595.26 1019.59 C 1581.11 1017.81 1532.06 1018.65 1514.83 1018.59 L 1343.16 1018.43 C 1332.85 1018.44 1289.5 1019.71 1282.23 1016.61 L 1391.12 907.381 C 1403.27 895.237 1429.06 867.893 1441.05 858.365 z" fill="rgb(16,50,84)" transform="translate(0,0)"></path>
<path d="M 1243.44 700.158 C 1266.58 698.166 1286.95 715.326 1288.91 738.469 C 1290.87 761.612 1273.68 781.956 1250.54 783.887 C 1227.43 785.814 1207.14 768.666 1205.18 745.567 C 1203.22 722.467 1220.34 702.147 1243.44 700.158 z" fill="rgb(136,135,159)" fill-opacity="0.890196" transform="translate(0,0)"></path>
<path d="M 1410.74 513.308 C 1423.78 510.665 1437.24 515.235 1445.97 525.274 C 1454.7 535.312 1457.36 549.27 1452.94 561.817 C 1448.51 574.365 1437.69 583.566 1424.59 585.907 C 1404.66 589.469 1385.58 576.335 1381.78 556.45 C 1377.99 536.565 1390.9 517.33 1410.74 513.308 z" fill="rgb(3,210,196)" fill-opacity="0.984314" transform="translate(0,0)"></path>
<path d="M 1055.9 513.496 C 1075.48 510.991 1093.47 524.615 1096.37 544.145 C 1099.27 563.676 1086.01 581.936 1066.54 585.226 C 1053.6 587.414 1040.48 582.433 1032.25 572.204 C 1024.01 561.974 1021.95 548.094 1026.86 535.916 C 1031.77 523.737 1042.87 515.161 1055.9 513.496 z" fill="rgb(3,210,196)" fill-opacity="0.972549" transform="translate(0,0)"></path>
<path d="M 578.897 1356.59 C 593.877 1352.59 609.819 1357.64 619.759 1369.54 C 629.699 1381.44 631.832 1398.03 625.225 1412.06 C 622.57 1410.48 622.681 1410.31 619.677 1409.97 C 615.362 1411.94 612.421 1416.38 608.856 1419.95 C 602.061 1426.75 581.865 1423.43 571.499 1422.63 C 567.57 1417.28 567.626 1417.01 561.757 1413.13 C 561.31 1409.44 561.196 1403.99 558.686 1401.52 C 548.442 1403.43 553.187 1394.94 551.204 1389.57 C 554.245 1386.89 553.552 1386.6 556.751 1386.36 C 558.601 1388.16 558.814 1388.35 559.911 1390.59 L 560.717 1392.27 C 561.513 1389.71 562.404 1381 562.819 1377.86 C 567.419 1371.99 570.344 1370.64 576.712 1366.8 C 579.544 1362.08 575.744 1362.14 578.897 1356.59 z" fill="rgb(136,135,159)" fill-opacity="0.717647" transform="translate(0,0)"></path>
<path d="M 549.791 1389.1 L 551.204 1389.57 C 553.187 1394.94 548.442 1403.43 558.686 1401.52 C 561.196 1403.99 561.31 1409.44 561.757 1413.13 C 567.626 1417.01 567.57 1417.28 571.499 1422.63 C 581.865 1423.43 602.061 1426.75 608.856 1419.95 C 612.421 1416.38 615.362 1411.94 619.677 1409.97 C 622.681 1410.31 622.57 1410.48 625.225 1412.06 C 616.795 1429.95 596.508 1438.96 577.581 1433.19 C 558.655 1427.43 546.821 1408.66 549.791 1389.1 z" fill="rgb(136,135,159)" fill-opacity="0.921569" transform="translate(0,0)"></path>
<path d="M 556.009 1373.01 C 561.383 1364.93 569.522 1359.09 578.897 1356.59 C 575.744 1362.14 579.544 1362.08 576.712 1366.8 C 570.344 1370.64 567.419 1371.99 562.819 1377.86 C 562.404 1381 561.513 1389.71 560.717 1392.27 L 559.911 1390.59 C 558.814 1388.35 558.601 1388.16 556.751 1386.36 C 553.552 1386.6 554.245 1386.89 551.204 1389.57 L 549.791 1389.1 C 549.961 1387.98 550.179 1386.86 550.445 1385.76 C 554.275 1382.61 557.097 1384.47 559.241 1379.63 C 558.785 1375.91 558.356 1375.87 556.009 1373.01 z" fill="rgb(136,135,159)" fill-opacity="0.882353" transform="translate(0,0)"></path>
<path d="M 556.009 1373.01 C 558.356 1375.87 558.785 1375.91 559.241 1379.63 C 557.097 1384.47 554.275 1382.61 550.445 1385.76 C 551.537 1381.22 553.421 1376.9 556.009 1373.01 z" fill="rgb(136,135,159)" fill-opacity="0.917647" transform="translate(0,0)"></path>
<metadata><recraft-signature>{"signed_by": "recraft", "signature_b64": "UqR0cWgnsI/sH2P4j96B60P5Y6E+sDsd6k37Eb65RtNUpTMW5DsaLFXD/3DVlHetiYQtHvQLJbynkPwbdVjiAw==", "signing_algo": "Ed25519", "generation_timestamp": 1778163209, "identifier": "64f9ecf9-18c3-4255-9443-730d496d8be4"}</recraft-signature></metadata></svg>