<svg xmlns="http://www.w3.org/2000/svg" height="1024" preserveAspectRatio="none" style="display: block;" version="1.1" viewBox="0 0 2048 2048" width="1024">
<defs>
	<linearGradient gradientUnits="userSpaceOnUse" id="Gradient1" x1="766.895" x2="750.881" y1="1254.88" y2="1265.31">
		<stop class="stop0" offset="0" stop-color="rgb(251,246,236)" stop-opacity="0.737255"></stop>
		<stop class="stop1" offset="1" stop-color="rgb(247,246,237)" stop-opacity="0.776471"></stop>
	</linearGradient>
	<linearGradient gradientUnits="userSpaceOnUse" id="Gradient2" x1="1304.73" x2="1225.07" y1="752.877" y2="755.844">
		<stop class="stop0" offset="0" stop-color="rgb(246,244,234)" stop-opacity="0.305882"></stop>
		<stop class="stop1" offset="1" stop-color="rgb(249,247,238)" stop-opacity="0.537255"></stop>
	</linearGradient>
	<linearGradient gradientUnits="userSpaceOnUse" id="Gradient3" x1="1237.36" x2="1358.79" y1="789.659" y2="736.515">
		<stop class="stop0" offset="0" stop-color="rgb(252,251,247)" stop-opacity="0.0627451"></stop>
		<stop class="stop1" offset="1" stop-color="rgb(247,245,239)" stop-opacity="0.12549"></stop>
	</linearGradient>
	<linearGradient gradientUnits="userSpaceOnUse" id="Gradient4" x1="1353.98" x2="1249.24" y1="1332.39" y2="1263.28">
		<stop class="stop0" offset="0" stop-color="rgb(245,243,225)" stop-opacity="0.960784"></stop>
		<stop class="stop1" offset="1" stop-color="rgb(254,243,226)" stop-opacity="1"></stop>
	</linearGradient>
</defs>
<path d="M 375.891 1023.84 C 380.039 1018.77 394.768 1004.77 400.048 999.439 L 453.807 944.956 L 658.271 740.562 L 907.031 491.537 L 991.243 406.787 C 1001.7 396.259 1013.62 382.527 1023.94 373.037 C 1023.92 396.248 1028.11 514.871 1023.35 528.603 L 1022.65 529.264 L 1023.2 530.389 L 1138.85 644.282 C 1155.93 661.258 1178.97 682.414 1194.25 699.898 L 1194.84 699.912 C 1202.86 709.193 1213.23 718.682 1222 727.574 C 1224.37 731.507 1265.85 773.023 1270.17 776.188 C 1278.11 784.568 1288.21 794.371 1296.68 802.314 C 1313.06 819.357 1330.49 837.537 1347.95 853.404 L 1348.43 854.414 C 1347.3 862.054 1347.78 879.192 1347.83 887.458 L 1348.22 957.566 C 1348.26 966.327 1348.74 987.123 1347.71 995.076 C 1340.34 987.99 1332.32 978.507 1324.9 970.955 C 1316.15 961.28 1305.27 953.304 1296.2 944.059 C 1222.27 868.708 1132.1 821.083 1023.94 819.384 C 923.12 823.895 855.006 858.434 778.554 923.242 C 753.931 944.114 733.725 962.794 711.909 986.666 C 707.321 991.682 702.771 996.733 698.261 1001.82 C 691.447 1008.67 682.133 1017.43 676.888 1025.24 C 684.107 1032.52 691.261 1039.65 698.165 1047.24 C 695.258 1054.42 698.164 1149 697.263 1161.91 C 696.909 1166.99 697.987 1184.09 696.449 1190.36 L 696.877 1190.82 C 696.527 1223.14 697.125 1255.83 697.025 1288.19 C 697.003 1295.47 696.509 1328.3 697.518 1332.94 C 702.204 1339.67 703.685 1342.98 710.348 1348.07 C 706.83 1348.47 703.983 1348.83 700.45 1348.89 L 696.896 1345.25 C 675.866 1325.31 655.924 1303.32 635.324 1282.93 L 375.891 1023.84 z M 698.433 854.606 C 712.62 842.927 733.185 819.515 745.457 805.851 C 747.518 792.857 745.853 790.041 754.647 779.904 C 767.223 765.409 777.733 772.846 789.56 762.224 C 810.643 743.291 831.572 721.197 851.575 701.093 C 819.083 700.678 786.884 700.257 754.365 700.989 C 737.573 701.366 714.304 699.945 698.268 702.404 C 696.917 727.537 697.924 755.731 697.556 781.207 C 697.285 799.913 695.565 836.712 698.433 854.606 z" fill="rgb(240,189,102)" transform="translate(0,0)"></path>
<path d="M 1022.65 529.264 L 1023.2 530.389 L 1138.85 644.282 C 1155.93 661.258 1178.97 682.414 1194.25 699.898 L 1194.84 699.912 C 1202.86 709.193 1213.23 718.682 1222 727.574 C 1224.37 731.507 1265.85 773.023 1270.17 776.188 C 1278.11 784.568 1288.21 794.371 1296.68 802.314 C 1313.06 819.357 1330.49 837.537 1347.95 853.404 L 1348.43 854.414 C 1347.3 862.054 1347.78 879.192 1347.83 887.458 L 1348.22 957.566 C 1348.26 966.327 1348.74 987.123 1347.71 995.076 C 1340.34 987.99 1332.32 978.507 1324.9 970.955 C 1316.15 961.28 1305.27 953.304 1296.2 944.059 C 1222.27 868.708 1132.1 821.083 1023.94 819.384 C 923.12 823.895 855.006 858.434 778.554 923.242 C 753.931 944.114 733.725 962.794 711.909 986.666 C 707.321 991.682 702.771 996.733 698.261 1001.82 C 695.81 961.892 697.883 920.528 696.973 880.495 C 696.8 872.879 697.055 865.549 696.534 857.893 L 698.433 854.606 C 712.62 842.927 733.185 819.515 745.457 805.851 C 747.518 792.857 745.853 790.041 754.647 779.904 C 767.223 765.409 777.733 772.846 789.56 762.224 C 810.643 743.291 831.572 721.197 851.575 701.093 L 852.363 700.762 C 861.226 692.393 870.479 681.993 879.42 673.172 L 988.323 564.317 C 999.596 553.015 1011.22 539.912 1022.65 529.264 z" fill="rgb(37,149,130)" transform="translate(0,0)"></path>
<path d="M 852.363 700.762 C 869.155 701.911 895.283 701.065 912.62 701.037 L 1023.92 700.935 L 1023.94 819.384 C 923.12 823.895 855.006 858.434 778.554 923.242 C 753.931 944.114 733.725 962.794 711.909 986.666 C 707.321 991.682 702.771 996.733 698.261 1001.82 C 695.81 961.892 697.883 920.528 696.973 880.495 C 696.8 872.879 697.055 865.549 696.534 857.893 L 698.433 854.606 C 712.62 842.927 733.185 819.515 745.457 805.851 C 747.518 792.857 745.853 790.041 754.647 779.904 C 767.223 765.409 777.733 772.846 789.56 762.224 C 810.643 743.291 831.572 721.197 851.575 701.093 L 852.363 700.762 z" fill="rgb(75,181,159)" transform="translate(0,0)"></path>
<path d="M 1023.2 530.389 L 1138.85 644.282 C 1155.93 661.258 1178.97 682.414 1194.25 699.898 C 1188.57 701.831 1147.69 700.841 1139.16 700.882 C 1100.94 701.068 1062.31 699.874 1024.08 700.786 L 1023.11 589.676 C 1022.97 573.514 1022 545.892 1023.2 530.389 z" fill="rgb(14,110,97)" transform="translate(0,0)"></path>
<path d="M 375.891 1023.84 L 476.356 1024.08 C 493.463 1024.08 514.147 1023.59 531.007 1024.41 L 531.728 1024.09 C 579.247 1023.28 629.548 1026.44 676.888 1025.24 C 684.107 1032.52 691.261 1039.65 698.165 1047.24 C 695.258 1054.42 698.164 1149 697.263 1161.91 C 696.909 1166.99 697.987 1184.09 696.449 1190.36 L 696.877 1190.82 C 696.527 1223.14 697.125 1255.83 697.025 1288.19 C 697.003 1295.47 696.509 1328.3 697.518 1332.94 C 702.204 1339.67 703.685 1342.98 710.348 1348.07 C 706.83 1348.47 703.983 1348.83 700.45 1348.89 L 696.896 1345.25 C 675.866 1325.31 655.924 1303.32 635.324 1282.93 L 375.891 1023.84 z" fill="rgb(222,143,64)" transform="translate(0,0)"></path>
<path d="M 531.728 1024.09 C 579.247 1023.28 629.548 1026.44 676.888 1025.24 C 684.107 1032.52 691.261 1039.65 698.165 1047.24 C 695.258 1054.42 698.164 1149 697.263 1161.91 C 696.909 1166.99 697.987 1184.09 696.449 1190.36 C 679.011 1171.97 658.256 1152.68 640.078 1134.54 L 531.007 1024.41 L 531.728 1024.09 z" fill="rgb(14,110,97)" transform="translate(0,0)"></path>
<path d="M 696.896 1345.25 C 696.852 1340.4 696.974 1337.76 697.518 1332.94 C 702.204 1339.67 703.685 1342.98 710.348 1348.07 C 706.83 1348.47 703.983 1348.83 700.45 1348.89 L 696.896 1345.25 z" fill="rgb(254,253,253)" transform="translate(0,0)"></path>
<path d="M 531.728 1024.09 C 581.882 967.477 643.006 911.671 696.534 857.893 C 697.055 865.549 696.8 872.879 696.973 880.495 C 697.883 920.528 695.81 961.892 698.261 1001.82 C 691.447 1008.67 682.133 1017.43 676.888 1025.24 C 629.548 1026.44 579.247 1023.28 531.728 1024.09 z" fill="rgb(37,149,130)" transform="translate(0,0)"></path>
<path d="M 1003.06 860.786 C 1051.52 854.335 1100.32 869.963 1136.02 903.368 C 1171.72 936.772 1190.55 984.429 1187.32 1033.21 C 1181.66 1118.92 1110.5 1185.55 1024.6 1185.56 C 938.706 1185.57 867.524 1118.96 861.839 1033.25 C 856.154 947.546 917.916 872.119 1003.06 860.786 z" fill="rgb(31,78,83)" transform="translate(0,0)"></path>
<path d="M 1003.06 860.786 C 1051.52 854.335 1100.32 869.963 1136.02 903.368 C 1171.72 936.772 1190.55 984.429 1187.32 1033.21 C 1164.88 1043.47 1151.05 1047.69 1125.88 1046.59 C 1038.4 1042.75 986.996 963.126 1000.92 880.218 C 1001.71 875.528 1002.82 867.481 1003 862.715 L 1003.06 860.786 z" fill="rgb(240,189,102)" transform="translate(0,0)"></path>
<path d="M 1183.7 903.59 C 1187.77 904.513 1200.91 913.645 1205.14 916.709 C 1242.08 943.461 1292.05 987.369 1319.58 1023.45 C 1301.16 1045.73 1267.08 1077.24 1245.49 1096.24 C 1231.91 1108.55 1206.58 1128.53 1191.03 1138.19 C 1193.75 1132.4 1196.93 1126.2 1199.92 1120.55 C 1230.46 1063 1232.69 992.232 1203.43 933.737 C 1198.07 923.034 1190.79 913.305 1183.7 903.59 z" fill="rgb(222,143,64)" transform="translate(0,0)"></path>
<path d="M 853.386 916.157 C 853.706 918.9 841.7 938.461 839.713 943.094 C 811.808 1008.18 818.998 1074.14 856.511 1134.3 C 834.308 1119.1 819.401 1107.73 798.5 1090.92 C 775.025 1072 744.747 1045.78 723.757 1024.2 C 731.591 1013.02 745.525 1002.3 755.591 992.924 C 787.889 962.855 817.086 940.929 853.386 916.157 z" fill="rgb(222,143,64)" transform="translate(0,0)"></path>
<path d="M 1349.91 698.369 C 1364.07 712.328 1377.19 727.207 1391.48 741.335 C 1461.74 809.837 1531.22 879.131 1599.91 949.204 L 1645.63 995.882 C 1653.02 1003.39 1666.9 1016.66 1672.23 1024.54 C 1662.22 1036.3 1646.05 1051.69 1634.89 1062.94 C 1609.69 1088.55 1584.22 1113.9 1558.49 1138.98 L 1347.35 1349.21 C 1349.2 1298.62 1347.98 1242.66 1348.19 1191.6 L 1348.7 1190.76 C 1347.67 1185.23 1347.98 1164.55 1347.99 1157.83 C 1348 1137.52 1348.14 1117.2 1348.41 1096.88 C 1348.57 1083.22 1349.12 1065.3 1347.68 1051.91 C 1355.3 1043.58 1366.18 1033.29 1374.33 1025.08 C 1368.26 1016.96 1354.94 1003.06 1347.71 995.076 C 1348.74 987.123 1348.26 966.327 1348.22 957.566 L 1347.83 887.458 C 1347.78 879.192 1347.3 862.054 1348.43 854.414 L 1347.95 853.404 C 1346.49 845.939 1347.14 824.876 1347.2 816.088 L 1347.45 744.374 C 1347.54 733.592 1348.5 710.575 1347.35 700.888 L 1349.91 698.369 z" fill="rgb(240,189,102)" transform="translate(0,0)"></path>
<path d="M 1514.42 1024 C 1528.33 1024.87 1544.92 1024.41 1559.14 1024.38 L 1632.16 1024.22 C 1643.65 1024.2 1661.56 1023.62 1672.23 1024.54 C 1662.22 1036.3 1646.05 1051.69 1634.89 1062.94 C 1609.69 1088.55 1584.22 1113.9 1558.49 1138.98 L 1347.35 1349.21 C 1349.2 1298.62 1347.98 1242.66 1348.19 1191.6 L 1348.7 1190.76 C 1355.63 1184.42 1362.93 1176.91 1369.47 1170.1 C 1416.67 1120.92 1468.45 1074.21 1514.42 1024 z" fill="rgb(222,143,64)" transform="translate(0,0)"></path>
<path d="M 1348.43 854.414 C 1364.68 871.748 1381.74 888.13 1398.45 905.003 C 1437.8 943.987 1476.46 983.66 1514.42 1024 C 1468.45 1074.21 1416.67 1120.92 1369.47 1170.1 C 1362.93 1176.91 1355.63 1184.42 1348.7 1190.76 C 1347.67 1185.23 1347.98 1164.55 1347.99 1157.83 C 1348 1137.52 1348.14 1117.2 1348.41 1096.88 C 1348.57 1083.22 1349.12 1065.3 1347.68 1051.91 C 1355.3 1043.58 1366.18 1033.29 1374.33 1025.08 C 1368.26 1016.96 1354.94 1003.06 1347.71 995.076 C 1348.74 987.123 1348.26 966.327 1348.22 957.566 L 1347.83 887.458 C 1347.78 879.192 1347.3 862.054 1348.43 854.414 z" fill="rgb(14,110,97)" transform="translate(0,0)"></path>
<path d="M 848.262 1343.33 C 853.197 1344.02 853.545 1347.24 857.872 1350.25 C 867.653 1345.92 1001.38 1351.68 1023.81 1348.78 L 1024.03 1349.48 C 1037.19 1348.31 1182.1 1347.01 1189.68 1349.8 L 1190.23 1349.6 C 1205.41 1350.42 1223.73 1349.48 1239.16 1349.25 L 1307.71 1348.9 C 1314.64 1348.88 1341.41 1348.53 1346.78 1349.67 L 1136.25 1559.63 C 1112.71 1583.58 1088.38 1607.73 1064.41 1631.26 C 1056.6 1638.92 1032.87 1664.95 1025.72 1670.33 C 1025.32 1670.29 1023.83 1670.19 1023.55 1670.02 C 1019.15 1667.21 1004.91 1652.92 1000.58 1648.67 C 983.249 1631.85 966.195 1614.73 949.425 1597.35 L 841.718 1489.33 C 811.89 1459.48 781.849 1429.84 751.597 1400.42 C 734.654 1383.77 716.375 1366.33 700.45 1348.89 C 703.983 1348.83 706.83 1348.47 710.348 1348.07 C 713.695 1349.96 816.185 1349.07 826.679 1349.09 C 837.546 1349.29 837.459 1344.17 848.262 1343.33 z" fill="rgb(240,189,102)" transform="translate(0,0)"></path>
<path d="M 1024.03 1349.48 C 1037.19 1348.31 1182.1 1347.01 1189.68 1349.8 L 1190.23 1349.6 C 1205.41 1350.42 1223.73 1349.48 1239.16 1349.25 L 1307.71 1348.9 C 1314.64 1348.88 1341.41 1348.53 1346.78 1349.67 L 1136.25 1559.63 C 1112.71 1583.58 1088.38 1607.73 1064.41 1631.26 C 1056.6 1638.92 1032.87 1664.95 1025.72 1670.33 C 1025.32 1670.29 1023.83 1670.19 1023.55 1670.02 C 1024.76 1662.42 1024.2 1630.26 1024.18 1621.5 C 1023.94 1585.7 1023.94 1549.9 1024.18 1514.1 L 1023.92 1513.3 C 1024.52 1458.97 1024.05 1403.87 1024.03 1349.48 z" fill="rgb(222,143,64)" transform="translate(0,0)"></path>
<path d="M 1024.03 1349.48 C 1037.19 1348.31 1182.1 1347.01 1189.68 1349.8 C 1148.3 1391.77 1106.4 1433.23 1063.99 1474.17 C 1055.24 1482.74 1046.6 1491.42 1038.09 1500.22 C 1035.37 1503.01 1026.77 1512.19 1024.18 1514.1 L 1023.92 1513.3 C 1024.52 1458.97 1024.05 1403.87 1024.03 1349.48 z" fill="rgb(14,110,97)" transform="translate(0,0)"></path>
<path d="M 1023.81 1348.78 L 1024.03 1349.48 C 1024.05 1403.87 1024.52 1458.97 1023.92 1513.3 C 1016.81 1507.56 1006.73 1497.34 999.727 1490.63 C 979.756 1471.43 960.161 1451.85 940.954 1431.89 C 914.173 1404.54 885.296 1377.22 857.872 1350.25 C 867.653 1345.92 1001.38 1351.68 1023.81 1348.78 z" fill="rgb(37,149,130)" transform="translate(0,0)"></path>
<path d="M 696.449 1190.36 C 697.987 1184.09 696.909 1166.99 697.263 1161.91 C 698.164 1149 695.258 1054.42 698.165 1047.24 C 719.502 1067.98 739.202 1089.18 761.384 1109.23 C 831.14 1172.3 926.051 1226.37 1022.96 1225.12 C 1025.46 1234.31 1024.51 1334.25 1023.81 1348.78 C 1001.38 1351.68 867.653 1345.92 857.872 1350.25 C 853.545 1347.24 853.197 1344.02 848.262 1343.33 L 849.427 1342.75 C 847.771 1339.25 842.191 1334.46 839.176 1331.55 L 833.644 1325.66 L 823.079 1315.52 L 803.572 1296.52 L 796.499 1289.06 L 787.044 1279.44 C 773.286 1266 759.738 1252.35 746.403 1238.49 L 736.253 1228.17 C 730.301 1221.58 725.593 1217.36 718.918 1211.41 C 712.896 1206.51 703.563 1196.7 696.877 1190.82 L 696.449 1190.36 z" fill="rgb(75,181,159)" transform="translate(0,0)"></path>
<path d="M 1347.68 1051.91 C 1349.12 1065.3 1348.57 1083.22 1348.41 1096.88 C 1348.14 1117.2 1348 1137.52 1347.99 1157.83 C 1347.98 1164.55 1347.67 1185.23 1348.7 1190.76 L 1348.19 1191.6 C 1321.76 1218.57 1295.02 1245.23 1267.97 1271.59 C 1242.84 1296.01 1213.19 1323.69 1190.23 1349.6 L 1189.68 1349.8 C 1182.1 1347.01 1037.19 1348.31 1024.03 1349.48 L 1023.81 1348.78 C 1024.51 1334.25 1025.46 1234.31 1022.96 1225.12 C 1023.73 1225.13 1024.49 1225.13 1025.26 1225.13 C 1092.97 1224.96 1159.25 1202.78 1216.37 1166.55 C 1266.45 1134.77 1306.05 1093.64 1347.68 1051.91 z" fill="rgb(37,149,130)" transform="translate(0,0)"></path>
<path d="M 1023.94 373.037 C 1028.47 375.94 1042.73 391.079 1047.01 395.438 C 1063.72 412.673 1080.54 429.811 1097.45 446.851 L 1349.91 698.369 L 1347.35 700.888 C 1298.14 700.684 1243.39 698.871 1194.84 699.912 L 1194.25 699.898 C 1178.97 682.414 1155.93 661.258 1138.85 644.282 L 1023.2 530.389 L 1022.65 529.264 L 1023.35 528.603 C 1028.11 514.871 1023.92 396.248 1023.94 373.037 z" fill="rgb(222,143,64)" transform="translate(0,0)"></path>
<path d="M 1348.19 1191.6 C 1347.98 1242.66 1349.2 1298.62 1347.35 1349.21 L 1346.78 1349.67 C 1341.41 1348.53 1314.64 1348.88 1307.71 1348.9 L 1239.16 1349.25 C 1223.73 1349.48 1205.41 1350.42 1190.23 1349.6 C 1213.19 1323.69 1242.84 1296.01 1267.97 1271.59 C 1295.02 1245.23 1321.76 1218.57 1348.19 1191.6 z" fill="url(#Gradient4)" transform="translate(0,0)"></path>
<path d="M 1194.84 699.912 C 1243.39 698.871 1298.14 700.684 1347.35 700.888 C 1348.5 710.575 1347.54 733.592 1347.45 744.374 L 1347.2 816.088 C 1347.14 824.876 1346.49 845.939 1347.95 853.404 C 1330.49 837.537 1313.06 819.357 1296.68 802.314 C 1299.62 801.29 1301.5 801.789 1304.38 800.375 L 1304.44 798.624 C 1301.93 796.258 1299.2 794.248 1296.97 791.94 L 1295.79 790.712 C 1297.64 783.914 1303.94 779.077 1305.6 772.937 C 1308.07 763.76 1303.26 751.399 1303.49 741.846 C 1303.74 731.37 1308.15 725.805 1296.74 719.956 C 1302.76 717.545 1325.63 716.333 1330.6 717.649 C 1330.64 722.217 1330.49 736.53 1331.32 740.165 C 1332.41 735.2 1335.01 718.228 1331.91 714.453 C 1327.08 713.457 1319.27 715.053 1312.85 715.198 C 1284.63 715.835 1252.61 712.661 1225.15 719.288 C 1222.83 719.847 1222.56 725.234 1222 727.574 C 1213.23 718.682 1202.86 709.193 1194.84 699.912 z" fill="url(#Gradient3)" transform="translate(0,0)"></path>
<path d="M 715.085 1227.95 C 715.848 1232.82 715.097 1233.74 717.841 1236.59 C 720.728 1236.66 721.459 1235.86 724.016 1234.42 C 726.533 1235.96 726.699 1238.14 726.988 1241 C 724.567 1255.6 736.75 1258.84 745.004 1266.41 C 747.885 1269.05 750.156 1276.23 753.665 1278.96 C 764.353 1291.36 796.178 1314.19 810.399 1321.64 C 813.462 1320.3 820.192 1317.14 823.079 1315.52 L 833.644 1325.66 C 829.731 1326.59 824.552 1327.31 821.673 1329.74 C 821.365 1332.47 821.593 1333.14 824.102 1335.11 L 824.374 1335.96 C 812.435 1333.75 793.577 1338.69 780.93 1338.83 C 770.337 1338.95 759.375 1336.88 748.744 1336.25 C 744.366 1335.99 732.217 1334.44 729.158 1331.7 C 728.581 1331.18 727.346 1322.88 724.198 1320.23 C 720.158 1316.83 710.045 1314.49 708.273 1311.27 C 703.057 1301.79 704.314 1271.16 705.714 1261.07 C 716.292 1248.86 714.781 1244.17 715.085 1227.95 z" fill="rgb(246,244,234)" fill-opacity="0.294118" transform="translate(0,0)"></path>
<path d="M 1222 727.574 C 1222.56 725.234 1222.83 719.847 1225.15 719.288 C 1252.61 712.661 1284.63 715.835 1312.85 715.198 C 1319.27 715.053 1327.08 713.457 1331.91 714.453 C 1335.01 718.228 1332.41 735.2 1331.32 740.165 C 1330.49 736.53 1330.64 722.217 1330.6 717.649 C 1325.63 716.333 1302.76 717.545 1296.74 719.956 C 1308.15 725.805 1303.74 731.37 1303.49 741.846 C 1303.26 751.399 1308.07 763.76 1305.6 772.937 C 1303.94 779.077 1297.64 783.914 1295.79 790.712 C 1291.66 788.848 1272.33 776.308 1270.17 776.188 C 1265.85 773.023 1224.37 731.507 1222 727.574 z" fill="url(#Gradient2)" transform="translate(0,0)"></path>
<path d="M 696.877 1190.82 C 703.563 1196.7 712.896 1206.51 718.918 1211.41 C 712.28 1216.94 713.179 1220.12 715.085 1227.95 C 714.781 1244.17 716.292 1248.86 705.714 1261.07 C 704.314 1271.16 703.057 1301.79 708.273 1311.27 C 710.045 1314.49 720.158 1316.83 724.198 1320.23 C 727.346 1322.88 728.581 1331.18 729.158 1331.7 C 732.217 1334.44 744.366 1335.99 748.744 1336.25 C 759.375 1336.88 770.337 1338.95 780.93 1338.83 C 793.577 1338.69 812.435 1333.75 824.374 1335.96 C 827.076 1339.86 826.01 1344.11 826.679 1349.09 C 816.185 1349.07 713.695 1349.96 710.348 1348.07 C 703.685 1342.98 702.204 1339.67 697.518 1332.94 C 696.509 1328.3 697.003 1295.47 697.025 1288.19 C 697.125 1255.83 696.527 1223.14 696.877 1190.82 z" fill="rgb(254,253,253)" fill-opacity="0.0156863" transform="translate(0,0)"></path>
<path d="M 736.253 1228.17 L 746.403 1238.49 C 742.452 1236.35 733.466 1231.75 731.163 1237.76 C 732.878 1245.2 747.324 1259.79 753.124 1266.2 C 756.644 1279.02 784.675 1304.45 798.2 1301.4 C 800.701 1299.58 802.184 1299.03 803.572 1296.52 L 823.079 1315.52 C 820.192 1317.14 813.462 1320.3 810.399 1321.64 C 796.178 1314.19 764.353 1291.36 753.665 1278.96 C 750.156 1276.23 747.885 1269.05 745.004 1266.41 C 736.75 1258.84 724.567 1255.6 726.988 1241 L 728.394 1239.91 C 729.586 1234.52 730.899 1230.35 736.253 1228.17 z" fill="rgb(246,244,234)" fill-opacity="0.392157" transform="translate(0,0)"></path>
<path d="M 753.124 1266.2 C 747.324 1259.79 732.878 1245.2 731.163 1237.76 C 733.466 1231.75 742.452 1236.35 746.403 1238.49 C 759.738 1252.35 773.286 1266 787.044 1279.44 C 783.547 1280.02 783.756 1279.4 781.533 1281.44 C 781.749 1283.71 781.819 1283.1 781.469 1285.33 C 774.584 1280.47 767.736 1277.72 758.979 1271.36 C 757.979 1270.19 754.47 1267.35 753.124 1266.2 z" fill="url(#Gradient1)" transform="translate(0,0)"></path>
<path d="M 718.918 1211.41 C 725.593 1217.36 730.301 1221.58 736.253 1228.17 C 730.899 1230.35 729.586 1234.52 728.394 1239.91 L 726.988 1241 C 726.699 1238.14 726.533 1235.96 724.016 1234.42 C 721.459 1235.86 720.728 1236.66 717.841 1236.59 C 715.097 1233.74 715.848 1232.82 715.085 1227.95 C 713.179 1220.12 712.28 1216.94 718.918 1211.41 z" fill="rgb(246,244,234)" fill-opacity="0.513725" transform="translate(0,0)"></path>
<path d="M 753.124 1266.2 C 754.47 1267.35 757.979 1270.19 758.979 1271.36 C 764.425 1280.65 776.443 1290.73 786.665 1294.4 C 791.154 1296.01 792.608 1291.45 796.499 1289.06 L 803.572 1296.52 C 802.184 1299.03 800.701 1299.58 798.2 1301.4 C 784.675 1304.45 756.644 1279.02 753.124 1266.2 z" fill="rgb(246,244,234)" fill-opacity="0.509804" transform="translate(0,0)"></path>
<path d="M 839.176 1331.55 C 842.191 1334.46 847.771 1339.25 849.427 1342.75 L 848.262 1343.33 C 837.459 1344.17 837.546 1349.29 826.679 1349.09 C 826.01 1344.11 827.076 1339.86 824.374 1335.96 L 824.102 1335.11 C 829.317 1335.96 834.456 1333.89 839.176 1331.55 z" fill="rgb(246,244,234)" fill-opacity="0.34902" transform="translate(0,0)"></path>
<path d="M 758.979 1271.36 C 767.736 1277.72 774.584 1280.47 781.469 1285.33 C 781.819 1283.1 781.749 1283.71 781.533 1281.44 C 783.756 1279.4 783.547 1280.02 787.044 1279.44 L 796.499 1289.06 C 792.608 1291.45 791.154 1296.01 786.665 1294.4 C 776.443 1290.73 764.425 1280.65 758.979 1271.36 z" fill="rgb(246,244,234)" fill-opacity="0.576471" transform="translate(0,0)"></path>
<path d="M 1270.17 776.188 C 1272.33 776.308 1291.66 788.848 1295.79 790.712 L 1296.97 791.94 C 1299.2 794.248 1301.93 796.258 1304.44 798.624 L 1304.38 800.375 C 1301.5 801.789 1299.62 801.29 1296.68 802.314 C 1288.21 794.371 1278.11 784.568 1270.17 776.188 z" fill="rgb(246,244,234)" fill-opacity="0.211765" transform="translate(0,0)"></path>
<path d="M 833.644 1325.66 L 839.176 1331.55 C 834.456 1333.89 829.317 1335.96 824.102 1335.11 C 821.593 1333.14 821.365 1332.47 821.673 1329.74 C 824.552 1327.31 829.731 1326.59 833.644 1325.66 z" fill="rgb(246,244,234)" fill-opacity="0.490196" transform="translate(0,0)"></path>
<metadata><recraft-signature>{"signed_by": "recraft", "signature_b64": "TnlUlUMRHybmYj/Q4GFv3ZyvYJ3phppBtWyMGcXJrDwqheJUasyk4C15PK7gobThrs4JYG9FtCi45dTu3/ywBQ==", "signing_algo": "Ed25519", "generation_timestamp": 1778163159, "identifier": "93c12610-7a59-4fad-b9b5-92dd88a166b1"}</recraft-signature></metadata></svg>