<svg xmlns="http://www.w3.org/2000/svg" height="1024" preserveAspectRatio="none" style="display: block;" version="1.1" viewBox="0 0 2048 1152" width="1820">
<defs>
	<linearGradient gradientUnits="userSpaceOnUse" id="Gradient1" x1="1566.72" x2="1523.75" y1="409.256" y2="429.321">
		<stop class="stop0" offset="0" stop-color="rgb(25,107,132)" stop-opacity="0.968627"></stop>
		<stop class="stop1" offset="1" stop-color="rgb(29,149,162)" stop-opacity="1"></stop>
	</linearGradient>
	<linearGradient gradientUnits="userSpaceOnUse" id="Gradient2" x1="193.039" x2="197.364" y1="574.391" y2="569.119">
		<stop class="stop0" offset="0" stop-color="rgb(9,45,86)" stop-opacity="0.898039"></stop>
		<stop class="stop1" offset="1" stop-color="rgb(12,42,84)" stop-opacity="0.937255"></stop>
	</linearGradient>
	<linearGradient gradientUnits="userSpaceOnUse" id="Gradient3" x1="1410.32" x2="1419.48" y1="895.51" y2="894.24">
		<stop class="stop0" offset="0" stop-color="rgb(6,28,72)" stop-opacity="0.937255"></stop>
		<stop class="stop1" offset="1" stop-color="rgb(8,33,65)" stop-opacity="0.968627"></stop>
	</linearGradient>
	<linearGradient gradientUnits="userSpaceOnUse" id="Gradient4" x1="1862.95" x2="1718.7" y1="590.46" y2="578.301">
		<stop class="stop0" offset="0" stop-color="rgb(26,124,144)" stop-opacity="1"></stop>
		<stop class="stop1" offset="1" stop-color="rgb(47,169,179)" stop-opacity="1"></stop>
	</linearGradient>
	<linearGradient gradientUnits="userSpaceOnUse" id="Gradient5" x1="1027.15" x2="1026.73" y1="705.906" y2="720.2">
		<stop class="stop0" offset="0" stop-color="rgb(38,48,114)" stop-opacity="0.698039"></stop>
		<stop class="stop1" offset="1" stop-color="rgb(36,50,116)" stop-opacity="0.894118"></stop>
	</linearGradient>
</defs>
<path d="M 905.993 454.598 C 912.131 454.165 917.41 445.939 922.845 442.403 C 928.161 438.943 933.289 435.471 938.938 432.501 C 999.961 396.329 1081.15 404.704 1134.68 450.691 C 1136.98 452.664 1138.71 454.427 1140.66 456.8 C 1142.03 458.307 1141.21 457.707 1143.36 458.4 C 1147.84 456.415 1155.95 449.365 1160.57 446.013 C 1158.48 451.103 1149.34 457.155 1144.76 460.323 C 1150.11 465.599 1154.5 470.303 1159.56 475.844 C 1168.62 485.781 1178.95 521.161 1190.23 522.76 L 1185.08 523.532 C 1184.49 525.241 1191.23 552.249 1191.9 557.603 C 1195.02 582.255 1192.83 608.571 1185.13 632.24 C 1194.35 631.737 1215.31 631.129 1224.41 632.149 C 1211.82 633.599 1197.58 631.89 1184.78 633.432 C 1177.88 665.299 1157.56 680.844 1140.14 703.27 C 1138.93 703.208 1137.99 703.031 1136.86 703.333 L 1136.61 705.322 C 1138.77 708.001 1139.37 708.416 1142.19 710.427 C 1128.04 705.325 1130.49 710.836 1118.96 718.676 C 1064.83 755.511 996.399 757.168 939.35 725.754 C 930.82 721.058 912.277 705.059 906.548 704.045 L 907.401 702.369 L 905.731 699.335 C 889.238 683.491 867.504 657.992 862.284 635.162 C 843.437 632.509 827.803 635.6 809.741 634.849 C 725.489 631.347 639.348 636.761 555.245 633.881 L 472.037 634.037 C 466.153 633.213 452.533 633.973 448.397 631.911 L 461.026 617.31 C 463.364 615.574 474.238 602.858 476.52 600.176 C 482.983 593.938 492.18 583.095 498.505 576.159 C 493.349 571.502 487.326 565.029 482.368 559.956 L 478.119 554.753 C 470.718 546.7 463.113 538.838 455.31 531.174 C 452.219 528.887 448.249 526.413 447.257 522.989 L 448.789 522.203 C 454.766 522.277 460.743 522.272 466.719 522.188 C 475.564 521.989 500.904 521.162 508.862 522.046 C 514.335 522.274 518.589 522.34 524.058 522.123 C 576.582 521.765 629.108 521.689 681.633 521.895 C 694.954 521.906 708.274 521.786 721.593 521.533 C 726.617 521.416 730.331 520.594 735.396 520.741 C 738.526 522.654 737.142 522.277 740.644 522.375 C 775.219 520.252 811.125 523.378 845.827 520.746 C 848.129 520.571 851.914 522.048 854.215 522.341 C 855.468 522.286 862.365 521.828 862.635 521.229 C 874.313 495.282 883.478 479.418 904.84 459.348 L 906.479 457.074 L 905.993 454.598 z M 915.3 484.217 C 914.122 492.81 913.581 490.885 908.591 497.258 C 907.634 498.48 908.022 498.778 908.416 500.195 L 911.169 501.508 C 922.692 498.608 929.38 475.133 949.155 473.545 C 957.069 468.838 965.278 464.643 973.731 460.988 C 1002.06 448.864 1033.83 447.4 1063.15 456.869 C 1070.11 459.079 1079.73 463.734 1086.9 466.625 C 1098.35 468.848 1099.7 472.41 1109.08 479.398 C 1117.99 482.616 1123.38 492.576 1130.88 498.69 C 1134.22 504.434 1139.89 512.303 1144.31 517.442 C 1145.56 518.891 1147 518.456 1148.84 518.394 C 1150.04 511.064 1137.09 498.145 1134.22 490.702 L 1133.92 489.917 C 1128.42 485.628 1128.21 485.414 1126.41 479.004 C 1120.4 473.404 1110.03 463.602 1102.9 459.601 C 1070.91 432.442 993.871 428.878 958.793 451.993 L 958.396 452.13 C 949.101 455.636 938.408 464.041 930.573 470.257 C 924.845 475.12 920.604 478.902 915.3 484.217 z M 1009.37 707.938 C 985.404 704.348 969.502 698.588 948.847 685.65 C 940.588 679.381 932.885 672.412 925.824 664.821 C 920.805 662.817 921.87 662.417 917.151 663.156 C 913.274 668.837 926.978 680.67 926.831 685.15 C 931.131 690.061 936.7 694.109 942.119 697.762 C 955.587 706.261 975.562 716.914 991.503 719.058 C 992.06 719.214 992.618 719.361 993.179 719.499 C 1027.55 728.154 1065.67 721.695 1096.07 703.64 C 1098.28 702.361 1100.04 701.161 1102.13 699.718 C 1118.79 691.956 1139.92 666.046 1149.63 650.11 C 1150.21 637.136 1157.82 631.863 1155.66 625.25 C 1153.56 623.567 1154.52 624.017 1151.25 624.139 C 1146.22 627.938 1142.53 640.148 1139.78 646.059 C 1139.4 646.873 1140.22 650.37 1140.44 651.401 L 1139.61 651.91 C 1129.88 654.09 1132.66 658.619 1121.33 665.008 C 1113.84 672.896 1108.81 677.092 1100.76 684.169 C 1089.16 691.305 1078.14 697.558 1065.29 702.271 C 1045.08 708.58 1030.54 708.742 1009.37 707.938 z" fill="rgb(26,140,151)" transform="translate(0,0)"></path>
<path d="M 740.644 522.375 C 775.219 520.252 811.125 523.378 845.827 520.746 C 848.129 520.571 851.914 522.048 854.215 522.341 C 857.248 522.548 859.432 522.55 862.346 523.561 C 860.873 531.126 858.641 536.336 857.235 543.081 C 851.044 572.909 852.358 603.807 861.061 633 C 830.613 632.965 557.671 631.992 555.245 633.881 L 472.037 634.037 C 466.153 633.213 452.533 633.973 448.397 631.911 L 461.026 617.31 C 463.364 615.574 474.238 602.858 476.52 600.176 C 482.983 593.938 492.18 583.095 498.505 576.159 C 493.349 571.502 487.326 565.029 482.368 559.956 L 478.119 554.753 C 470.718 546.7 463.113 538.838 455.31 531.174 C 452.219 528.887 448.249 526.413 447.257 522.989 L 448.789 522.203 C 454.766 522.277 460.743 522.272 466.719 522.188 C 475.564 521.989 500.904 521.162 508.862 522.046 C 514.335 522.274 518.589 522.34 524.058 522.123 C 576.582 521.765 629.108 521.689 681.633 521.895 C 694.954 521.906 708.274 521.786 721.593 521.533 C 726.617 521.416 730.331 520.594 735.396 520.741 C 738.526 522.654 737.142 522.277 740.644 522.375 z" fill="rgb(41,201,184)" transform="translate(0,0)"></path>
<path d="M 949.155 473.545 C 957.069 468.838 965.278 464.643 973.731 460.988 C 1002.06 448.864 1033.83 447.4 1063.15 456.869 C 1070.11 459.079 1079.73 463.734 1086.9 466.625 C 1098.35 468.848 1099.7 472.41 1109.08 479.398 C 1117.99 482.616 1123.38 492.576 1130.88 498.69 C 1134.22 504.434 1139.89 512.303 1144.31 517.442 C 1145.56 518.891 1147 518.456 1148.84 518.394 C 1150.04 511.064 1137.09 498.145 1134.22 490.702 L 1133.92 489.917 C 1128.42 485.628 1128.21 485.414 1126.41 479.004 C 1171.07 521.433 1181.94 597.505 1149.63 650.11 C 1150.21 637.136 1157.82 631.863 1155.66 625.25 C 1153.56 623.567 1154.52 624.017 1151.25 624.139 C 1146.22 627.938 1142.53 640.148 1139.78 646.059 C 1139.4 646.873 1140.22 650.37 1140.44 651.401 L 1139.61 651.91 C 1129.88 654.09 1132.66 658.619 1121.33 665.008 C 1113.84 672.896 1108.81 677.092 1100.76 684.169 C 1089.16 691.305 1078.14 697.558 1065.29 702.271 C 1045.08 708.58 1030.54 708.742 1009.37 707.938 C 985.404 704.348 969.502 698.588 948.847 685.65 C 940.588 679.381 932.885 672.412 925.824 664.821 C 920.805 662.817 921.87 662.417 917.151 663.156 C 913.274 668.837 926.978 680.67 926.831 685.15 C 925.931 684.607 924.585 683.782 923.816 683.056 C 865.172 627.703 864.146 544.251 915.3 484.217 C 914.122 492.81 913.581 490.885 908.591 497.258 C 907.634 498.48 908.022 498.778 908.416 500.195 L 911.169 501.508 C 922.692 498.608 929.38 475.133 949.155 473.545 z" fill="rgb(252,252,252)" transform="translate(0,0)"></path>
<path d="M 915.3 484.217 C 914.122 492.81 913.581 490.885 908.591 497.258 C 907.634 498.48 908.022 498.778 908.416 500.195 L 911.169 501.508 C 922.692 498.608 929.38 475.133 949.155 473.545 C 930.46 488.171 917.102 501 906.542 522.546 C 883.375 569.812 890.092 619.305 922.227 660.3 C 923.416 661.815 924.615 663.322 925.824 664.821 C 920.805 662.817 921.87 662.417 917.151 663.156 C 913.274 668.837 926.978 680.67 926.831 685.15 C 925.931 684.607 924.585 683.782 923.816 683.056 C 865.172 627.703 864.146 544.251 915.3 484.217 z" fill="rgb(47,56,123)" transform="translate(0,0)"></path>
<path d="M 1086.9 466.625 C 1098.35 468.848 1099.7 472.41 1109.08 479.398 C 1117.99 482.616 1123.38 492.576 1130.88 498.69 C 1134.22 504.434 1139.89 512.303 1144.31 517.442 C 1145.56 518.891 1147 518.456 1148.84 518.394 C 1150.04 511.064 1137.09 498.145 1134.22 490.702 L 1133.92 489.917 C 1128.42 485.628 1128.21 485.414 1126.41 479.004 C 1171.07 521.433 1181.94 597.505 1149.63 650.11 C 1150.21 637.136 1157.82 631.863 1155.66 625.25 C 1153.56 623.567 1154.52 624.017 1151.25 624.139 C 1146.22 627.938 1142.53 640.148 1139.78 646.059 C 1139.4 646.873 1140.22 650.37 1140.44 651.401 L 1139.61 651.91 C 1129.88 654.09 1132.66 658.619 1121.33 665.008 C 1125.16 660.319 1128.76 655.448 1132.12 650.411 C 1157.16 613.044 1161.01 565.938 1141.41 525.486 C 1128.27 498.374 1111.71 483.023 1086.9 466.625 z" fill="rgb(47,56,123)" transform="translate(0,0)"></path>
<path d="M 1019.49 472.414 C 1043.55 470.411 1072.74 481.047 1091.66 496.12 C 1113.63 513.721 1127.78 539.266 1131.06 567.225 C 1133.91 593.708 1126.4 625.003 1109.17 645.511 C 1085.66 673.489 1061.08 683.457 1026.08 687.241 L 1026.57 623.209 C 1036.77 622.15 1044.45 620.13 1053.34 614.659 C 1066.81 606.384 1076.35 592.991 1079.76 577.549 C 1083.32 561.762 1080.44 545.209 1071.76 531.548 C 1061.76 516.111 1048.34 508.68 1030.9 504.855 C 1013.53 502.924 999.493 506.166 985.378 516.932 C 972.935 526.479 964.901 540.669 963.118 556.25 C 958.821 590.987 981.702 618.687 1016.05 622.794 L 1015.95 686.765 C 991.143 684.149 970.547 676.279 951.58 659.737 C 929.841 641.007 916.494 614.363 914.508 585.737 C 910.604 523.557 958.752 476.199 1019.49 472.414 z" fill="rgb(47,56,123)" transform="translate(0,0)"></path>
<path d="M 1010.6 515.296 C 1037.54 509.114 1064.37 525.997 1070.46 552.958 C 1076.55 579.919 1059.57 606.695 1032.58 612.687 C 1005.74 618.649 979.124 601.774 973.067 574.947 C 967.01 548.12 983.791 521.448 1010.6 515.296 z" fill="rgb(41,201,184)" transform="translate(0,0)"></path>
<path d="M 958.793 451.993 C 993.871 428.878 1070.91 432.442 1102.9 459.601 C 1094.23 458.864 1089.89 450.418 1078.12 449.933 L 1077.65 450.661 C 1078.25 452.903 1078.39 453.516 1079.41 455.581 L 1084.55 456.513 L 1085.64 458.529 L 1084.56 459.733 L 1082.04 459.849 L 1081.98 460.481 C 1091.48 464.207 1106.19 468.377 1109.08 479.398 C 1099.7 472.41 1098.35 468.848 1086.9 466.625 C 1079.73 463.734 1070.11 459.079 1063.15 456.869 C 1033.83 447.4 1002.06 448.864 973.731 460.988 C 965.278 464.643 957.069 468.838 949.155 473.545 C 929.38 475.133 922.692 498.608 911.169 501.508 L 908.416 500.195 C 908.022 498.778 907.634 498.48 908.591 497.258 C 913.581 490.885 914.122 492.81 915.3 484.217 C 920.604 478.902 924.845 475.12 930.573 470.257 C 930.774 472.345 931.004 472.904 931.63 474.829 C 938.123 477.395 962.851 462.474 965.057 459.182 C 967.378 456.224 968.739 455.346 968.876 452.03 C 965.725 450.657 962.367 451.544 958.793 451.993 z M 920.71 488.928 C 924.322 486.207 927.265 484.762 929.508 480.683 L 929.163 478.984 C 926.765 477.659 926.456 477.532 923.739 477.791 L 923.344 478.646 C 921.238 483.137 917.506 486.528 917.169 489.301 L 918.431 490.128 C 919.484 489.701 920.116 489.649 920.71 488.928 z" fill="rgb(47,56,123)" fill-opacity="0.921569" transform="translate(0,0)"></path>
<path d="M 923.739 477.791 C 926.456 477.532 926.765 477.659 929.163 478.984 L 929.508 480.683 C 927.265 484.762 924.322 486.207 920.71 488.928 C 920.116 489.649 919.484 489.701 918.431 490.128 L 917.169 489.301 C 917.506 486.528 921.238 483.137 923.344 478.646 L 923.739 477.791 z" fill="rgb(47,56,123)" fill-opacity="0.894118" transform="translate(0,0)"></path>
<path d="M 1065.29 702.271 C 1066.15 703.827 1067.42 706.5 1069.12 706.695 C 1079.6 707.899 1083.58 703.241 1095.58 703.62 L 1096.07 703.64 C 1065.67 721.695 1027.55 728.154 993.179 719.499 C 992.618 719.361 992.06 719.214 991.503 719.058 C 996.898 719.326 998.561 718.978 1003.93 717.968 C 998.684 717.291 984.355 716.271 981.268 712.49 L 982.249 711.265 C 992.914 706.706 997.702 708.978 1009.37 707.938 C 1030.54 708.742 1045.08 708.58 1065.29 702.271 z" fill="url(#Gradient5)" transform="translate(0,0)"></path>
<path d="M 942.119 697.762 C 939.374 690.075 940.337 691.851 933.799 685.511 C 932.386 684.141 933.022 682.558 933.38 680.768 C 929.248 680.054 927.855 678.933 926.328 675.293 L 927.369 673.722 C 933.569 672.695 937.889 684.964 948.847 685.65 C 969.502 698.588 985.404 704.348 1009.37 707.938 C 997.702 708.978 992.914 706.706 982.249 711.265 L 981.268 712.49 C 984.355 716.271 998.684 717.291 1003.93 717.968 C 998.561 718.978 996.898 719.326 991.503 719.058 C 975.562 716.914 955.587 706.261 942.119 697.762 z" fill="rgb(47,56,123)" fill-opacity="0.803922" transform="translate(0,0)"></path>
<path d="M 1109.08 479.398 C 1106.19 468.377 1091.48 464.207 1081.98 460.481 L 1082.04 459.849 L 1084.56 459.733 L 1085.64 458.529 L 1084.55 456.513 L 1079.41 455.581 C 1078.39 453.516 1078.25 452.903 1077.65 450.661 L 1078.12 449.933 C 1089.89 450.418 1094.23 458.864 1102.9 459.601 C 1110.03 463.602 1120.4 473.404 1126.41 479.004 C 1128.21 485.414 1128.42 485.628 1133.92 489.917 C 1134.54 493.775 1135.48 494.99 1133.96 497.84 L 1130.88 498.69 C 1123.38 492.576 1117.99 482.616 1109.08 479.398 z" fill="rgb(47,56,123)" fill-opacity="0.843137" transform="translate(0,0)"></path>
<path d="M 1139.61 651.91 L 1141.94 653.402 C 1142.66 665.378 1115.46 685.177 1108.24 693.132 C 1096.56 693.304 1102.66 697.546 1093.9 696.613 L 1093.22 695.354 C 1095.86 688.582 1098.47 693.475 1100.76 684.169 C 1108.81 677.092 1113.84 672.896 1121.33 665.008 C 1132.66 658.619 1129.88 654.09 1139.61 651.91 z" fill="rgb(47,56,123)" fill-opacity="0.588235" transform="translate(0,0)"></path>
<path d="M 1139.61 651.91 L 1140.44 651.401 C 1140.22 650.37 1139.4 646.873 1139.78 646.059 C 1142.53 640.148 1146.22 627.938 1151.25 624.139 C 1154.52 624.017 1153.56 623.567 1155.66 625.25 C 1157.82 631.863 1150.21 637.136 1149.63 650.11 C 1139.92 666.046 1118.79 691.956 1102.13 699.718 C 1103.72 696.853 1105.79 695.327 1108.24 693.132 C 1115.46 685.177 1142.66 665.378 1141.94 653.402 L 1139.61 651.91 z" fill="rgb(47,56,123)" fill-opacity="0.878431" transform="translate(0,0)"></path>
<path d="M 1065.29 702.271 C 1078.14 697.558 1089.16 691.305 1100.76 684.169 C 1098.47 693.475 1095.86 688.582 1093.22 695.354 L 1093.9 696.613 C 1102.66 697.546 1096.56 693.304 1108.24 693.132 C 1105.79 695.327 1103.72 696.853 1102.13 699.718 C 1100.04 701.161 1098.28 702.361 1096.07 703.64 L 1095.58 703.62 C 1083.58 703.241 1079.6 707.899 1069.12 706.695 C 1067.42 706.5 1066.15 703.827 1065.29 702.271 z" fill="rgb(47,56,123)" fill-opacity="0.639216" transform="translate(0,0)"></path>
<path d="M 930.573 470.257 C 938.408 464.041 949.101 455.636 958.396 452.13 C 957.45 454.263 956.832 455.07 955.227 456.761 L 955.572 458.592 C 958.003 459.87 962.209 459.538 965.057 459.182 C 962.851 462.474 938.123 477.395 931.63 474.829 C 931.004 472.904 930.774 472.345 930.573 470.257 z" fill="rgb(47,56,123)" fill-opacity="0.886275" transform="translate(0,0)"></path>
<path d="M 926.831 685.15 C 926.978 680.67 913.274 668.837 917.151 663.156 C 921.87 662.417 920.805 662.817 925.824 664.821 C 932.885 672.412 940.588 679.381 948.847 685.65 C 937.889 684.964 933.569 672.695 927.369 673.722 L 926.328 675.293 C 927.855 678.933 929.248 680.054 933.38 680.768 C 933.022 682.558 932.386 684.141 933.799 685.511 C 940.337 691.851 939.374 690.075 942.119 697.762 C 936.7 694.109 931.131 690.061 926.831 685.15 z" fill="rgb(47,56,123)" fill-opacity="0.905882" transform="translate(0,0)"></path>
<path d="M 1133.92 489.917 L 1134.22 490.702 C 1137.09 498.145 1150.04 511.064 1148.84 518.394 C 1147 518.456 1145.56 518.891 1144.31 517.442 C 1139.89 512.303 1134.22 504.434 1130.88 498.69 L 1133.96 497.84 C 1135.48 494.99 1134.54 493.775 1133.92 489.917 z" fill="rgb(47,56,123)" fill-opacity="0.87451" transform="translate(0,0)"></path>
<path d="M 958.793 451.993 C 962.367 451.544 965.725 450.657 968.876 452.03 C 968.739 455.346 967.378 456.224 965.057 459.182 C 962.209 459.538 958.003 459.87 955.572 458.592 L 955.227 456.761 C 956.832 455.07 957.45 454.263 958.396 452.13 L 958.793 451.993 z" fill="rgb(47,56,123)" fill-opacity="0.854902" transform="translate(0,0)"></path>
<path d="M 672.359 637.21 C 673.483 637.786 673.01 637.639 673.975 637.867 C 674.666 638.031 674.792 638.031 675.488 638.277 C 682.98 640.928 706.646 690.731 711.638 700.649 C 701.276 701.273 684.061 654.598 676.578 646.462 C 675.021 644.77 672.884 639.68 672.359 637.21 z" fill="rgb(24,93,107)" fill-opacity="0.980392" transform="translate(0,0)"></path>
<path d="M 1208.86 519.969 L 1210.25 519.601 C 1213.5 521.226 1216.19 522.435 1219.86 522.524 C 1250.02 523.249 1280.9 522.74 1311.04 522.619 L 1476.45 522.638 C 1486.6 522.662 1518.06 522.065 1526.58 523.061 C 1531.89 523.486 1535.23 524.241 1539.54 521.509 C 1546.98 523.867 1579.02 522.603 1589.74 523.244 C 1593.9 523.268 1594.58 522.555 1597.52 524.583 L 1598.36 528.516 L 1596.52 531.702 C 1589.44 540.137 1568.44 565.162 1560.14 570.157 C 1557.48 573.275 1557.56 572.302 1557 575.914 C 1557.92 578.635 1560.6 580.949 1563 582.4 C 1577.66 596.738 1583.6 606.626 1596.23 621.089 C 1597.66 623.993 1599.34 626.48 1598.51 629.582 L 1596.93 631.821 C 1584.23 633.74 1571.23 631.755 1558.69 632.499 C 1537.09 633.78 1516.28 632.883 1494.74 632.668 L 1336.47 632.517 L 1266.31 632.412 C 1253.2 632.519 1236.9 634.226 1224.41 632.149 C 1215.31 631.129 1194.35 631.737 1185.13 632.24 C 1192.83 608.571 1195.02 582.255 1191.9 557.603 C 1191.23 552.249 1184.49 525.241 1185.08 523.532 L 1190.23 522.76 C 1195.08 522.728 1205.3 522.976 1208.86 519.969 z" fill="rgb(41,201,184)" transform="translate(0,0)"></path>
<path d="M 622.232 416.092 C 626.062 410.485 632.574 394.137 641.113 396.767 C 643.824 397.603 646.204 398.658 647.84 401.074 C 646.976 404.943 646.304 411.042 645.117 414.279 C 643.867 417.687 636.389 421.075 636.336 424.921 C 639.088 425.905 640.343 425.868 643.173 426.079 C 629.594 430.159 630.025 422.808 622.232 416.092 z" fill="rgb(39,69,107)" fill-opacity="0.764706" transform="translate(0,0)"></path>
<path d="M 625.796 394.588 C 631.799 391.226 642.22 386.256 649.388 391.85 C 652.174 394.025 655.434 397.406 655.696 401.092 C 651.82 399.331 653.03 399.166 649.498 400.434 C 648.941 400.634 648.388 400.848 647.84 401.074 C 646.204 398.658 643.824 397.603 641.113 396.767 C 632.574 394.137 626.062 410.485 622.232 416.092 C 618.334 408.83 622.779 401.509 625.796 394.588 z" fill="rgb(39,69,107)" fill-opacity="0.972549" transform="translate(0,0)"></path>
<path d="M 647.84 401.074 C 648.388 400.848 648.941 400.634 649.498 400.434 C 653.03 399.166 651.82 399.331 655.696 401.092 L 655.708 401.853 C 656.044 414.852 661.508 420.511 643.173 426.079 C 640.343 425.868 639.088 425.905 636.336 424.921 C 636.389 421.075 643.867 417.687 645.117 414.279 C 646.304 411.042 646.976 404.943 647.84 401.074 z" fill="rgb(39,69,107)" fill-opacity="0.988235" transform="translate(0,0)"></path>
<path d="M 655.299 317.672 C 658.87 329.067 649.034 367.184 646.636 380.483 L 642.54 380.582 C 644.914 366.53 651.552 352.339 652.322 339.288 C 652.916 329.205 652.624 327.678 655.299 317.672 z" fill="rgb(14,35,71)" fill-opacity="0.917647" transform="translate(0,0)"></path>
<path d="M 700.846 366.987 L 701.571 367.804 C 684.616 383.655 677.083 387.464 653.212 391.874 L 651.599 391.798 C 653.093 389.996 676.803 383.66 678.75 383.095 C 682.235 382.084 697.45 369.666 700.846 366.987 z" fill="rgb(47,56,123)" fill-opacity="0.843137" transform="translate(0,0)"></path>
<path d="M 672.984 709.816 C 679.668 709.51 693.862 709.665 699.866 709.009 C 711.901 707.694 763.056 712.296 770.382 707.081 C 772.255 704.261 772.314 699.137 773.038 698.362 C 785.152 685.372 798.023 648.913 811.282 639.091 L 813.193 638.707 L 813.889 639.761 C 810.255 648.022 802.458 660.518 798.022 668.941 C 793.886 676.794 774.59 702.167 773.24 708.769 L 773.721 709.984 C 766.29 710.073 725.382 709.201 722.288 711.35 C 743.478 713.589 774.098 711.135 796.513 712.219 C 787.541 712.959 775.575 711.654 768.967 716.166 C 762.297 727.161 756.001 738.59 749.132 749.553 C 746.807 753.263 744.717 758.967 742.972 762.973 C 742.503 764.05 737.403 767.303 736.344 769.57 C 732.903 776.938 692.73 839.706 692.593 841.584 L 694.621 843.522 C 692.091 847.129 684.664 857.128 683.483 860.748 L 684.054 862.637 C 688.366 863.261 689.81 861.793 693.995 861.449 C 690.744 864.054 684.013 869.742 680.676 871.546 C 677.63 868.668 676.507 869.293 672.145 868.808 C 669.227 865.412 684.704 851.93 684.391 843.726 C 678.273 839.187 640.178 822.56 632.744 823.813 C 632.781 825.492 647.581 853.713 649.721 859.139 C 648.685 860.818 648.507 861.519 647.004 862.697 C 646.087 860.784 643.602 858.241 643.088 856.564 C 641.653 851.886 624.957 819.16 623.595 818.462 C 612.015 812.529 571.511 792.49 560.296 792.437 L 559.782 794.139 C 561.42 797.029 565.333 800.122 567.581 802.639 C 576.714 812.863 622.201 867.198 629.731 869.45 C 625.345 872.944 625.856 869.629 624.831 872.101 C 615.755 865.313 606.039 852.024 598.009 843.291 C 586.391 829.916 573.007 817.096 561.607 803.625 C 552.336 792.67 554.21 787.573 538.84 780.81 C 514.989 770.315 490.911 760.213 467.054 749.73 L 412.639 726.294 C 400.007 721 390.199 714.754 376.346 715.188 C 376.863 713.712 378.489 711.582 379.449 710.2 C 392.135 709.675 416.552 708.488 429.017 709.827 C 424.231 709.905 412.884 709.834 408.973 711.486 C 440.685 713.649 482.052 711.716 514.52 711.999 L 650.355 712.133 C 657.926 712.093 710.115 712.84 713.602 710.831 C 701.101 709.368 685.929 710.691 672.984 709.816 z M 714.128 796.952 C 719.151 787.649 736.408 762.548 737.654 755.162 C 739.603 743.605 765.65 727.505 763.272 715.299 C 756.55 710.787 724.188 713.711 714.071 713.613 L 586.173 713.218 C 583.057 714.129 579.833 714.387 578.282 716.52 C 583.691 726.723 622.756 800.959 622.753 804.325 L 620.367 806.329 C 622.996 813.843 677.572 837.627 686.987 840.256 C 696.944 826.156 704.758 811.38 714.128 796.952 z M 609.761 807.284 C 613.917 808.387 613.415 808.931 616.952 807.789 C 619.356 797.581 577.213 733.888 575.099 715.649 C 555.999 712.103 532.449 712.864 512.772 713.274 C 508.648 714.147 506.084 714.402 502.639 716.841 L 501.956 718.907 C 504.632 720.896 507.81 721.116 509.331 722.949 C 512.019 726.191 516.089 733.533 518.406 736.764 C 524.485 745.241 544.734 777.98 552.521 782.244 C 568.453 790.967 592.179 799.258 609.761 807.284 z M 397.477 715.91 C 425.083 726.974 452.692 739.575 480.108 751.308 C 490.04 755.558 522.285 768.753 529.998 773.804 L 534.404 774.407 L 536.012 773.069 C 536.57 765.946 518.401 746.909 514.115 740.223 C 509.37 732.821 505.105 724.828 500.115 717.605 C 497.471 714.053 490.267 713.427 485.906 713.288 C 460.916 712.494 435.659 713.06 410.66 713.204 C 406.39 714.072 401.678 714.92 397.477 715.91 z" fill="rgb(26,140,151)" fill-opacity="0.988235" transform="translate(0,0)"></path>
<path d="M 626.932 286.855 C 601.233 259.184 609.892 222.221 650.759 218.28 C 665.298 216.879 678.224 229.815 687.981 239.579 C 687.343 250.224 688.353 260.738 686.942 271.002 C 686.513 274.131 684.4 274.618 681.587 276.302 C 680.278 279.029 680.531 277.863 681.285 281.269 C 678.219 281.58 678.871 281.032 677.226 282.795 C 675.708 283.893 675.759 283.619 674.786 285.125 C 672.388 286.278 670.625 286.89 668.781 288.811 C 664.863 290.929 659.788 293.204 657.093 296.589 C 654.921 296.361 652.297 296.296 650.077 296.18 C 636.692 292.68 634.525 291.524 630.193 303.917 C 629.769 305.132 625.269 308.254 624.742 310.189 C 622.3 315.26 620.459 320.665 617.74 325.612 C 583.207 388.455 557.069 455.096 523.079 518.121 C 522.791 518.653 522.881 519.838 522.909 520.421 L 524.058 522.123 C 518.589 522.34 514.335 522.274 508.862 522.046 C 525.018 517.85 516.169 520.592 522.313 507.769 C 536.196 479.63 549.778 450.74 563.943 422.774 C 570.853 409.132 582.558 376.097 592.173 365.761 C 593.517 350.877 600.578 350.614 600.371 339.443 C 598.791 337.517 599.599 338.103 596.817 337.518 C 591.76 339.882 592.757 346.723 591.179 348.565 C 570.957 372.172 553.043 398.144 534.457 423.093 C 528.391 431.235 522.928 440.656 516.766 448.433 C 498.792 471.113 482.212 496.533 464.115 518.968 L 466.719 522.188 C 460.743 522.272 454.766 522.277 448.789 522.203 L 459.421 518.111 C 461.435 513.698 495.146 468.479 500.147 461.5 C 523.987 428.343 548.012 395.318 572.221 362.429 C 590.656 336.924 607.764 312.146 626.932 286.855 z M 645.125 283.037 C 653.482 284.541 662.062 282.066 668.335 276.343 C 674.405 270.804 677.654 262.824 677.178 254.621 C 676.703 246.417 672.553 238.865 665.884 234.065 C 656.789 227.52 644.616 227.204 635.193 233.269 C 625.771 239.334 621.019 250.546 623.212 261.535 C 625.404 272.524 634.096 281.053 645.125 283.037 z" fill="rgb(30,155,162)" fill-opacity="0.988235" transform="translate(0,0)"></path>
<path d="M 631.905 258.154 C 633.371 241.377 645.343 233.779 660.607 241.935 C 669.684 252.008 669.883 262.343 659.392 271.539 C 658.987 271.891 658.576 272.235 658.159 272.572 C 643.482 276.82 636.346 272.51 631.905 258.154 z M 653.247 271.366 C 667.049 265.023 666.267 243.366 650.303 244.721 C 647.513 246.962 642.518 250.353 641.416 253.398 C 640.933 261.184 645.032 269.698 653.247 271.366 z" fill="rgb(251,157,57)" fill-opacity="0.988235" transform="translate(0,0)"></path>
<path d="M 650.303 244.721 C 666.267 243.366 667.049 265.023 653.247 271.366 C 645.032 269.698 640.933 261.184 641.416 253.398 C 642.518 250.353 647.513 246.962 650.303 244.721 z M 654.15 268.628 C 657.316 264.238 659.95 257.526 652.987 255.239 C 651.596 258.581 649.691 261.993 650.396 265.454 C 651.662 267.607 651.769 267.619 654.15 268.628 z" fill="rgb(254,185,93)" fill-opacity="0.94902" transform="translate(0,0)"></path>
<path d="M 652.987 255.239 C 659.95 257.526 657.316 264.238 654.15 268.628 C 651.769 267.619 651.662 267.607 650.396 265.454 C 649.691 261.993 651.596 258.581 652.987 255.239 z" fill="rgb(254,185,93)" fill-opacity="0.921569" transform="translate(0,0)"></path>
<path d="M 645.125 283.037 C 634.096 281.053 625.404 272.524 623.212 261.535 C 621.019 250.546 625.771 239.334 635.193 233.269 C 644.616 227.204 656.789 227.52 665.884 234.065 C 665.683 238.232 666.333 237.606 664.186 240.518 L 660.607 241.935 C 645.343 233.779 633.371 241.377 631.905 258.154 C 630.554 253.885 631.134 253.366 628.253 250.818 C 622.988 253.914 629.51 268.551 631.596 272.787 C 634.342 278.363 641.012 278.134 645.125 283.037 z" fill="rgb(14,35,71)" fill-opacity="0.882353" transform="translate(0,0)"></path>
<path d="M 645.125 283.037 C 641.012 278.134 634.342 278.363 631.596 272.787 C 629.51 268.551 622.988 253.914 628.253 250.818 C 631.134 253.366 630.554 253.885 631.905 258.154 C 636.346 272.51 643.482 276.82 658.159 272.572 C 661.182 271.663 663.574 270.915 666.536 269.775 L 668.06 270.819 L 668.335 276.343 C 662.062 282.066 653.482 284.541 645.125 283.037 z" fill="rgb(14,35,71)" fill-opacity="0.831373" transform="translate(0,0)"></path>
<path d="M 665.884 234.065 C 672.553 238.865 676.703 246.417 677.178 254.621 C 677.654 262.824 674.405 270.804 668.335 276.343 L 668.06 270.819 L 666.536 269.775 C 663.574 270.915 661.182 271.663 658.159 272.572 C 658.576 272.235 658.987 271.891 659.392 271.539 C 669.883 262.343 669.684 252.008 660.607 241.935 L 664.186 240.518 C 666.333 237.606 665.683 238.232 665.884 234.065 z" fill="rgb(14,35,71)" fill-opacity="0.94902" transform="translate(0,0)"></path>
<path d="M 629.989 289.025 L 630.766 289.893 C 624.633 299.759 609.757 335.432 603.562 338.703 C 592.86 332.417 624.047 296.94 629.989 289.025 z" fill="rgb(14,35,71)" transform="translate(0,0)"></path>
<path d="M 1673.16 445.999 C 1677.67 434.437 1682.39 425.229 1695.11 420.928 C 1702.76 418.344 1711.13 418.982 1718.29 422.696 C 1736.46 431.938 1737.03 448.57 1728.41 464.934 C 1724.69 470.979 1730.24 472.358 1733.86 477.78 C 1729.44 475.622 1728.29 473.983 1724.99 470.278 C 1700.56 484.623 1692.97 471.973 1688.26 476.435 C 1670.21 493.522 1641.19 531.549 1625.31 550.29 C 1628.31 552.52 1631.94 555.114 1634.22 557.858 C 1636.05 560.059 1640.17 570.949 1642.09 571.333 C 1660.4 575.001 1694.87 572.626 1712.58 573.241 C 1701.63 576.069 1644.88 571.842 1641.55 575.919 L 1641.36 577.086 C 1636.08 592.672 1640.57 592.928 1625.21 605.117 C 1629.26 609.792 1637.52 618.665 1639.63 624.122 C 1636.94 621.861 1636.38 620.028 1632.86 618.714 L 1631.19 620.265 C 1627.82 617.194 1625.58 617.375 1620.68 612.924 L 1618.31 612.615 C 1614.16 616.72 1616.99 626.202 1610.58 633.922 C 1609.93 627.37 1616.22 621.643 1612.69 615.205 C 1613.5 612.102 1614.43 610.164 1613.35 607.244 C 1610.94 605.328 1606.15 605.703 1602.79 605.611 L 1593.45 600.805 C 1590.49 594.457 1585.96 594.599 1585.27 587.186 C 1585.44 583.612 1585.92 577.902 1584.41 574.879 C 1583.5 569.833 1583.91 568.166 1584.69 563.028 C 1591.33 556.011 1613.15 541.25 1596.52 531.702 L 1598.36 528.516 C 1604.06 535.744 1603.51 545.307 1607.51 547.153 L 1608.67 545.176 L 1609.75 547.432 C 1613.33 548.515 1619.38 548.427 1622.77 547.436 C 1623.64 540.975 1649.14 511.695 1654.34 504.961 C 1662.51 494.372 1675.01 478.885 1684.94 470.372 C 1676.51 462.036 1675.51 456.997 1673.16 445.999 z M 1709.12 469.685 C 1712.66 468.815 1715.93 467.07 1718.62 464.61 C 1719.37 463.923 1720.08 463.185 1720.73 462.4 C 1724.78 457.49 1726.49 451.051 1725.39 444.776 C 1724.3 438.501 1720.52 433.018 1715.04 429.768 C 1709.64 426.564 1703.12 425.845 1697.15 427.796 C 1691.18 429.748 1686.34 434.179 1683.87 439.955 C 1680.63 447.553 1681.96 456.332 1687.3 462.629 C 1692.65 468.925 1701.1 471.658 1709.12 469.685 z" fill="rgb(37,116,137)" transform="translate(0,0)"></path>
<path d="M 1684.94 470.372 L 1686.54 472.565 C 1686.33 473.157 1627.08 544.934 1624.43 547.239 L 1622.77 547.436 C 1623.64 540.975 1649.14 511.695 1654.34 504.961 C 1662.51 494.372 1675.01 478.885 1684.94 470.372 z" fill="rgb(30,155,162)" transform="translate(0,0)"></path>
<path d="M 1691.75 441.2 C 1698.61 433.647 1702.32 433.601 1711.9 436.242 C 1720.48 443.748 1720.12 448.501 1714.9 458.007 C 1702.32 468.843 1686.21 458.911 1691.75 441.2 z" fill="rgb(41,201,184)" fill-opacity="0.945098" transform="translate(0,0)"></path>
<path d="M 1683.87 439.955 C 1686.59 440.101 1689.45 439.947 1691.75 441.2 C 1686.21 458.911 1702.32 468.843 1714.9 458.007 C 1719.16 459.702 1717.6 458.645 1720.73 462.4 C 1720.08 463.185 1719.37 463.923 1718.62 464.61 L 1717.14 461.674 C 1712.36 461.155 1709.45 463.762 1706.37 467.124 L 1706.56 468.764 L 1709.12 469.685 C 1701.1 471.658 1692.65 468.925 1687.3 462.629 C 1681.96 456.332 1680.63 447.553 1683.87 439.955 z" fill="rgb(14,35,71)" fill-opacity="0.776471" transform="translate(0,0)"></path>
<path d="M 1608.83 567.466 C 1613.78 566.844 1618.37 570.15 1619.35 575.041 C 1620.32 579.932 1617.35 584.745 1612.55 586.07 C 1609.11 587.016 1605.44 585.964 1603.03 583.345 C 1600.61 580.727 1599.87 576.979 1601.09 573.635 C 1602.31 570.291 1605.3 567.91 1608.83 567.466 z" fill="rgb(163,235,234)" transform="translate(0,0)"></path>
<path d="M 1715.04 429.768 C 1720.52 433.018 1724.3 438.501 1725.39 444.776 C 1726.49 451.051 1724.78 457.49 1720.73 462.4 C 1717.6 458.645 1719.16 459.702 1714.9 458.007 C 1720.12 448.501 1720.48 443.748 1711.9 436.242 C 1712.69 432.891 1712.75 432.291 1715.04 429.768 z" fill="rgb(14,35,71)" fill-opacity="0.882353" transform="translate(0,0)"></path>
<path d="M 1683.87 439.955 C 1686.34 434.179 1691.18 429.748 1697.15 427.796 C 1703.12 425.845 1709.64 426.564 1715.04 429.768 C 1712.75 432.291 1712.69 432.891 1711.9 436.242 C 1702.32 433.601 1698.61 433.647 1691.75 441.2 C 1689.45 439.947 1686.59 440.101 1683.87 439.955 z" fill="rgb(14,35,71)" fill-opacity="0.894118" transform="translate(0,0)"></path>
<path d="M 1709.12 469.685 L 1706.56 468.764 L 1706.37 467.124 C 1709.45 463.762 1712.36 461.155 1717.14 461.674 L 1718.62 464.61 C 1715.93 467.07 1712.66 468.815 1709.12 469.685 z" fill="rgb(14,35,71)" fill-opacity="0.470588" transform="translate(0,0)"></path>
<path d="M 1728.41 464.934 C 1743.02 480.69 1796.24 540.415 1811.18 548.145 C 1815.49 546.058 1820.67 543.272 1825.36 542.785 C 1861.92 538.98 1870.33 563.902 1863 593.159 C 1846.67 608.949 1833.12 614.796 1811.57 603.041 C 1801.2 611.846 1791.4 623.798 1782.18 633.99 L 1745.34 674.114 C 1741.28 678.557 1729.51 689.569 1726.7 693.42 C 1725.04 692.398 1724.72 691.291 1723.83 689.549 C 1751.19 660.546 1780.37 627.72 1806.77 597.606 C 1795.74 582.095 1804.02 577.23 1782.61 577.339 C 1786.56 576.186 1792.18 575.999 1797.15 574.857 L 1789.94 573.933 C 1801.78 572.555 1799.5 563.575 1806.4 553.301 L 1754.17 499.016 C 1749.52 494.127 1740.59 485.89 1736.94 481.485 L 1733.86 477.78 C 1730.24 472.358 1724.69 470.979 1728.41 464.934 z M 1837.85 559.407 C 1843.65 561.377 1847.97 566.282 1849.19 572.288 C 1850.41 578.294 1848.35 584.495 1843.77 588.572 C 1837.52 594.144 1828.16 594.409 1821.61 589.202 C 1815.05 583.994 1813.18 574.824 1817.19 567.471 C 1821.2 560.118 1829.92 556.715 1837.85 559.407 z M 1854.08 588.385 C 1861.62 575.382 1857.67 563.979 1847.1 554.521 C 1838.98 550.837 1832.19 549.129 1823.37 552.313 C 1816.96 554.604 1811.72 559.353 1808.82 565.51 C 1806.05 571.446 1805.81 578.254 1808.17 584.367 C 1815.38 603.229 1842.79 607.553 1854.08 588.385 z" fill="url(#Gradient4)" transform="translate(0,0)"></path>
<path d="M 1843.77 588.572 C 1837.52 594.144 1828.16 594.409 1821.61 589.202 C 1815.05 583.994 1813.18 574.824 1817.19 567.471 C 1821.2 560.118 1829.92 556.715 1837.85 559.407 C 1843.65 561.377 1847.97 566.282 1849.19 572.288 C 1850.41 578.294 1848.35 584.495 1843.77 588.572 z" fill="rgb(251,157,57)" transform="translate(0,0)"></path>
<path d="M 1854.08 588.385 C 1842.79 607.553 1815.38 603.229 1808.17 584.367 C 1805.81 578.254 1806.05 571.446 1808.82 565.51 C 1811.72 559.353 1816.96 554.604 1823.37 552.313 C 1832.19 549.129 1838.98 550.837 1847.1 554.521 C 1844.68 560.506 1844.11 559.725 1837.85 559.407 C 1829.92 556.715 1821.2 560.118 1817.19 567.471 C 1813.18 574.824 1815.05 583.994 1821.61 589.202 C 1828.16 594.409 1837.52 594.144 1843.77 588.572 C 1848.86 588.101 1846.98 584.853 1852.27 586.02 L 1854.08 588.385 z" fill="rgb(14,35,71)" fill-opacity="0.847059" transform="translate(0,0)"></path>
<path d="M 1847.1 554.521 C 1857.67 563.979 1861.62 575.382 1854.08 588.385 L 1852.27 586.02 C 1846.98 584.853 1848.86 588.101 1843.77 588.572 C 1848.35 584.495 1850.41 578.294 1849.19 572.288 C 1847.97 566.282 1843.65 561.377 1837.85 559.407 C 1844.11 559.725 1844.68 560.506 1847.1 554.521 z" fill="rgb(14,35,71)" fill-opacity="0.988235" transform="translate(0,0)"></path>
<path d="M 1406.61 865.328 C 1409.69 862.832 1411.73 860.625 1414.46 857.773 L 1414.42 866.968 C 1416.19 871.314 1417.61 871.742 1422.17 874.261 L 1424.02 875.265 C 1426.67 880.722 1427.77 883.147 1431.57 888.047 C 1431.8 897.642 1431.75 907.24 1431.43 916.832 C 1420.99 928.703 1414.49 937.336 1397.36 938.507 C 1386.24 939.267 1374.76 936.078 1366.4 928.492 C 1359.87 922.673 1355.96 914.473 1355.55 905.739 C 1355.09 893.86 1361.5 886.325 1360.44 875.945 C 1362.16 877.635 1362.05 877.585 1364.29 878.454 L 1365.31 877.614 C 1364.29 873.518 1364.41 874.605 1360.72 871.363 C 1363.21 871.431 1366.45 871.419 1368.87 871.618 C 1375.79 869.305 1372.87 868.143 1376.84 864.64 C 1387.22 866.034 1389.68 860.945 1406.61 865.328 z M 1408.95 924.448 L 1412.18 921.759 C 1414.89 919.448 1416.89 917.129 1418.67 914.036 C 1422.36 907.537 1423.24 899.812 1421.1 892.649 C 1418.59 884.08 1414.06 879.443 1406.52 875.223 C 1394.78 870.657 1387.8 870.651 1377.03 877.618 C 1366.17 887.669 1363.31 895.38 1366.76 910.102 C 1374.88 925.972 1390.62 934.394 1407.33 925.362 C 1407.87 925.069 1408.42 924.764 1408.95 924.448 z" fill="rgb(30,155,162)" fill-opacity="0.988235" transform="translate(0,0)"></path>
<path d="M 1375.29 904.56 C 1374.7 889.323 1379.72 883.741 1394.51 881.017 L 1402.12 883.109 C 1416.23 893.331 1414.45 900.164 1407.94 914.099 L 1400.87 918.359 C 1386.93 920.682 1380.41 917.767 1375.29 904.56 z" fill="rgb(251,157,57)" fill-opacity="0.972549" transform="translate(0,0)"></path>
<path d="M 1366.76 910.102 C 1367.04 908.641 1368.14 907.164 1368.95 905.853 C 1372.49 903.952 1370.9 904.394 1375.29 904.56 C 1380.41 917.767 1386.93 920.682 1400.87 918.359 C 1403.58 918.244 1406.29 918.068 1409 917.829 C 1410.26 920.087 1409.45 921.329 1408.95 924.448 C 1408.42 924.764 1407.87 925.069 1407.33 925.362 C 1390.62 934.394 1374.88 925.972 1366.76 910.102 z" fill="rgb(14,35,71)" fill-opacity="0.819608" transform="translate(0,0)"></path>
<path d="M 1406.52 875.223 C 1414.06 879.443 1418.59 884.08 1421.1 892.649 C 1423.24 899.812 1422.36 907.537 1418.67 914.036 C 1416.89 917.129 1414.89 919.448 1412.18 921.759 C 1413.61 916.458 1419.34 912.068 1417 908.07 C 1410.97 909.159 1413.11 913.508 1407.94 914.099 C 1414.45 900.164 1416.23 893.331 1402.12 883.109 C 1405.07 882.599 1405.84 882.439 1408.59 881.295 C 1409.17 878.213 1408.53 878.498 1406.52 875.223 z" fill="url(#Gradient3)" transform="translate(0,0)"></path>
<path d="M 1377.03 877.618 C 1378.13 880.919 1377.28 879.981 1379.96 881.442 C 1385.58 881.582 1390.19 879.877 1394.51 881.017 C 1379.72 883.741 1374.7 889.323 1375.29 904.56 C 1370.9 904.394 1372.49 903.952 1368.95 905.853 C 1368.14 907.164 1367.04 908.641 1366.76 910.102 C 1363.31 895.38 1366.17 887.669 1377.03 877.618 z" fill="rgb(14,35,71)" fill-opacity="0.862745" transform="translate(0,0)"></path>
<path d="M 1377.03 877.618 C 1387.8 870.651 1394.78 870.657 1406.52 875.223 C 1408.53 878.498 1409.17 878.213 1408.59 881.295 C 1405.84 882.439 1405.07 882.599 1402.12 883.109 L 1394.51 881.017 C 1390.19 879.877 1385.58 881.582 1379.96 881.442 C 1377.28 879.981 1378.13 880.919 1377.03 877.618 z" fill="rgb(14,35,71)" fill-opacity="0.729412" transform="translate(0,0)"></path>
<path d="M 1407.94 914.099 C 1413.11 913.508 1410.97 909.159 1417 908.07 C 1419.34 912.068 1413.61 916.458 1412.18 921.759 L 1408.95 924.448 C 1409.45 921.329 1410.26 920.087 1409 917.829 C 1406.29 918.068 1403.58 918.244 1400.87 918.359 L 1407.94 914.099 z" fill="rgb(14,35,71)" fill-opacity="0.866667" transform="translate(0,0)"></path>
<path d="M 1365.67 281.34 C 1365.26 277.293 1362.58 275.53 1360.41 272.215 C 1352.57 260.248 1355.08 244.567 1362.68 232.781 C 1375.6 212.729 1410.91 212.452 1424.61 231.888 C 1426.91 235.104 1429.29 238.265 1431.59 241.513 C 1431.63 250.6 1431.62 259.688 1431.53 268.775 C 1428.84 271.488 1420.42 279.036 1420.11 282.489 C 1419.65 287.703 1423.44 289.22 1425.83 293.718 L 1423.72 295.377 C 1420.22 295.311 1418.35 293.678 1415.47 291.749 L 1414.69 290.258 C 1409.45 287.944 1406.33 289.197 1401.17 290.929 L 1394.42 292.758 C 1389.67 291.482 1385.79 291.089 1380.94 290.498 C 1376.99 289.464 1376.2 285.619 1371.01 284.094 C 1368.36 285.474 1369.2 285.03 1367.69 288.466 C 1363.66 291.238 1351.08 299.18 1346.94 300.802 C 1351.2 295.861 1362.2 289.99 1367.52 284.139 L 1367.41 282.35 L 1365.67 281.34 z M 1367.3 261.026 C 1369.4 269.692 1375.62 276.773 1383.95 279.964 C 1392.27 283.155 1401.63 282.049 1408.98 277.004 C 1420.28 269.253 1424.02 254.29 1417.69 242.139 C 1411.36 229.987 1396.96 224.466 1384.13 229.275 C 1371.3 234.084 1364.08 247.71 1367.3 261.026 z" fill="rgb(30,155,162)" transform="translate(0,0)"></path>
<path d="M 1376.01 258.016 C 1374.17 248.981 1379.41 240.008 1388.18 237.161 C 1396.95 234.314 1406.46 238.501 1410.28 246.891 C 1414.1 255.281 1411.02 265.204 1403.11 269.951 C 1398.07 272.983 1391.86 273.375 1386.47 271.003 C 1381.08 268.63 1377.18 263.787 1376.01 258.016 z" fill="rgb(251,157,57)" fill-opacity="0.980392" transform="translate(0,0)"></path>
<path d="M 1367.3 261.026 C 1364.08 247.71 1371.3 234.084 1384.13 229.275 C 1396.96 224.466 1411.36 229.987 1417.69 242.139 C 1424.02 254.29 1420.28 269.253 1408.98 277.004 C 1411.04 273.252 1412.49 272.303 1412.33 268.544 C 1408.73 267.652 1407.13 268.823 1403.11 269.951 C 1411.02 265.204 1414.1 255.281 1410.28 246.891 C 1406.46 238.501 1396.95 234.314 1388.18 237.161 C 1379.41 240.008 1374.17 248.981 1376.01 258.016 C 1374.04 255.008 1375.08 255.641 1372.15 254.691 C 1369.37 256.099 1368.77 258.157 1367.3 261.026 z" fill="rgb(14,35,71)" fill-opacity="0.964706" transform="translate(0,0)"></path>
<path d="M 1367.3 261.026 C 1368.77 258.157 1369.37 256.099 1372.15 254.691 C 1375.08 255.641 1374.04 255.008 1376.01 258.016 C 1377.18 263.787 1381.08 268.63 1386.47 271.003 C 1391.86 273.375 1398.07 272.983 1403.11 269.951 C 1407.13 268.823 1408.73 267.652 1412.33 268.544 C 1412.49 272.303 1411.04 273.252 1408.98 277.004 C 1401.63 282.049 1392.27 283.155 1383.95 279.964 C 1375.62 276.773 1369.4 269.692 1367.3 261.026 z" fill="rgb(14,35,71)" fill-opacity="0.737255" transform="translate(0,0)"></path>
<path d="M 649.721 859.139 C 655.843 868.671 663.17 863.352 675.828 875.678 L 678.998 878.261 C 681.748 885.758 684.445 884.372 686.475 888.752 C 688.556 896.399 687.351 904.183 686.796 912.196 C 672.14 935.75 657.651 942.975 630.552 934.846 C 608.797 911.989 605.259 898.081 624.831 872.101 C 625.856 869.629 625.345 872.944 629.731 869.45 C 633.226 866.773 642.529 864.062 647.004 862.697 C 648.507 861.519 648.685 860.818 649.721 859.139 z M 641.533 873.647 C 624.307 880.919 617.824 895.459 624.638 913.144 C 634.815 929.069 650.14 933.856 666.355 922.939 L 667.213 922.356 C 687.93 903.06 673.925 869.262 641.533 873.647 z" fill="rgb(30,155,162)" fill-opacity="0.988235" transform="translate(0,0)"></path>
<path d="M 633.916 911.911 C 627.164 894.386 633.062 881.59 652.944 882.293 C 670.433 888.943 671.527 903.991 659.251 916.811 C 647.873 920.319 642.54 920.891 633.916 911.911 z" fill="rgb(251,157,57)" fill-opacity="0.976471" transform="translate(0,0)"></path>
<path d="M 641.533 873.647 C 673.925 869.262 687.93 903.06 667.213 922.356 C 667.555 920.666 667.784 918.898 668.037 917.188 L 666.011 917.552 L 665.284 916.837 L 666.654 914.068 C 664.019 914.925 661.805 915.791 659.251 916.811 C 671.527 903.991 670.433 888.943 652.944 882.293 L 657.216 881.744 C 660.094 882.011 660.566 882.104 663.253 881.1 L 663.314 879.801 C 659.666 876.85 653.141 874.477 648.508 874.014 L 641.533 873.647 z" fill="rgb(14,35,71)" fill-opacity="0.937255" transform="translate(0,0)"></path>
<path d="M 624.638 913.144 C 617.824 895.459 624.307 880.919 641.533 873.647 L 648.508 874.014 C 644.767 875.151 640.894 875.905 638.111 878.547 L 638.57 879.883 C 645.938 881.991 650.787 880.622 657.216 881.744 L 652.944 882.293 C 633.062 881.59 627.164 894.386 633.916 911.911 C 629.734 914.351 630.286 913.789 624.638 913.144 z" fill="rgb(47,56,123)" fill-opacity="0.784314" transform="translate(0,0)"></path>
<path d="M 633.916 911.911 C 642.54 920.891 647.873 920.319 659.251 916.811 C 661.805 915.791 664.019 914.925 666.654 914.068 L 665.284 916.837 L 666.011 917.552 L 668.037 917.188 C 667.784 918.898 667.555 920.666 667.213 922.356 L 666.355 922.939 C 650.14 933.856 634.815 929.069 624.638 913.144 C 630.286 913.789 629.734 914.351 633.916 911.911 z" fill="rgb(14,35,71)" fill-opacity="0.847059" transform="translate(0,0)"></path>
<path d="M 648.508 874.014 C 653.141 874.477 659.666 876.85 663.314 879.801 L 663.253 881.1 C 660.566 882.104 660.094 882.011 657.216 881.744 C 650.787 880.622 645.938 881.991 638.57 879.883 L 638.111 878.547 C 640.894 875.905 644.767 875.151 648.508 874.014 z" fill="rgb(14,35,71)" fill-opacity="0.0117647" transform="translate(0,0)"></path>
<path d="M 1415.47 291.749 C 1418.35 293.678 1420.22 295.311 1423.72 295.377 L 1425.83 293.718 C 1435.31 303.508 1442.57 314.614 1450.84 325.444 C 1468.53 348.612 1486.72 371.43 1504.7 394.377 C 1508.13 398.76 1514.67 406.665 1517.34 411.283 C 1517.87 414.343 1518.15 415.474 1517.92 418.623 L 1518.97 420.16 L 1486.16 419.524 C 1492.91 428.272 1538.33 514.448 1539.54 521.509 C 1535.23 524.241 1531.89 523.486 1526.58 523.061 C 1529.4 522.537 1532.44 521.237 1535.16 520.207 C 1517.91 490.688 1499.1 451.834 1482.76 421.042 C 1476.42 416.905 1450.68 419.511 1440.67 418.701 C 1437.7 416.432 1432.08 418.342 1428.34 416.681 C 1438.78 416.638 1453.4 416.982 1463.46 415.876 C 1467.37 415.941 1473.02 415.388 1476.27 413.158 C 1477.66 403.679 1419.58 313.289 1415.47 291.749 z M 1478.68 368.146 C 1476.11 363.113 1452.33 333.987 1447.27 327.628 C 1443.67 328.401 1440.37 327.978 1439.94 332.296 C 1441.48 335.251 1446.14 343.752 1447.12 346.428 C 1450.04 348.89 1450.93 349.067 1454.42 350.2 C 1456.18 352.918 1454.55 357.212 1454.93 357.934 C 1464.76 376.592 1473.9 395.842 1484.36 414.122 C 1485.86 416.76 1505.48 416.549 1509.25 415.032 C 1511.31 412.507 1510.89 413.691 1510.97 410.606 C 1504.9 400.212 1481.36 375.104 1478.68 368.146 z" fill="rgb(26,140,151)" transform="translate(0,0)"></path>
<path d="M 1447.27 327.628 C 1452.33 333.987 1476.11 363.113 1478.68 368.146 C 1469.78 362.503 1457.66 339.807 1450 339.259 C 1447.23 342.098 1448.01 341.851 1447.12 346.428 C 1446.14 343.752 1441.48 335.251 1439.94 332.296 C 1440.37 327.978 1443.67 328.401 1447.27 327.628 z" fill="rgb(14,35,71)" fill-opacity="0.976471" transform="translate(0,0)"></path>
<path d="M 1432.86 319.084 C 1428.66 311.098 1424.64 303.014 1420.82 294.839 C 1427.77 302.357 1431.78 307.434 1437.97 315.704 C 1440.11 318.483 1445.12 325.366 1447.27 327.628 C 1443.67 328.401 1440.37 327.978 1439.94 332.296 C 1438.45 330.332 1434.24 321.751 1432.86 319.084 z" fill="rgb(14,35,71)" transform="translate(0,0)"></path>
<path d="M 322.853 467.854 L 323.198 469.07 L 321.025 471.951 L 320.329 473.113 C 320.29 473.374 319.689 477.482 319.689 477.483 C 296.019 506.167 268.071 531.501 243.997 559.684 C 242.433 561.514 247.273 572.075 248.719 573.849 C 250.028 575.482 253.005 575.943 255.367 576.502 C 250.718 579.361 249.676 577.554 246.762 579.21 C 245.394 588.253 243.494 589.393 241.298 597.39 C 241.293 597.411 243.51 601.689 243.876 602.723 C 241.894 601.058 240.487 599.431 238.026 599.092 C 239.638 602.393 245.938 608.75 248.96 612.762 C 235.483 605 241.134 598.885 222.756 608.904 C 218.261 611.354 205.759 609.288 200.616 607.037 C 192.522 603.507 186.21 596.842 183.126 588.568 C 174.719 565.867 192.404 544.161 215.728 544.162 C 225.952 544.163 229.43 548.84 238.145 552.988 C 249.446 551.488 244.015 545.561 255.783 540.181 C 268.329 526.815 280.739 513.322 293.01 499.703 C 297.996 494.129 317.698 471.324 322.853 467.854 z M 198.462 579.518 C 197.405 575.274 198.031 570.785 200.208 566.992 C 202.504 562.991 206.332 560.1 210.807 558.985 C 215.283 557.871 220.02 558.629 223.924 561.086 C 226.291 562.575 228.252 564.627 229.633 567.058 C 232.82 572.67 232.542 579.604 228.917 584.942 C 225.163 590.471 218.509 593.276 211.931 592.104 C 205.352 590.932 200.076 586.002 198.462 579.518 z M 237.463 588.193 C 241.206 581.047 241.35 572.553 237.851 565.284 C 236.05 561.543 233.363 558.299 230.024 555.831 C 221.136 549.263 209.03 549.163 200.035 555.584 C 191.04 562.004 187.2 573.485 190.523 584.025 C 191.076 585.781 191.817 587.471 192.734 589.066 C 197.375 597.142 206.046 602.048 215.357 601.866 C 224.669 601.684 233.142 596.443 237.463 588.193 z" fill="rgb(30,155,162)" transform="translate(0,0)"></path>
<path d="M 322.853 467.854 L 323.198 469.07 L 321.025 471.951 L 320.329 473.113 C 311.893 482.265 250.983 550.953 246.937 552.077 L 246.777 550.975 C 249.981 547.32 252.783 544.004 255.783 540.181 C 268.329 526.815 280.739 513.322 293.01 499.703 C 297.996 494.129 317.698 471.324 322.853 467.854 z" fill="rgb(252,252,252)" transform="translate(0,0)"></path>
<path d="M 200.208 566.992 C 202.504 562.991 206.332 560.1 210.807 558.985 C 215.283 557.871 220.02 558.629 223.924 561.086 C 226.291 562.575 228.252 564.627 229.633 567.058 C 232.82 572.67 232.542 579.604 228.917 584.942 C 225.163 590.471 218.509 593.276 211.931 592.104 C 205.352 590.932 200.076 586.002 198.462 579.518 C 197.405 575.274 198.031 570.785 200.208 566.992 z" fill="rgb(251,157,57)" transform="translate(0,0)"></path>
<path d="M 198.462 579.518 C 200.076 586.002 205.352 590.932 211.931 592.104 C 218.509 593.276 225.163 590.471 228.917 584.942 C 233.628 584.617 235.522 583.201 237.463 588.193 C 233.142 596.443 224.669 601.684 215.357 601.866 C 206.046 602.048 197.375 597.142 192.734 589.066 C 192.84 583.426 193.203 582.199 198.462 579.518 z" fill="rgb(47,56,123)" fill-opacity="0.8" transform="translate(0,0)"></path>
<path d="M 190.523 584.025 C 187.2 573.485 191.04 562.004 200.035 555.584 C 209.03 549.163 221.136 549.263 230.024 555.831 L 229.163 555.737 C 222.914 555.006 220.101 552.197 215.493 552.405 L 213.816 554.223 C 217.419 558.559 220.976 555.838 223.924 561.086 C 220.02 558.629 215.283 557.871 210.807 558.985 C 206.332 560.1 202.504 562.991 200.208 566.992 C 198.939 567.119 195.214 567.218 194.906 567.96 C 191.416 576.37 195.168 574.656 190.523 584.025 z" fill="rgb(47,56,123)" fill-opacity="0.945098" transform="translate(0,0)"></path>
<path d="M 223.924 561.086 C 220.976 555.838 217.419 558.559 213.816 554.223 L 215.493 552.405 C 220.101 552.197 222.914 555.006 229.163 555.737 L 230.024 555.831 C 233.363 558.299 236.05 561.543 237.851 565.284 L 236.913 568.385 L 234.996 569.227 L 229.633 567.058 C 228.252 564.627 226.291 562.575 223.924 561.086 z" fill="rgb(47,56,123)" fill-opacity="0.764706" transform="translate(0,0)"></path>
<path d="M 237.851 565.284 C 241.35 572.553 241.206 581.047 237.463 588.193 C 235.522 583.201 233.628 584.617 228.917 584.942 C 232.542 579.604 232.82 572.67 229.633 567.058 L 234.996 569.227 L 236.913 568.385 L 237.851 565.284 z" fill="rgb(14,35,71)" fill-opacity="0.972549" transform="translate(0,0)"></path>
<path d="M 190.523 584.025 C 195.168 574.656 191.416 576.37 194.906 567.96 C 195.214 567.218 198.939 567.119 200.208 566.992 C 198.031 570.785 197.405 575.274 198.462 579.518 C 193.203 582.199 192.84 583.426 192.734 589.066 C 191.817 587.471 191.076 585.781 190.523 584.025 z" fill="url(#Gradient2)" transform="translate(0,0)"></path>
<path d="M 1612.69 615.205 C 1616.22 621.643 1609.93 627.37 1610.58 633.922 C 1599.55 660.319 1582.04 685.038 1562.14 705.487 C 1574.84 710.052 1644.09 707.88 1662.14 707.629 C 1665.24 707.76 1667.3 707.429 1669.57 709.352 L 1669.06 710.658 L 1666.25 711.561 C 1633.27 709.112 1594.94 712.553 1561.32 710.503 C 1551.06 717.231 1542.85 734.526 1535.21 743.005 C 1519.55 760.393 1437.77 866.403 1424.02 875.265 L 1422.17 874.261 C 1424.44 870.496 1423.53 868.384 1424.78 864.284 C 1425.17 863.685 1430.41 862.311 1430.34 862.388 C 1471.46 812.4 1513.08 763.028 1553.07 712.085 C 1540.82 710.379 1511.54 710.709 1496.76 709.966 C 1494.65 711.997 1491.76 715.458 1490.56 718.081 C 1476.54 748.605 1460.12 777.859 1445.13 807.903 C 1441.92 814.341 1439.74 821.08 1436.73 827.499 C 1433.99 833.36 1429.15 839.266 1426.24 845.159 C 1423.79 849.986 1423.77 860.064 1421.18 862.717 L 1418.43 861.268 L 1414.42 866.968 L 1414.46 857.773 C 1416.19 855.534 1418.59 849.819 1420.1 846.932 C 1443.74 801.809 1463.58 755.343 1490.11 711.689 C 1481.85 710.574 1469.37 710.511 1460.89 710.689 C 1423.73 711.468 1386.52 709.891 1349.41 711.16 C 1346.12 711.273 1342.5 713.303 1339.64 714.859 C 1341.67 712.757 1342.49 709.763 1341.81 706.921 C 1356.56 708.294 1393.46 707.712 1409.23 707.6 C 1434.81 707.417 1466.98 708.784 1492.05 707.633 C 1493.39 701.321 1522.28 642.245 1525.04 640.153 C 1526.37 639.145 1526.4 639.271 1528.02 639.534 C 1529.92 646.762 1501.78 697.102 1496.44 706.411 C 1504.44 708.175 1547.14 709.149 1552.87 707.353 C 1562.71 704.27 1592.48 656.44 1599.48 646.028 C 1605.16 637.581 1609.73 624.846 1612.69 615.205 z" fill="rgb(30,155,162)" fill-opacity="0.988235" transform="translate(0,0)"></path>
<path d="M 320.521 436.768 C 338.634 414.786 355.732 414.526 375.24 434.323 C 377.208 444.877 379.803 456.43 372.001 465.535 C 378.067 476.194 431.182 534.772 432.307 539.172 C 434.472 542.015 438.824 546.311 439.07 549.031 L 436.871 550.752 C 414.738 526.771 393.836 501.612 372.888 476.616 C 371.385 474.824 367.354 472.549 365.254 471.607 C 342.822 485.789 340.74 472.031 321.025 471.951 L 323.198 469.07 L 322.853 467.854 C 322.951 467.602 323.946 465.028 323.946 465.028 C 319.998 455.388 319.907 446.886 320.521 436.768 z M 345.803 471.2 C 354.885 472.357 363.76 467.88 368.225 459.887 C 372.691 451.894 371.852 441.99 366.106 434.862 C 359.767 426.999 348.955 424.34 339.693 428.367 C 330.43 432.394 325 442.114 326.426 452.112 C 327.853 462.111 335.784 469.924 345.803 471.2 z" fill="rgb(30,155,162)" transform="translate(0,0)"></path>
<path d="M 357.886 459.848 C 351.706 464.818 342.69 463.953 337.568 457.898 C 332.446 451.844 333.087 442.809 339.012 437.538 C 344.937 432.267 353.985 432.683 359.402 438.475 C 362.179 441.444 363.593 445.436 363.306 449.492 C 363.018 453.547 361.054 457.3 357.886 459.848 z" fill="rgb(41,201,184)" fill-opacity="0.980392" transform="translate(0,0)"></path>
<path d="M 345.803 471.2 C 335.784 469.924 327.853 462.111 326.426 452.112 C 325 442.114 330.43 432.394 339.693 428.367 C 348.955 424.34 359.767 426.999 366.106 434.862 C 362.63 435.664 361.76 435.708 359.402 438.475 C 353.985 432.683 344.937 432.267 339.012 437.538 C 333.087 442.809 332.446 451.844 337.568 457.898 C 342.69 463.953 351.706 464.818 357.886 459.848 C 353.858 468.747 345.218 464.682 345.803 471.2 z" fill="rgb(47,56,123)" fill-opacity="0.886275" transform="translate(0,0)"></path>
<path d="M 359.402 438.475 C 361.76 435.708 362.63 435.664 366.106 434.862 C 371.852 441.99 372.691 451.894 368.225 459.887 C 363.76 467.88 354.885 472.357 345.803 471.2 C 345.218 464.682 353.858 468.747 357.886 459.848 C 361.054 457.3 363.018 453.547 363.306 449.492 C 363.593 445.436 362.179 441.444 359.402 438.475 z" fill="rgb(47,56,123)" fill-opacity="0.72549" transform="translate(0,0)"></path>
<path d="M 1684.88 680.489 C 1700.61 680.894 1708.9 675.857 1723.83 689.549 C 1724.72 691.291 1725.04 692.398 1726.7 693.42 C 1728.71 698.8 1730.98 704.233 1731.96 709.876 C 1728.63 721.65 1725.73 730.174 1713.77 736.689 C 1706.63 740.672 1698.16 741.576 1690.33 739.192 C 1668.93 732.513 1674.9 718.529 1668.39 712.344 L 1666.25 711.561 L 1669.06 710.658 L 1669.57 709.352 C 1667.3 707.429 1665.24 707.76 1662.14 707.629 C 1663.58 707.399 1666.8 707.143 1667.42 706.103 C 1674.43 694.276 1671.5 693.568 1682.14 684.225 L 1683.83 683.521 L 1684.88 680.489 z M 1714.42 711.682 C 1714.94 714.842 1716.01 718.159 1713.43 720.879 C 1710.38 724.09 1701.18 727.653 1697 728.557 L 1696.14 729.521 C 1710.35 741.16 1724.11 710.748 1720.34 699.756 C 1718.98 695.804 1718.22 694.917 1714.43 692.939 C 1693.76 680.033 1674.56 693.164 1681.5 717.073 C 1682.37 720.084 1683 720.051 1685.64 721.372 L 1688.14 719.896 C 1699.57 727.024 1710.48 726.273 1714.42 711.682 z" fill="rgb(30,155,162)" transform="translate(0,0)"></path>
<path d="M 1700.76 693.198 C 1709.21 696.448 1716.96 701.038 1714.42 711.682 C 1710.48 726.273 1699.57 727.024 1688.14 719.896 C 1685.87 716.905 1684.65 713.241 1683.25 709.732 C 1684.89 705.429 1687.14 701.98 1689.5 698.06 C 1692.7 696.241 1697.26 694.589 1700.76 693.198 z" fill="rgb(41,201,184)" fill-opacity="0.988235" transform="translate(0,0)"></path>
<path d="M 1688.14 719.896 L 1685.64 721.372 C 1683 720.051 1682.37 720.084 1681.5 717.073 C 1674.56 693.164 1693.76 680.033 1714.43 692.939 C 1718.22 694.917 1718.98 695.804 1720.34 699.756 C 1724.11 710.748 1710.35 741.16 1696.14 729.521 L 1697 728.557 C 1701.18 727.653 1710.38 724.09 1713.43 720.879 C 1716.01 718.159 1714.94 714.842 1714.42 711.682 C 1716.96 701.038 1709.21 696.448 1700.76 693.198 C 1697.26 694.589 1692.7 696.241 1689.5 698.06 C 1687.14 701.98 1684.89 705.429 1683.25 709.732 C 1684.65 713.241 1685.87 716.905 1688.14 719.896 z" fill="rgb(14,35,71)" fill-opacity="0.0196078" transform="translate(0,0)"></path>
<path d="M 321.26 684.144 C 324.908 686.143 325.829 686.558 328.84 689.52 C 336.264 690.737 349.249 674.883 367.184 687.214 C 369.612 691.568 371.867 693.657 375.307 697.285 C 375.763 701.149 375.906 708.108 379.449 710.2 C 378.489 711.582 376.863 713.712 376.346 715.188 C 375.831 739.009 346.204 748.113 330.188 732.633 C 320.416 723.189 319.997 715.947 320.797 703.672 C 322.955 700.989 325.132 696.797 326.875 693.698 L 327.303 692.417 C 327.002 690.029 323.041 686.154 321.26 684.144 z M 367.478 698.48 C 359.118 696.464 355.16 688.632 346.252 690.562 C 325.788 695.603 321.945 719.25 338.872 728.652 C 344.001 731.539 350.075 732.243 355.728 730.606 C 371.533 725.972 370.889 711.371 367.478 698.48 z" fill="rgb(30,155,162)" transform="translate(0,0)"></path>
<path d="M 367.478 698.48 C 370.889 711.371 371.533 725.972 355.728 730.606 C 350.075 732.243 344.001 731.539 338.872 728.652 C 321.945 719.25 325.788 695.603 346.252 690.562 C 343.142 693.048 342.206 692.957 341.016 696.262 C 345.291 699.373 354.242 695.511 359.204 699.043 L 358.9 701.243 C 354.163 696.609 346.718 696.222 341.526 700.341 C 336.334 704.46 335.017 711.797 338.451 717.465 C 341.886 723.132 349 725.36 355.054 722.663 C 361.108 719.967 364.21 713.188 362.295 706.844 C 367.733 704.889 366.735 703.791 367.478 698.48 z" fill="rgb(47,56,123)" fill-opacity="0.729412" transform="translate(0,0)"></path>
<path d="M 362.295 706.844 C 364.21 713.188 361.108 719.967 355.054 722.663 C 349 725.36 341.886 723.132 338.451 717.465 C 335.017 711.797 336.334 704.46 341.526 700.341 C 346.718 696.222 354.163 696.609 358.9 701.243 C 360.486 702.794 361.654 704.721 362.295 706.844 z" fill="rgb(41,201,184)" fill-opacity="0.980392" transform="translate(0,0)"></path>
<path d="M 668.781 288.811 C 670.625 286.89 672.388 286.278 674.786 285.125 C 675.759 283.619 675.708 283.893 677.226 282.795 C 681.792 286.338 704.628 303.68 707.266 306.759 C 704.108 305.507 691.677 298.732 691.423 298.704 C 692.549 301.377 693.292 300.653 695.481 302.443 C 695.72 302.638 696.021 309.238 695.897 309.039 C 700.04 315.718 705.406 323.732 709.843 330.016 L 790.139 441.5 C 795.392 448.767 802.716 459.655 807.614 467.16 C 815.7 479.551 838.217 504.155 841.478 516.51 L 840.729 517.554 C 831.163 511.794 811.402 477.666 802.257 467.523 C 798.769 463.656 792.248 454.796 791.136 449.844 C 788.568 446.794 785.292 442.012 782.853 438.683 L 779.837 438.075 L 777.441 437.469 C 769.561 419.452 677.903 292.319 668.781 288.811 z" fill="rgb(37,116,137)" fill-opacity="0.988235" transform="translate(0,0)"></path>
<path d="M 804.458 350.367 C 810.614 346.53 814.668 335.106 819.568 329.262 C 834.454 311.507 856.863 298.462 877.476 289.516 C 930.941 266.314 988.419 257.021 1046.36 263.107 C 1053.65 263.872 1060.94 260.852 1067.32 267.215 C 1055.21 265.055 1043.63 264.933 1031.36 264.482 C 965.622 262.066 896.628 280.549 841.99 317.483 C 828.627 326.516 820.969 336.626 811.746 349.379 C 811.179 350.163 808.398 351.061 807.359 351.373 L 804.458 350.367 z" fill="rgb(14,35,71)" fill-opacity="0.941176" transform="translate(0,0)"></path>
<path d="M 432.307 539.172 C 441.107 544.017 442.052 549.454 451.345 542.587 C 456.814 545.751 463.11 554.435 466.187 556.119 C 471.715 562.165 477.286 568.172 482.898 574.14 C 476.294 576.814 472.597 582.952 465.947 581.133 C 464.33 579.281 464.001 579.101 463.338 576.808 C 462.143 570.6 457.013 565.914 450.722 565.285 C 444.432 564.656 438.475 568.234 436.075 574.082 C 433.675 579.931 435.402 586.661 440.321 590.632 L 441.081 594.872 L 439.17 596.593 C 436.9 594.171 437.938 594.953 434.074 594.002 C 428.351 590.754 433.449 588.219 419.695 583.518 L 418.576 580.659 L 418.069 577.513 L 417.637 576.466 C 411.091 574.402 354.076 575.877 343.1 575.964 C 351.244 572.699 405.984 577.819 417.72 573.259 C 420.209 570.733 419.464 571.971 419.948 567.571 L 421.081 569.807 C 424.492 571.146 422.265 567.763 430.563 566.424 C 433.715 561.506 433.848 560.256 431.622 554.851 C 434.497 554.046 434.908 553.117 436.871 550.752 L 439.07 549.031 C 438.824 546.311 434.472 542.015 432.307 539.172 z" fill="rgb(37,116,137)" fill-opacity="0.87451" transform="translate(0,0)"></path>
<path d="M 1367.69 288.466 C 1369.2 285.03 1368.36 285.474 1371.01 284.094 C 1376.2 285.619 1376.99 289.464 1380.94 290.498 C 1377.1 293.38 1376.79 296.948 1373.82 300.553 C 1353.16 325.673 1336.17 353.425 1316.65 379.518 C 1303.07 397.663 1289.3 415.674 1275.85 433.893 C 1276.08 437.101 1275.97 436.058 1278.78 439.016 C 1287.93 440.833 1376.62 423.17 1390.7 419.611 L 1392.49 421.059 C 1388 420.822 1370.6 426.802 1364.11 428.203 C 1350.58 431.12 1280.83 441.965 1273.12 446.86 L 1275.66 442.853 C 1275.3 439.733 1273.16 435.193 1270.8 433.193 C 1273.38 426.054 1357.8 313.224 1368.24 299.631 C 1368.15 295.574 1369.08 292.376 1367.69 288.466 z" fill="rgb(37,116,137)" fill-opacity="0.972549" transform="translate(0,0)"></path>
<path d="M 1365.67 281.34 L 1367.41 282.35 L 1367.52 284.139 C 1362.2 289.99 1351.2 295.861 1346.94 300.802 L 1160.57 446.013 C 1155.95 449.365 1147.84 456.415 1143.36 458.4 C 1141.21 457.707 1142.03 458.307 1140.66 456.8 C 1215.08 397.559 1290.08 339.069 1365.67 281.34 z" fill="rgb(252,252,252)" transform="translate(0,0)"></path>
<path d="M 1399.97 372.527 L 1400.4 367.39 C 1401.27 372.47 1401.88 381.688 1403.66 385.863 L 1405.06 386.304 L 1406.25 384.44 L 1407.06 398.06 C 1419.5 402.677 1421.71 402.88 1427.67 414.801 C 1437.72 414.81 1454 414.346 1463.46 415.876 C 1453.4 416.982 1438.78 416.638 1428.34 416.681 C 1432.08 418.342 1437.7 416.432 1440.67 418.701 C 1435.12 419.479 1428.59 417.694 1425.27 422.404 C 1422.35 426.56 1421.47 435.37 1415.24 435.684 C 1406.49 436.125 1394.84 430.915 1391.06 422.928 L 1388.55 422.428 L 1392.49 421.059 L 1390.7 419.611 C 1395.19 410.999 1392.33 411.625 1400.84 399.959 C 1399.82 391.465 1400.02 381.222 1399.97 372.527 z M 1412.48 425.819 C 1415.67 420.76 1418.73 412.44 1412.04 408.586 C 1411.15 408.074 1410.19 407.681 1409.2 407.417 C 1406.2 410.52 1404.22 412.578 1404.28 417.322 C 1404.33 419.815 1405.48 422.159 1407.43 423.718 C 1409.03 425.017 1410.51 425.361 1412.48 425.819 z" fill="rgb(37,116,137)" fill-opacity="0.988235" transform="translate(0,0)"></path>
<path d="M 1409.2 407.417 C 1410.19 407.681 1411.15 408.074 1412.04 408.586 C 1418.73 412.44 1415.67 420.76 1412.48 425.819 C 1410.51 425.361 1409.03 425.017 1407.43 423.718 C 1405.48 422.159 1404.33 419.815 1404.28 417.322 C 1404.22 412.578 1406.2 410.52 1409.2 407.417 z" fill="rgb(37,116,137)" fill-opacity="0.894118" transform="translate(0,0)"></path>
<path d="M 895.008 708.896 L 897.327 711.398 C 828.558 764.55 757.402 817.128 689.301 870.462 C 686.073 872.938 682.297 875.996 678.998 878.261 L 675.828 875.678 L 680.676 871.546 C 684.013 869.742 690.744 864.054 693.995 861.449 C 708.952 849.094 728.858 834.777 744.609 822.844 C 776.459 798.947 808.165 774.86 839.726 750.583 C 848.198 744.111 881.641 719.353 886.138 713.761 L 884.283 711.035 C 885.114 710.031 892.714 709.31 895.008 708.896 z" fill="rgb(252,252,252)" transform="translate(0,0)"></path>
<path d="M 677.226 282.795 C 678.871 281.032 678.219 281.58 681.285 281.269 C 687.565 287.074 699.857 295.861 707.088 300.983 L 718.773 309.709 L 905.993 454.598 L 906.479 457.074 L 904.84 459.348 C 863.944 426.435 821.072 394.272 779.559 362.021 L 731.671 324.83 C 724.777 319.552 714.176 310.966 707.266 306.759 C 704.628 303.68 681.792 286.338 677.226 282.795 z" fill="rgb(252,252,252)" transform="translate(0,0)"></path>
<path d="M 1142.19 710.427 C 1139.37 708.416 1138.77 708.001 1136.61 705.322 L 1136.86 703.333 C 1137.99 703.031 1138.93 703.208 1140.14 703.27 L 1144.1 706.808 C 1145.04 707.536 1150.98 712.258 1151.6 712.566 L 1289.45 817.11 L 1338.15 853.991 C 1344.19 858.604 1355.44 866.694 1360.72 871.363 C 1364.41 874.605 1364.29 873.518 1365.31 877.614 L 1364.29 878.454 C 1362.05 877.585 1362.16 877.635 1360.44 875.945 C 1345.29 865.662 1325.7 849.083 1310.37 837.608 L 1202.34 756.335 C 1182.03 740.934 1162.97 725.606 1142.19 710.427 z" fill="rgb(252,252,252)" transform="translate(0,0)"></path>
<path d="M 1144.1 706.808 C 1158.14 708.978 1265.91 709.25 1275.08 705.59 L 1276.04 704.36 C 1271.31 697.107 1238.69 644.617 1237.34 639.942 L 1238.03 638.728 C 1246.09 640.137 1249.29 649.711 1253.27 655.92 C 1263.73 672.224 1272.08 690.444 1282.23 706.828 C 1289.62 709.256 1318.15 709.421 1325.19 706.867 C 1324.85 708.264 1324.86 709.726 1325.23 711.117 C 1298.58 709.944 1266.67 711.755 1239.69 711.817 L 1175.87 711.62 C 1170.28 711.599 1155.55 710.168 1151.6 712.566 C 1150.98 712.258 1145.04 707.536 1144.1 706.808 z" fill="rgb(30,155,162)" fill-opacity="0.988235" transform="translate(0,0)"></path>
<path d="M 1163.8 854.199 C 1165.73 854.323 1169.18 855 1170.97 855.795 C 1175.52 857.832 1179.08 861.591 1180.87 866.249 C 1185.2 877.841 1177.86 886.652 1167.27 890.495 C 1162.48 890.267 1159.08 890.326 1154.95 887.719 C 1150.86 885.109 1148.01 880.944 1147.06 876.185 C 1146.06 871.32 1147.07 866.259 1149.84 862.141 C 1153.61 856.598 1157.56 855.415 1163.8 854.199 z" fill="rgb(252,252,252)" fill-opacity="0.984314" transform="translate(0,0)"></path>
<path d="M 1368.87 871.618 C 1369.92 869.932 1370.57 868.682 1371.46 866.909 C 1363.31 847.951 1351.72 830.74 1342.34 814.112 C 1336.15 803.132 1281.34 718.253 1282.32 714.329 L 1286.07 714.395 C 1289.94 718.826 1295.71 729.21 1299.38 734.863 C 1317.55 762.865 1334.99 792.603 1351.84 821.386 C 1356.35 829.094 1374.43 858.176 1376.84 864.64 C 1372.87 868.143 1375.79 869.305 1368.87 871.618 z" fill="rgb(26,140,151)" fill-opacity="0.988235" transform="translate(0,0)"></path>
<path d="M 1012.26 974.438 C 1019.13 968.88 1021.03 963.66 1029.84 964.402 C 1034.73 964.815 1038.72 967.503 1041.65 971.361 C 1044.95 975.735 1046.32 981.264 1045.44 986.67 C 1044.76 990.836 1043.53 992.049 1040.92 995.205 L 1040.5 995.731 C 1037.23 993.491 1020.4 994.044 1016.01 994.905 C 1012.16 990.794 1011.61 988.822 1011.79 983.086 C 1011.91 980.201 1012.06 977.318 1012.26 974.438 z" fill="rgb(39,69,107)" fill-opacity="0.65098" transform="translate(0,0)"></path>
<path d="M 1521.05 422.192 C 1524.3 422.498 1524.7 422.035 1527.18 423.762 C 1532.35 430.009 1534.93 428.396 1539.74 437.987 C 1553.04 464.522 1606.83 517.219 1608.67 545.176 L 1607.51 547.153 C 1603.51 545.307 1604.06 535.744 1598.36 528.516 L 1597.52 524.583 C 1594.58 522.555 1593.9 523.268 1589.74 523.244 C 1591.03 522.414 1591.23 521.799 1592.05 520.483 C 1590.94 512.81 1530.12 437.709 1521.05 422.192 z" fill="rgb(30,155,162)" transform="translate(0,0)"></path>
<path d="M 1517.34 411.283 C 1521.93 416.714 1525.15 416.934 1532.22 418.062 C 1545.65 420.206 1555.28 394.075 1567.29 406.219 C 1570.18 409.317 1571.44 413.181 1571.17 417.233 C 1570.92 421.627 1568.94 425.743 1565.66 428.683 C 1553.34 439.807 1547.4 413.358 1527.18 423.762 C 1524.7 422.035 1524.3 422.498 1521.05 422.192 L 1518.97 420.16 L 1517.92 418.623 C 1518.15 415.474 1517.87 414.343 1517.34 411.283 z M 1558.11 425.264 C 1561.5 420.236 1563.62 416.384 1558.95 411.416 C 1556.77 410.772 1555.97 410.431 1553.72 410.365 C 1551.27 415.661 1549.13 422.199 1554.5 426.276 L 1558.11 425.264 z" fill="url(#Gradient1)" transform="translate(0,0)"></path>
<path d="M 1553.72 410.365 C 1555.97 410.431 1556.77 410.772 1558.95 411.416 C 1563.62 416.384 1561.5 420.236 1558.11 425.264 L 1554.5 426.276 C 1549.13 422.199 1551.27 415.661 1553.72 410.365 z" fill="rgb(37,116,137)" fill-opacity="0.85098" transform="translate(0,0)"></path>
<path d="M 429.017 709.827 L 518.568 709.839 C 531.043 709.837 554.267 709.162 565.954 710.194 C 568.878 710.199 572.44 710.322 575.297 710.019 L 672.984 709.816 C 685.929 710.691 701.101 709.368 713.602 710.831 C 710.115 712.84 657.926 712.093 650.355 712.133 L 514.52 711.999 C 482.052 711.716 440.685 713.649 408.973 711.486 C 412.884 709.834 424.231 709.905 429.017 709.827 z" fill="rgb(252,252,252)" fill-opacity="0.980392" transform="translate(0,0)"></path>
<path d="M 1067.32 267.215 C 1083.64 266.674 1089.72 269.889 1105.33 273.849 C 1149.36 285.02 1189.47 303.931 1223.33 334.627 C 1231.05 341.633 1231.76 345.043 1238.25 351.818 C 1234.69 351.11 1227.26 343.077 1223.29 339.858 C 1208.4 327.804 1195.36 316.251 1178.48 306.924 C 1149.78 291.205 1119.13 279.368 1087.31 271.723 C 1083.47 270.838 1069.35 268.57 1067.32 267.215 z" fill="rgb(14,35,71)" fill-opacity="0.94902" transform="translate(0,0)"></path>
<path d="M 440.321 590.632 C 435.402 586.661 433.675 579.931 436.075 574.082 C 438.475 568.234 444.432 564.656 450.722 565.285 C 457.013 565.914 462.143 570.6 463.338 576.808 C 464.176 581.164 462.945 585.662 460.005 588.984 C 454.939 594.707 446.268 595.434 440.321 590.632 z" fill="rgb(123,159,141)" fill-opacity="0.980392" transform="translate(0,0)"></path>
<path d="M 1007.35 167.926 C 1016.35 164.091 1010.06 156.976 1018.28 151.75 C 1025.79 153.034 1027.37 162.591 1032.63 166.484 C 1033.68 167.257 1034 168.071 1034.54 169.181 C 1030.52 168.734 1027.7 168.131 1023.82 169.262 L 1021.97 170.918 C 1023.85 178.527 1036.41 179.165 1036.52 170.282 L 1038.66 171.658 C 1040.3 179.648 1035.6 181.097 1028.9 180.766 L 1027.53 181.852 C 1029.24 183.339 1029.22 183.199 1031.56 183.421 C 1026.31 188.591 1022.69 193.724 1015.1 190.486 C 1011.98 185.592 1014.92 183.022 1013.09 181.095 C 1009.44 177.247 999.831 178.522 999.747 172.098 C 1004.13 176.034 1014.67 179.569 1015.02 171.461 C 1012.08 168.289 1012.29 169.151 1007.35 167.926 z M 1020.54 168.643 C 1022.87 163.308 1024.03 156.362 1016.94 154.178 C 1015.04 159.608 1012.4 167.257 1020.54 168.643 z" fill="rgb(14,35,71)" fill-opacity="0.94902" transform="translate(0,0)"></path>
<path d="M 1017.98 175.674 C 1024.58 178.804 1023.51 185.723 1020.53 191.182 C 1013.38 188.397 1014.41 180.958 1017.98 175.674 z" fill="rgb(252,252,252)" transform="translate(0,0)"></path>
<path d="M 1016.94 154.178 C 1024.03 156.362 1022.87 163.308 1020.54 168.643 C 1012.4 167.257 1015.04 159.608 1016.94 154.178 z" fill="rgb(252,252,252)" fill-opacity="0.988235" transform="translate(0,0)"></path>
<path d="M 1270.8 433.193 C 1273.16 435.193 1275.3 439.733 1275.66 442.853 L 1273.12 446.86 L 1272.67 448.118 C 1271.16 448.821 1269.66 449.556 1268.18 450.321 C 1257.99 455.642 1224.78 513.059 1210.25 519.601 L 1208.86 519.969 C 1209.08 518.425 1209.49 516.608 1209.81 515.051 C 1215.9 509.21 1260.68 450.12 1262.96 443.994 L 1262.5 441.15 C 1263.7 438.022 1267.98 435.322 1270.8 433.193 z" fill="rgb(26,140,151)" transform="translate(0,0)"></path>
<path d="M 1270.8 433.193 C 1273.16 435.193 1275.3 439.733 1275.66 442.853 L 1273.12 446.86 L 1272.67 448.118 C 1262.57 447.567 1267.67 447.318 1262.96 443.994 L 1262.5 441.15 C 1263.7 438.022 1267.98 435.322 1270.8 433.193 z" fill="rgb(30,155,162)" transform="translate(0,0)"></path>
<path d="M 1811.84 386.495 C 1816.68 385.023 1821.95 386.27 1825.61 389.759 C 1829.28 393.249 1830.79 398.441 1829.56 403.352 C 1828.33 408.262 1824.55 412.132 1819.67 413.482 C 1815.62 414.604 1811.28 413.852 1807.84 411.433 C 1804.4 409.014 1802.23 405.182 1801.91 400.989 C 1801.42 394.43 1805.55 388.407 1811.84 386.495 z" fill="rgb(252,252,252)" transform="translate(0,0)"></path>
<path d="M 863.628 942.443 C 864.832 934.053 863.06 926.869 865.754 917.679 C 865.475 922.828 864.291 932.3 866.91 936.383 C 869.111 937.548 869.438 937.324 872.041 936.943 C 876.23 941.369 888.89 941.95 895.793 943.631 C 890.641 942.772 884.098 940.992 879.7 943.778 C 878.616 946.578 878.591 945.411 879.77 948.134 C 883.941 950.304 888.333 948.532 893.704 949.251 L 893.145 950.989 C 886.185 952.699 881.548 949.349 875.091 955.018 C 873.863 957.621 873.863 958.207 873.386 961.095 C 872.536 956.705 873.293 957.091 870.607 954.287 C 864.111 954.561 861.608 974.987 872.198 973.323 L 870.099 974.791 C 867.004 975.03 868.117 975.405 865.972 973.601 C 864.018 968.142 864.352 959.727 864.813 953.98 C 857.276 952.401 848.037 951.473 842.76 945.968 L 842.977 944.233 C 848.473 940.333 856.971 941.909 863.628 942.443 z" fill="rgb(14,35,71)" fill-opacity="0.976471" transform="translate(0,0)"></path>
<path d="M 1712.58 573.241 C 1733.85 572.902 1769.12 572.323 1789.94 573.933 L 1797.15 574.857 C 1792.18 575.999 1786.56 576.186 1782.61 577.339 C 1736.62 577.314 1686.99 578.515 1641.36 577.086 L 1641.55 575.919 C 1644.88 571.842 1701.63 576.069 1712.58 573.241 z" fill="rgb(26,140,151)" transform="translate(0,0)"></path>
<path d="M 429.364 604.797 L 431.655 606.87 C 428.685 609.676 427.673 611.057 426.143 615.002 C 419.721 627.684 378.174 679.501 367.184 687.214 C 367.175 679.446 376.084 670.436 381.316 664.263 C 396.346 646.53 413.136 620.45 429.364 604.797 z" fill="rgb(26,140,151)" transform="translate(0,0)"></path>
<path d="M 712.531 269.323 C 717.356 271.112 725.111 268.757 736.127 270.576 C 736.908 278.757 737.115 282.519 736.045 290.937 C 727.791 299.075 723.953 303.98 713.717 294.311 C 719.268 289.478 721.188 294.172 726.619 290.517 L 723.653 289.666 C 719.047 284.888 721.888 276.547 715.654 274.525 C 713.092 276.021 712.266 276.802 710.051 278.798 C 709.435 276.147 711.428 272.349 712.531 269.323 z" fill="rgb(39,69,107)" fill-opacity="0.0156863" transform="translate(0,0)"></path>
<path d="M 430.141 293.808 C 433.557 293.409 435.848 293.179 438.543 295.23 C 437.682 299.471 431.264 300.785 432.247 305.637 C 438.12 309.385 442.538 303.764 448.755 310.382 C 445.169 311.58 443.652 310.691 440.33 313.251 C 441.442 316.867 444.962 317.273 448.434 316.757 C 450.849 316.398 451.505 314.32 452.733 312.336 L 453.781 312.821 C 453.814 318.682 450.641 319.616 445.485 319.986 L 444.448 320.055 C 441.315 322.896 442.253 322.283 441.477 327.447 C 439.374 331.285 437.82 335.119 432.922 334.839 C 429.131 330.742 430.594 324.456 426.865 320.25 L 425.809 320.038 C 421.981 319.251 415.768 317.832 413.561 314.464 C 416.268 313.786 420.872 317.59 426.679 317.457 C 429.495 315.914 428.532 316.824 430.111 313.433 C 428.488 309.836 427.716 312.86 424.929 310.032 C 432.176 301.904 427.472 303.124 430.141 293.808 z" fill="rgb(14,35,71)" fill-opacity="0.976471" transform="translate(0,0)"></path>
<path d="M 1394.42 292.758 L 1401.17 290.929 C 1399.25 293.113 1396.19 296.151 1396.81 299.061 C 1398.76 308.326 1397.61 324.414 1399.9 332.914 C 1404.47 349.968 1403.3 368.007 1406.25 384.44 L 1405.06 386.304 L 1403.66 385.863 C 1401.88 381.688 1401.27 372.47 1400.4 367.39 L 1399.97 372.527 C 1397.89 362.152 1390.58 307.873 1391.67 298.775 L 1394.02 297.239 L 1394.42 292.758 z" fill="rgb(39,69,107)" fill-opacity="0.603922" transform="translate(0,0)"></path>
<path d="M 1006.56 371.852 L 1015.11 371.989 L 1015.45 372.999 C 985.908 375.49 959.969 380.099 932.269 391.225 C 926.058 393.719 894.893 407.978 890.156 407.197 L 889.946 407.72 C 894.833 401.486 926.392 387.424 934.528 384.658 C 957.809 376.986 982.065 372.674 1006.56 371.852 z" fill="rgb(14,35,71)" fill-opacity="0.909804" transform="translate(0,0)"></path>
<path d="M 448.397 631.911 C 452.533 633.973 466.153 633.213 472.037 634.037 C 467.433 634.585 459.795 635.124 456.111 637.602 C 453.076 646.975 494.473 694.355 494.655 702.548 L 492.921 703.008 C 484.888 698.437 444.982 641.393 448.397 631.911 z" fill="rgb(37,116,137)" fill-opacity="0.988235" transform="translate(0,0)"></path>
<path d="M 775.707 449.02 L 776.998 451.971 L 777.108 453.204 C 775.248 460.764 744.286 511.746 738.125 518.782 C 738.916 520.547 739.403 520.962 740.644 522.375 C 737.142 522.277 738.526 522.654 735.396 520.741 C 737.574 503.843 763.493 471.584 771.526 454.853 C 772.765 452.271 773.409 450.858 775.707 449.02 z" fill="rgb(37,116,137)" fill-opacity="0.988235" transform="translate(0,0)"></path>
<path d="M 1026.13 810.732 C 1027.24 806.1 1025.69 801.201 1025.8 796.068 C 1025.96 788.985 1024.33 780.937 1023.05 773.967 C 1023.32 773.758 1023.59 773.548 1023.85 773.339 C 1025.23 772.275 1028.15 772.214 1029.95 772.065 C 1033.57 776.781 1031.87 780.995 1031.11 786.369 C 1030.27 792.198 1028.69 798.509 1028.52 804.428 C 1028.41 808.386 1030.91 811.631 1031.15 815.527 C 1031.61 829.207 1031.5 843.023 1030.87 856.702 C 1030.61 862.434 1030.76 870.516 1029.84 875.94 L 1028.01 876.729 L 1027.26 881.108 C 1027.18 874.146 1027.4 866.827 1027.51 859.834 C 1027.82 851.4 1029.4 816.181 1026.13 810.732 z" fill="rgb(39,69,107)" fill-opacity="0.180392" transform="translate(0,0)"></path>
<path d="M 248.96 612.762 C 245.938 608.75 239.638 602.393 238.026 599.092 C 240.487 599.431 241.894 601.058 243.876 602.723 C 261.12 621.665 279.428 640.001 296.954 658.677 C 304.277 666.481 314.503 676.231 321.26 684.144 C 323.041 686.154 327.002 690.029 327.303 692.417 L 326.875 693.698 C 323.894 691.673 309.752 676.647 306.191 672.96 L 248.96 612.762 z" fill="rgb(252,252,252)" transform="translate(0,0)"></path>
<path d="M 1549.45 852.189 C 1551.81 852.681 1551.95 852.651 1553.63 854.268 C 1555.63 857.981 1555.19 863.261 1555.22 867.615 L 1555.79 867.617 C 1560.82 867.668 1565.78 866.505 1568.73 871 L 1567.51 872.749 C 1563.77 874.893 1559.47 874.241 1555.11 874.045 C 1555.14 879.197 1555.54 885.239 1554.08 890.083 C 1551.43 889.909 1551.33 889.925 1549.4 888.249 C 1547.72 884.402 1548.64 878.358 1548.94 873.966 C 1543.91 873.935 1538.28 874.856 1534.93 870.746 L 1535.84 869.128 C 1539.24 867.064 1544.53 867.721 1548.67 867.826 C 1548.72 862.465 1548.62 857.51 1549.45 852.189 z" fill="rgb(252,252,252)" fill-opacity="0.988235" transform="translate(0,0)"></path>
<path d="M 1631.19 620.265 L 1632.86 618.714 C 1636.38 620.028 1636.94 621.861 1639.63 624.122 C 1646.65 633.385 1678.34 675.838 1684.88 680.489 L 1683.83 683.521 L 1682.14 684.225 C 1677.13 680.197 1633.13 625.081 1631.19 620.265 z" fill="rgb(30,155,162)" transform="translate(0,0)"></path>
<path d="M 1583.74 313.723 C 1586.4 314.146 1592.67 315.348 1594.44 313.932 C 1605.48 305.094 1610.19 314.293 1623.96 308.126 C 1632.77 311.44 1627.92 310.46 1633.24 315.96 C 1622.85 319.205 1622.07 317.993 1616.15 326.997 C 1614.99 322.949 1615.71 323.34 1613.02 320.647 C 1607.31 321.781 1608.52 335.756 1609.32 340.111 C 1606.51 335.693 1607.39 327.626 1607.91 322.539 C 1603.8 313.56 1591.36 318.295 1583.74 313.723 z" fill="rgb(14,35,71)" fill-opacity="0.752941" transform="translate(0,0)"></path>
<path d="M 773.721 709.984 C 786.61 709.893 878.216 708.961 880.836 710.536 C 876.209 713.496 807.327 712.301 796.513 712.219 C 774.098 711.135 743.478 713.589 722.288 711.35 C 725.382 709.201 766.29 710.073 773.721 709.984 z" fill="rgb(252,252,252)" fill-opacity="0.960784" transform="translate(0,0)"></path>
<path d="M 712.531 269.323 C 721.9 261.492 734.503 265.948 744.139 270.267 C 743.509 276.629 742.631 283.797 742.365 290.121 L 733.057 299.723 L 724.071 302.395 C 721.01 301.398 717.851 300.659 714.726 299.878 C 713.545 296.689 712.534 297.144 712.412 293.566 L 713.717 294.311 C 723.953 303.98 727.791 299.075 736.045 290.937 C 737.115 282.519 736.908 278.757 736.127 270.576 C 725.111 268.757 717.356 271.112 712.531 269.323 z" fill="rgb(39,69,107)" fill-opacity="0.823529" transform="translate(0,0)"></path>
<path d="M 775.707 449.02 C 773.014 441.215 755.217 440.118 748.589 437.684 C 728.38 430.264 690.661 427.478 673.174 418.321 C 688.442 421.303 704.878 425.206 720.213 427.996 C 730.805 429.923 773.57 443.588 779.837 438.075 L 782.853 438.683 C 780.913 444.702 780.328 446.681 776.998 451.971 L 775.707 449.02 z" fill="rgb(47,56,123)" fill-opacity="0.87451" transform="translate(0,0)"></path>
<path d="M 1607.83 295.261 L 1608.54 299.169 C 1611.73 308.152 1630.68 306.38 1638.29 307.669 C 1633.8 307.97 1628.52 307.99 1623.96 308.126 C 1610.19 314.293 1605.48 305.094 1594.44 313.932 C 1592.67 315.348 1586.4 314.146 1583.74 313.723 C 1580.95 312.105 1581.32 312.874 1580.16 310.424 C 1583.5 305.756 1597.16 304.304 1603.44 303.073 C 1604.92 300.175 1606.14 298.031 1607.83 295.261 z" fill="rgb(14,35,71)" fill-opacity="0.984314" transform="translate(0,0)"></path>
<path d="M 255.367 576.502 C 257.508 577.237 258.47 577.746 260.695 577.702 C 269.703 577.935 277.998 578.247 287.014 577.601 C 294.405 578.23 337.192 579.157 341.782 576.36 C 347.441 579.837 408.311 578.602 418.069 577.513 L 418.576 580.659 C 412.443 579.175 405.028 579.264 398.698 579.021 C 359.405 577.518 320.5 582.187 281.166 580.255 C 269.859 579.699 257.968 580.554 246.762 579.21 C 249.676 577.554 250.718 579.361 255.367 576.502 z" fill="rgb(14,35,71)" fill-opacity="0.968627" transform="translate(0,0)"></path>
<path d="M 476.014 585.623 L 480.514 586.502 C 483.06 591.048 477.693 594.209 476.52 600.176 C 474.238 602.858 463.364 615.574 461.026 617.31 L 460.409 614.815 C 458.27 612.49 457.533 613.221 453.49 612.948 C 457.3 608.233 460.407 604.069 463.931 599.168 C 464.514 598.792 466.279 596.693 466.858 596.042 L 476.014 585.623 z" fill="rgb(14,35,71)" fill-opacity="0.85098" transform="translate(0,0)"></path>
<path d="M 829.983 223.42 C 841.651 219.907 852.371 213.401 863.7 209.609 C 884.818 202.542 907.964 197.581 928.823 190.183 L 930.001 191.717 L 930.179 191.5 L 929.199 191.974 C 921.156 195.798 912.671 197.083 904.203 199.358 C 878.381 206.294 854.529 217.192 830.448 228.553 C 831.448 225.645 831.342 226.856 829.983 223.42 z" fill="rgb(14,35,71)" fill-opacity="0.866667" transform="translate(0,0)"></path>
<path d="M 482.368 559.956 C 487.326 565.029 493.349 571.502 498.505 576.159 C 492.18 583.095 482.983 593.938 476.52 600.176 C 477.693 594.209 483.06 591.048 480.514 586.502 L 476.014 585.623 L 484.792 576.366 L 485.996 573.976 C 485.693 569.195 483.879 564.528 482.368 559.956 z" fill="rgb(14,35,71)" fill-opacity="0.980392" transform="translate(0,0)"></path>
<path d="M 455.31 531.174 C 463.113 538.838 470.718 546.7 478.119 554.753 C 477.003 558.405 477.652 558.437 474.96 560.444 C 470.352 559.559 469.69 557.272 466.187 556.119 C 463.11 554.435 456.814 545.751 451.345 542.587 C 453.894 539.658 453.776 540.383 457.97 539.018 L 458.503 537.607 L 455.31 531.174 z" fill="rgb(14,35,71)" fill-opacity="0.807843" transform="translate(0,0)"></path>
<path d="M 551.613 671.966 C 551.912 669.917 550.141 667.353 549.453 664.173 L 551.063 662.124 C 557.836 670.3 569.264 698.266 575.297 710.019 C 572.44 710.322 568.878 710.199 565.954 710.194 C 566.36 709.915 566.488 709.855 566.861 709.437 C 571.448 704.296 552.731 679.809 551.613 671.966 z" fill="rgb(30,155,162)" fill-opacity="0.988235" transform="translate(0,0)"></path>
<path d="M 816.909 230.61 C 819.111 230.507 820.7 230.466 822.902 230.545 L 823.702 231.917 C 808.902 239.348 796.025 251.194 779.585 259.082 L 779.852 258.744 L 774.113 260.822 L 774.505 259.591 C 779.34 255.178 811.584 232.981 816.909 230.61 z" fill="rgb(14,35,71)" fill-opacity="0.870588" transform="translate(0,0)"></path>
<path d="M 460.005 588.984 C 464.309 590.942 464.731 591.498 466.858 596.042 C 466.279 596.693 464.514 598.792 463.931 599.168 L 460.623 599.282 L 459.945 600.027 C 452.06 608.562 442.856 606.841 433.018 603.027 C 432.697 600.535 433.902 598.907 435.074 596.566 L 434.074 594.002 C 437.938 594.953 436.9 594.171 439.17 596.593 C 437.154 597.903 436.059 598.327 434.926 600.353 C 437.979 604.808 449.846 602.981 454.141 600.161 L 454.253 598.541 C 450.669 595.027 445.753 594.906 441.081 594.872 L 440.321 590.632 C 446.268 595.434 454.939 594.707 460.005 588.984 z" fill="rgb(37,116,137)" fill-opacity="0.913725" transform="translate(0,0)"></path>
<path d="M 1325.19 706.867 C 1326.14 703.039 1329.58 700.353 1333.52 700.366 C 1337.46 700.379 1340.89 703.087 1341.81 706.921 C 1342.49 709.763 1341.67 712.757 1339.64 714.859 C 1337.5 717.075 1334.33 717.966 1331.34 717.191 C 1328.36 716.416 1326.02 714.096 1325.23 711.117 C 1324.86 709.726 1324.85 708.264 1325.19 706.867 z" fill="rgb(252,252,252)" transform="translate(0,0)"></path>
<path d="M 433.018 603.027 C 442.856 606.841 452.06 608.562 459.945 600.027 L 460.623 599.282 L 463.931 599.168 C 460.407 604.069 457.3 608.233 453.49 612.948 C 446.264 613.283 441.614 611.334 434.799 608.916 L 426.143 615.002 C 427.673 611.057 428.685 609.676 431.655 606.87 C 431.994 606.242 432.741 603.846 433.018 603.027 z" fill="rgb(37,116,137)" fill-opacity="0.976471" transform="translate(0,0)"></path>
<path d="M 419.695 583.518 C 433.449 588.219 428.351 590.754 434.074 594.002 L 435.074 596.566 C 433.902 598.907 432.697 600.535 433.018 603.027 C 432.741 603.846 431.994 606.242 431.655 606.87 L 429.364 604.797 C 422.141 599.06 419.79 592.39 419.695 583.518 z" fill="rgb(37,116,137)" transform="translate(0,0)"></path>
<path d="M 463.338 576.808 C 464.001 579.101 464.33 579.281 465.947 581.133 C 472.597 582.952 476.294 576.814 482.898 574.14 L 484.792 576.366 L 476.014 585.623 L 466.858 596.042 C 464.731 591.498 464.309 590.942 460.005 588.984 C 462.945 585.662 464.176 581.164 463.338 576.808 z" fill="rgb(37,116,137)" fill-opacity="0.960784" transform="translate(0,0)"></path>
<path d="M 1602.79 605.611 C 1606.15 605.703 1610.94 605.328 1613.35 607.244 C 1614.43 610.164 1613.5 612.102 1612.69 615.205 C 1609.73 624.846 1605.16 637.581 1599.48 646.028 C 1599.98 641.698 1601.2 640.368 1602.26 636.056 C 1600.6 632.962 1600.63 633.705 1596.93 631.821 L 1598.51 629.582 C 1599.34 626.48 1597.66 623.993 1596.23 621.089 C 1601.2 624.37 1603.18 625.707 1607.45 629.778 C 1607.73 623.019 1609.72 616.344 1608.68 610.141 C 1608.24 607.459 1605.34 606.781 1602.79 605.611 z" fill="rgb(14,35,71)" fill-opacity="0.976471" transform="translate(0,0)"></path>
<path d="M 551.613 671.966 C 547.168 669.491 534.959 642.42 536.515 638.808 C 542.494 636.487 549.576 657.459 551.063 662.124 L 549.453 664.173 C 550.141 667.353 551.912 669.917 551.613 671.966 z" fill="rgb(24,93,107)" fill-opacity="0.984314" transform="translate(0,0)"></path>
<path d="M 1563 582.4 C 1560.6 580.949 1557.92 578.635 1557 575.914 C 1557.56 572.302 1557.48 573.275 1560.14 570.157 C 1561.14 574.634 1560.3 574.276 1563.22 576.635 C 1570.28 578.369 1577.29 576.657 1584.41 574.879 C 1585.92 577.902 1585.44 583.612 1585.27 587.186 C 1582.19 574.208 1574.74 584.896 1568.54 584.235 C 1568.04 582.344 1568.03 581.901 1566.76 580.342 L 1564.63 580.431 L 1563 582.4 z" fill="rgb(37,116,137)" transform="translate(0,0)"></path>
<path d="M 343.1 575.964 C 354.076 575.877 411.091 574.402 417.637 576.466 L 418.069 577.513 C 408.311 578.602 347.441 579.837 341.782 576.36 L 343.1 575.964 z" fill="rgb(252,252,252)" fill-opacity="0.988235" transform="translate(0,0)"></path>
<path d="M 478.119 554.753 L 482.368 559.956 C 483.879 564.528 485.693 569.195 485.996 573.976 L 484.792 576.366 L 482.898 574.14 C 477.286 568.172 471.715 562.165 466.187 556.119 C 469.69 557.272 470.352 559.559 474.96 560.444 C 477.652 558.437 477.003 558.405 478.119 554.753 z" fill="rgb(14,35,71)" fill-opacity="0.878431" transform="translate(0,0)"></path>
<path d="M 1027.26 881.108 L 1028.01 876.729 L 1029.84 875.94 C 1030.39 883.265 1028.28 889.21 1029.59 896.554 C 1030.5 901.667 1029.2 926.999 1026.41 930.877 C 1025.72 927.067 1025.27 921.352 1026.06 917.597 C 1028 911.143 1027.33 888.456 1027.26 881.108 z" fill="rgb(39,69,107)" fill-opacity="0.113725" transform="translate(0,0)"></path>
<path d="M 865.754 917.679 C 869.63 916.522 868.287 916.335 871.242 917.678 C 873.471 922.069 872.323 931.613 872.041 936.943 C 869.438 937.324 869.111 937.548 866.91 936.383 C 864.291 932.3 865.475 922.828 865.754 917.679 z" fill="rgb(252,252,252)" transform="translate(0,0)"></path>
<path d="M 872.198 973.323 C 861.608 974.987 864.111 954.561 870.607 954.287 C 873.293 957.091 872.536 956.705 873.386 961.095 C 872.571 966.011 872.301 968.359 872.198 973.323 z" fill="rgb(252,252,252)" transform="translate(0,0)"></path>
<path d="M 1609.32 340.111 C 1608.52 335.756 1607.31 321.781 1613.02 320.647 C 1615.71 323.34 1614.99 322.949 1616.15 326.997 C 1616.18 330.671 1616.74 335.674 1614.59 338.429 C 1612.19 339.527 1611.9 339.698 1609.32 340.111 z" fill="rgb(252,252,252)" transform="translate(0,0)"></path>
<path d="M 689.301 870.462 C 689.383 878.124 692.649 882.838 686.475 888.752 C 684.445 884.372 681.748 885.758 678.998 878.261 C 682.297 875.996 686.073 872.938 689.301 870.462 z" fill="rgb(14,35,71)" fill-opacity="0.027451" transform="translate(0,0)"></path>
<path d="M 441.081 594.872 C 445.753 594.906 450.669 595.027 454.253 598.541 L 454.141 600.161 C 449.846 602.981 437.979 604.808 434.926 600.353 C 436.059 598.327 437.154 597.903 439.17 596.593 L 441.081 594.872 z" fill="rgb(37,116,137)" fill-opacity="0.847059" transform="translate(0,0)"></path>
<path d="M 1607.83 295.261 C 1607.78 291.563 1607.27 288.307 1609.41 285.383 L 1611.68 284.064 C 1616.88 285.795 1617.85 290.42 1615.59 295.315 C 1614.31 298.09 1611.3 298.339 1608.54 299.169 L 1607.83 295.261 z" fill="rgb(252,252,252)" transform="translate(0,0)"></path>
<path d="M 1026.01 853.382 C 1026.39 854.97 1027.32 858.385 1027.51 859.834 C 1027.4 866.827 1027.18 874.146 1027.26 881.108 C 1027.33 888.456 1028 911.143 1026.06 917.597 C 1025.02 894.28 1025.5 876.684 1026.01 853.382 z" fill="rgb(14,35,71)" fill-opacity="0.572549" transform="translate(0,0)"></path>
<path d="M 644.137 309.412 C 644.716 304.821 643.896 306.377 646.995 303.408 C 650.802 302.609 649.236 302.487 652.909 303.927 C 654.593 306.017 654.857 306.145 655.265 308.7 C 654.14 312.206 653.604 314.844 652.867 318.432 C 650.477 313.416 649.763 312.478 645.076 309.918 L 644.137 309.412 z" fill="rgb(14,35,71)" fill-opacity="0.0980392" transform="translate(0,0)"></path>
<path d="M 1036.52 170.282 C 1036.41 179.165 1023.85 178.527 1021.97 170.918 L 1023.82 169.262 C 1027.7 168.131 1030.52 168.734 1034.54 169.181 L 1036.52 170.282 z" fill="rgb(252,252,252)" fill-opacity="0.988235" transform="translate(0,0)"></path>
<path d="M 1007.35 167.926 C 1012.29 169.151 1012.08 168.289 1015.02 171.461 C 1014.67 179.569 1004.13 176.034 999.747 172.098 C 1002.93 169.41 1003.37 169.124 1007.35 167.926 z" fill="rgb(252,252,252)" transform="translate(0,0)"></path>
<path d="M 650.077 296.18 C 652.297 296.296 654.921 296.361 657.093 296.589 L 652.982 297.624 L 654.123 297.192 L 653.455 298.063 C 655.835 301.21 658.717 304.562 655.265 308.7 C 654.857 306.145 654.593 306.017 652.909 303.927 C 649.236 302.487 650.802 302.609 646.995 303.408 C 643.896 306.377 644.716 304.821 644.137 309.412 L 642.433 307.563 C 640.709 300.162 646.429 304.307 650.077 296.18 z" fill="rgb(14,35,71)" fill-opacity="0.0313725" transform="translate(0,0)"></path>
<path d="M 1026.13 810.732 C 1029.4 816.181 1027.82 851.4 1027.51 859.834 C 1027.32 858.385 1026.39 854.97 1026.01 853.382 C 1025.24 847.557 1025.75 817.43 1026.13 810.732 z" fill="rgb(47,56,123)" fill-opacity="0.352941" transform="translate(0,0)"></path>
<path d="M 707.088 300.983 L 714.726 299.878 C 717.851 300.659 721.01 301.398 724.071 302.395 C 722.217 305.267 720.87 307.053 718.773 309.709 L 707.088 300.983 z" fill="rgb(14,35,71)" fill-opacity="0.0196078" transform="translate(0,0)"></path>
<path d="M 782.853 438.683 C 785.292 442.012 788.568 446.794 791.136 449.844 C 785.012 449.849 782.784 450.767 777.108 453.204 L 776.998 451.971 C 780.328 446.681 780.913 444.702 782.853 438.683 z" fill="rgb(14,35,71)" transform="translate(0,0)"></path>
<path d="M 1016.01 994.905 C 1020.4 994.044 1037.23 993.491 1040.5 995.731 C 1034.1 999.974 1022.1 1000.06 1016.01 994.905 z" fill="rgb(39,69,107)" fill-opacity="0.894118" transform="translate(0,0)"></path>
<path d="M 905.731 699.335 L 907.401 702.369 L 906.548 704.045 C 902.965 707.58 901.702 709.032 897.327 711.398 L 895.008 708.896 C 896.023 706.876 903.521 701.147 905.731 699.335 z" fill="rgb(163,235,234)" transform="translate(0,0)"></path>
<path d="M 1638.29 307.669 C 1639.84 311.184 1639.83 309.841 1638.91 312.922 C 1636.51 314.605 1635.98 314.917 1633.24 315.96 C 1627.92 310.46 1632.77 311.44 1623.96 308.126 C 1628.52 307.99 1633.8 307.97 1638.29 307.669 z" fill="rgb(252,252,252)" transform="translate(0,0)"></path>
<path d="M 423.051 564.753 C 425.646 560.98 427.763 557.322 431.622 554.851 C 433.848 560.256 433.715 561.506 430.563 566.424 L 423.051 564.753 z" fill="rgb(37,116,137)" transform="translate(0,0)"></path>
<path d="M 816.909 230.61 L 829.983 223.42 C 831.342 226.856 831.448 225.645 830.448 228.553 C 828.635 229.519 825.525 231.305 823.702 231.917 L 822.902 230.545 C 820.7 230.466 819.111 230.507 816.909 230.61 z" fill="rgb(14,35,71)" fill-opacity="0.760784" transform="translate(0,0)"></path>
<path d="M 1015.11 371.989 C 1024.5 371.848 1039.68 372.53 1048.02 371.94 C 1050.86 371.997 1056.37 371.939 1058.92 372.546 C 1057.15 373.138 1019.54 373.286 1015.45 372.999 L 1015.11 371.989 z" fill="rgb(14,35,71)" fill-opacity="0.694118" transform="translate(0,0)"></path>
<path d="M 260.695 577.702 C 268.723 574.988 279.096 574.394 287.014 577.601 C 277.998 578.247 269.703 577.935 260.695 577.702 z" fill="rgb(252,252,252)" fill-opacity="0.682353" transform="translate(0,0)"></path>
<path d="M 1239.04 824.697 L 1239.98 825.167 L 1240.01 826.292 C 1236.14 829.83 1231.05 833.065 1226.66 836.052 L 1225.67 835.553 C 1227.18 832.134 1235.47 827.168 1239.04 824.697 z" fill="rgb(14,35,71)" fill-opacity="0.0470588" transform="translate(0,0)"></path>
<path d="M 1006.56 371.852 C 1016.87 370.215 1037.48 370.569 1048.02 371.94 C 1039.68 372.53 1024.5 371.848 1015.11 371.989 L 1006.56 371.852 z" fill="rgb(14,35,71)" fill-opacity="0.270588" transform="translate(0,0)"></path>
<path d="M 419.948 567.571 L 423.051 564.753 L 430.563 566.424 C 422.265 567.763 424.492 571.146 421.081 569.807 L 419.948 567.571 z" fill="rgb(37,116,137)" fill-opacity="0.921569" transform="translate(0,0)"></path>
<metadata><recraft-signature>{"signed_by": "recraft", "signature_b64": "E2cV9X8HM8DNvO8UF2p8WnUOLryBUe1M3Xm8a9q7YprMMZl1u2gT4PCsEsxcjypLdo290XVtglc/ew7852q/Bg==", "signing_algo": "Ed25519", "generation_timestamp": 1778163512, "identifier": "4d6b0470-b86c-4b53-b949-e14f2bd32a7f"}</recraft-signature></metadata></svg>