<svg xmlns="http://www.w3.org/2000/svg" height="1024" preserveAspectRatio="none" style="display: block;" version="1.1" viewBox="0 0 2048 1152" width="1820">
<defs>
	<linearGradient gradientUnits="userSpaceOnUse" id="Gradient1" x1="1637.21" x2="1626.17" y1="188.205" y2="185.331">
		<stop class="stop0" offset="0" stop-color="rgb(233,233,232)" stop-opacity="0.890196"></stop>
		<stop class="stop1" offset="1" stop-color="rgb(240,239,238)" stop-opacity="0.941176"></stop>
	</linearGradient>
	<linearGradient gradientUnits="userSpaceOnUse" id="Gradient2" x1="860.761" x2="843.569" y1="173.35" y2="179.686">
		<stop class="stop0" offset="0" stop-color="rgb(13,32,53)" stop-opacity="0"></stop>
		<stop class="stop1" offset="1" stop-color="rgb(11,30,50)" stop-opacity="0.0352941"></stop>
	</linearGradient>
	<linearGradient gradientUnits="userSpaceOnUse" id="Gradient3" x1="967.294" x2="949.424" y1="503.85" y2="484.517">
		<stop class="stop0" offset="0" stop-color="rgb(1,23,43)" stop-opacity="0.972549"></stop>
		<stop class="stop1" offset="1" stop-color="rgb(0,36,58)" stop-opacity="1"></stop>
	</linearGradient>
	<linearGradient gradientUnits="userSpaceOnUse" id="Gradient4" x1="974.417" x2="973.603" y1="596.028" y2="636.932">
		<stop class="stop0" offset="0" stop-color="rgb(5,166,148)" stop-opacity="1"></stop>
		<stop class="stop1" offset="1" stop-color="rgb(29,131,125)" stop-opacity="1"></stop>
	</linearGradient>
	<linearGradient gradientUnits="userSpaceOnUse" id="Gradient5" x1="1033.49" x2="1034.66" y1="636.928" y2="596.019">
		<stop class="stop0" offset="0" stop-color="rgb(33,122,118)" stop-opacity="0.988235"></stop>
		<stop class="stop1" offset="1" stop-color="rgb(5,165,143)" stop-opacity="1"></stop>
	</linearGradient>
	<linearGradient gradientUnits="userSpaceOnUse" id="Gradient6" x1="1004.26" x2="1002.78" y1="612.991" y2="569.109">
		<stop class="stop0" offset="0" stop-color="rgb(13,153,140)" stop-opacity="0.988235"></stop>
		<stop class="stop1" offset="1" stop-color="rgb(2,195,171)" stop-opacity="1"></stop>
	</linearGradient>
	<linearGradient gradientUnits="userSpaceOnUse" id="Gradient7" x1="515.757" x2="1524.76" y1="670.008" y2="497.904">
		<stop class="stop0" offset="0" stop-color="rgb(0,45,56)" stop-opacity="0"></stop>
		<stop class="stop1" offset="1" stop-color="rgb(29,71,105)" stop-opacity="0.235294"></stop>
	</linearGradient>
</defs>
<path d="M 988.147 310.233 L 989.586 310.22 C 1019.26 312.259 1047.06 311.753 1076.68 311.639 L 1189.04 311.169 C 1258.97 310.955 1330.66 313.108 1400.57 312.835 C 1416.49 312.832 1418.55 315.638 1433.65 318.437 C 1436.74 319.011 1446.9 317.099 1449.64 317.948 C 1453.63 319.179 1461.73 325.511 1465.66 326.864 C 1471.18 328.766 1483.35 326.143 1487.87 330.88 C 1489.53 332.617 1490.98 337.036 1490.96 339.681 C 1487.06 347.075 1479.53 336.815 1472.35 339.035 C 1472.74 340.083 1472.62 340.182 1473.31 340.936 C 1474.6 343.419 1475.67 345.07 1478.81 345.181 C 1485.5 345.42 1484.97 345.294 1490.29 349.363 C 1493.56 346.432 1494.48 336.267 1495.18 331.484 C 1502.74 355.365 1488.8 491.97 1500.53 500.072 L 1503.51 499.159 C 1505.77 508.097 1503.85 538.586 1502.93 548.438 C 1502.03 542.034 1501.38 531.21 1497.34 526.331 L 1496.73 531.655 C 1495.78 530.564 1495.06 529.676 1494.18 528.546 C 1486.46 546.907 1490.13 562.649 1465.62 552.671 C 1465.05 552.439 1449.5 559.705 1447.21 560.736 L 1445.35 559.785 C 1445.07 565.943 1451.89 563.876 1448.88 579.432 L 1448.44 579.233 C 1448.04 564.704 1434 560.825 1427.3 573.663 C 1421.08 577.788 1340.56 572.791 1325.13 574.174 C 1321.94 574.46 1300.41 574.356 1296.45 573.95 C 1304.28 572.02 1375.47 573.019 1388.01 573.095 C 1396.11 573.02 1402.79 573.789 1408.11 567.145 C 1409.58 566.901 1411.12 566.586 1412.59 566.309 L 1412.89 564.871 L 1414.04 565.314 L 1412.94 564.425 L 1413.69 564.308 C 1408.96 562.475 1390.72 564.77 1385.13 565.347 C 1387.65 565.404 1388.51 565.382 1390.73 566.575 C 1387.73 566.855 1383.07 566.615 1379.95 566.529 C 1341.98 565.482 1303.22 566.301 1265.36 563.522 C 1266.99 562.414 1274.57 562.643 1277.12 561.972 C 1301.51 555.542 1277.6 520.703 1279.32 505.852 C 1280.74 493.567 1288.97 477.771 1295.11 467.47 C 1292.93 465.085 1292.87 465.715 1289.2 465.055 C 1291.76 462.675 1295.77 454.936 1298.25 451.172 C 1299.62 450.61 1299.8 450.549 1300.88 449.606 L 1301.66 448.906 C 1307.45 445.868 1319.1 446.173 1321.81 438.579 C 1323.39 434.163 1321.9 424.944 1317.01 422.978 C 1311.22 419.866 1309.2 419.008 1302.73 419.603 C 1298.01 422.801 1296.22 424.171 1293.38 429.243 C 1290.25 441.672 1278.52 440.648 1274.78 445.983 C 1260.83 453.759 1246.18 461.752 1232.7 470.278 C 1218.43 479.299 1204.84 489.056 1190.18 497.593 C 1183.3 501.559 1156.27 518.071 1147.56 520.168 C 1146.16 520.505 1142.11 515.904 1140.51 514.313 L 1140.18 513.597 C 1138.64 507.031 1140.7 500.263 1135.59 496.406 L 1133.17 497.958 L 1132.13 496.096 C 1132.78 491.35 1132.97 490.835 1130.03 487.415 C 1127.37 487.087 1126.29 487.268 1124.5 485.515 C 1123.73 483.339 1123.89 482.843 1124.58 480.659 C 1122.64 477.533 1121.69 478.025 1118.85 476.658 C 1116.13 475.355 1114.23 469.605 1110.52 466.926 C 1099.38 458.881 1087.8 450.551 1075.02 445 C 1036.57 428.304 1000.84 429.064 961.496 441.652 C 950.377 445.208 935.161 456.183 924.873 462.669 C 924.663 463.757 924.453 464.845 924.244 465.933 C 920.322 468.713 915.286 472.251 911.812 475.355 C 897.964 487.725 891.058 501.112 883.404 517.567 C 877.281 515.193 872.245 513.401 865.973 511.45 L 765.02 451.797 C 754.959 445.82 743.188 439.745 733.415 433.275 C 731.174 431.791 730.888 428.564 730.055 425.603 C 723.342 416.125 718.189 417.998 709.556 424.015 C 706.275 428.002 707 432.217 707.115 437.71 L 717.504 443.415 C 722.02 442.303 727.697 441.072 732.019 439.635 C 746.254 442.149 769.464 457.871 782.915 466.144 C 790.849 475.33 854.753 509.67 868.849 519.388 L 867.298 519.931 C 869.336 521.305 870.548 521.853 872.777 522.919 C 873.546 528.133 868.297 540.625 866.943 546.398 C 864.897 555.119 864.643 562.973 863.937 571.826 C 860.088 574.506 860.237 571.49 856.338 573.246 L 856.389 573.323 L 856.417 573.014 C 860.857 574.928 860.349 573.208 864.637 574.661 C 840.811 576.503 821.846 575.779 797.979 575.885 L 686.714 575.964 C 673.79 575.948 636.17 574.755 626.336 576.299 C 622.903 573.724 620.473 572.294 616.741 570.139 C 614.805 567.361 611.772 565.546 608.409 565.152 C 605.046 564.757 601.675 565.822 599.149 568.077 C 594.628 570.087 594.725 573.996 592.045 577.82 C 598.895 596.401 611.007 592.522 622.108 580.875 C 673.961 581.747 727.386 580.265 779.323 580.717 C 796.559 580.867 847.306 578.092 861.533 580.823 C 853.551 581.771 844.102 581.034 837.831 582.004 C 844.872 581.735 858.077 580.156 863.264 583.86 C 863.135 583.632 870.49 623.802 870.53 624.546 L 877.721 624.87 L 875.781 625.682 C 870.712 625.336 866.658 629.819 862.321 632.516 C 854.325 637.389 846.254 642.139 838.113 646.766 C 801.778 667.24 765.806 688.35 730.212 710.087 C 711.584 721.453 680.216 741.443 659.04 750.534 C 658.2 750.895 652.556 749.337 651.04 748.884 C 645.128 747.579 634.143 748.781 633.382 755.433 C 631.577 771.216 652.835 785.538 657.914 760.466 C 658.362 759.323 658.904 758.219 659.535 757.166 C 659.026 757.997 863.083 634.752 872.615 632.202 C 874.954 632.752 873.972 632.958 875.779 632.258 C 881.05 655.203 905.313 680.607 923.545 694.637 C 925.064 695.806 925.416 695.609 927.015 695.183 L 928.321 692.949 C 933.161 698.858 935.333 699.484 941.926 703.198 L 940.384 704.601 C 985.465 731.153 1049.67 731.094 1093.53 703.304 C 1096.52 701.409 1110.75 691.883 1112.83 691.855 C 1122.31 698.671 1146.5 723.925 1155.26 732.757 C 1152.74 737.662 1150.25 742.137 1148.57 747.414 L 1150.03 747.732 C 1143.51 781.502 1159.2 819.152 1194.46 828.315 L 1195.01 828.731 C 1218.69 836.928 1244.77 829.003 1261.78 811.215 C 1264.16 808.722 1265.09 807.219 1268.72 806.899 L 1270.33 804.568 C 1270.1 798.597 1273.14 795.355 1275.25 789.346 C 1278.38 780.687 1279.74 771.486 1279.23 762.293 C 1278.22 744.654 1270.21 728.149 1256.97 716.444 C 1233.97 696.39 1212.43 700.021 1185.6 706.232 C 1169.01 710.075 1159.4 674.895 1140.57 675.67 L 1134.57 669.158 C 1136.63 663.332 1138.22 663.476 1143.44 662.731 C 1143.14 660.242 1142.83 659.301 1142.1 656.882 C 1143.86 653.511 1152.3 636.562 1153.79 634.967 C 1166.57 640.689 1181.7 649.703 1194.06 656.731 L 1256.24 692.241 C 1282.43 707.123 1309.87 721.416 1335.09 736.812 C 1351.77 747.001 1365.09 748.124 1366.16 768.192 C 1366.85 770.791 1368.04 772.236 1370.06 773.418 C 1390.15 785.167 1405.18 760.569 1388.03 748.573 C 1385.1 746.518 1374.35 748.259 1369.87 746.427 C 1362.05 743.227 1356 737.779 1348.21 734.762 C 1344.66 733.273 1335.26 726.949 1331.02 724.559 C 1319.53 717.79 1307.65 711.812 1296.16 705.018 C 1250.37 677.926 1202.17 654.141 1157.76 624.923 C 1155.86 623.673 1160.42 615.723 1158.95 612.113 C 1157.53 600.909 1162.49 593.922 1161.86 580.604 C 1210.34 578.194 1256.32 579.066 1304.8 579.519 C 1343.9 579.885 1382.05 579.075 1421.16 581.161 C 1426.4 585.423 1431 589.578 1437.64 590.948 C 1432.98 591.983 1434.36 590.988 1432.07 594.328 L 1432.66 596.317 C 1443.67 603.849 1462.13 593.871 1456.19 585.088 C 1453 583.819 1451.53 584.448 1448.26 585.21 L 1449.06 582.085 L 1449.67 582.081 L 1459.01 576.207 C 1462.69 579.562 1465.4 583.137 1470.03 584.122 C 1475.82 582.135 1476.97 574.562 1483.17 574.36 C 1486.17 574.263 1488.25 573.788 1490.35 575.79 C 1487.83 580.211 1489.52 580.133 1488.04 583.647 C 1485.4 589.955 1483.01 596.625 1479.12 602.247 L 1479.07 603.746 C 1484.21 602.179 1494.92 578.312 1499.8 580.638 C 1500.26 582.733 1500.71 584.832 1501.15 586.933 L 1503.2 587.8 C 1504.77 604.214 1503.94 628.412 1503.76 645.277 L 1503.45 723.336 L 1503.83 784.803 C 1503.95 803.764 1506.9 821.046 1494.81 836.241 C 1489.86 842.474 1481.33 847.783 1477.74 852.672 C 1456.4 861.54 1352.35 854.759 1319.76 858.311 C 1311.66 858.103 1303.07 857.923 1294.95 858.286 C 1255.44 860.052 1215.92 856.231 1176.55 857.639 C 1168.96 857.91 1161.59 858.245 1154.01 858.365 C 1110.92 857.583 1068.36 855.497 1025.18 857.722 C 1017.51 858.118 1008.46 856.655 1000.58 857.004 C 966.336 858.52 926.041 853.942 892.424 858.029 C 884.953 858.156 877.296 858.305 869.833 858.028 C 837.551 856.832 804.952 857.793 772.663 858.575 C 751.835 859.082 728.472 858.426 707.466 858.366 C 695.088 856.105 678.168 856.122 665.796 858.373 C 653.129 858.72 640.455 858.724 627.788 858.385 C 593.509 855.146 567.382 863.949 544.661 832.102 C 543.692 824.389 540.894 817.732 540.247 808.339 C 538.238 779.138 539.67 750.032 539.638 721.039 C 539.138 662.115 539.217 603.187 539.876 544.265 L 539.986 430.209 C 539.809 405.004 539.289 379.273 540.603 354.088 C 541.536 342.564 543.739 335.971 550.655 327.089 C 565.248 308.348 584.942 313.023 607.37 313.022 L 670.018 312.911 L 900.524 311.079 C 927.092 310.648 962.588 312.256 988.147 310.233 z M 693.88 382.653 C 695.954 380.009 698.374 376.741 700.646 374.371 C 697.848 374.464 698.605 374.632 696.569 375.043 C 681.865 378.016 652.579 374.586 638.498 377.906 C 636.793 377.386 635.314 377.791 633.518 378.044 C 625.517 376.585 603.593 374.151 596.841 378.146 L 595.936 379.816 C 597.985 385.058 607.814 384.929 612.945 384.993 C 625.511 385.15 638.257 383.57 650.854 383.594 C 663.224 382.998 682.574 384.511 693.88 382.653 z M 647.25 400.292 C 651.442 400.505 657.689 401.222 661.473 399.949 L 662.695 398.624 L 662.333 396.978 C 652.982 394.647 622.897 394.84 612.351 395.44 C 606.919 395.783 601.786 395.698 596.911 398.118 L 597.303 399.188 C 606.752 401.423 636.937 401.024 647.25 400.292 z M 698.632 364.436 C 691.997 361.711 611.929 361.437 606.622 364.059 C 604.188 365.003 603.388 365.278 600.806 364.813 C 600.222 363.46 599.956 362.279 598.926 361.438 C 596.47 362.608 597.211 361.71 596.31 363.913 L 597.238 365.818 C 622.769 372.432 672.584 363.788 700.61 368.511 C 703.017 368.917 704.52 367.027 705.706 365.261 L 704.667 363.75 C 701.79 363.529 701.481 363.701 698.632 364.436 z M 1482.02 493.974 C 1482.27 488.92 1482.98 489.652 1480.84 485.802 L 1478.23 484.191 C 1477.55 489.667 1476.71 490.627 1482.02 493.974 z" fill="url(#Gradient7)" transform="translate(0,0)"></path>
<path d="M 638.498 377.906 C 652.579 374.586 681.865 378.016 696.569 375.043 C 698.605 374.632 697.848 374.464 700.646 374.371 C 698.374 376.741 695.954 380.009 693.88 382.653 C 682.574 384.511 663.224 382.998 650.854 383.594 C 638.257 383.57 625.511 385.15 612.945 384.993 C 607.814 384.929 597.985 385.058 595.936 379.816 L 596.841 378.146 C 603.593 374.151 625.517 376.585 633.518 378.044 L 632.404 378.175 C 624.663 379.033 603.23 377.561 598.86 379.818 C 602.886 381.354 688.717 381.006 692.076 379.471 C 677.444 377.591 650.468 380.297 638.498 377.906 z" fill="rgb(9,63,83)" fill-opacity="0.929412" transform="translate(0,0)"></path>
<path d="M 612.351 395.44 C 622.897 394.84 652.982 394.647 662.333 396.978 L 662.695 398.624 L 661.473 399.949 C 657.689 401.222 651.442 400.505 647.25 400.292 C 636.937 401.024 606.752 401.423 597.303 399.188 L 596.911 398.118 C 601.786 395.698 606.919 395.783 612.351 395.44 z" fill="rgb(18,187,180)" fill-opacity="0.94902" transform="translate(0,0)"></path>
<path d="M 698.632 364.436 C 701.481 363.701 701.79 363.529 704.667 363.75 L 705.706 365.261 C 704.52 367.027 703.017 368.917 700.61 368.511 C 672.584 363.788 622.769 372.432 597.238 365.818 L 596.31 363.913 C 597.211 361.71 596.47 362.608 598.926 361.438 C 599.956 362.279 600.222 363.46 600.806 364.813 C 603.388 365.278 604.188 365.003 606.622 364.059 C 613.613 365.832 690.13 365.61 698.632 364.436 z" fill="rgb(9,63,83)" fill-opacity="0.980392" transform="translate(0,0)"></path>
<path d="M 606.622 364.059 C 611.929 361.437 691.997 361.711 698.632 364.436 C 690.13 365.61 613.613 365.832 606.622 364.059 z" fill="rgb(185,188,193)" fill-opacity="0.886275" transform="translate(0,0)"></path>
<path d="M 1478.23 484.191 L 1480.84 485.802 C 1482.98 489.652 1482.27 488.92 1482.02 493.974 C 1476.71 490.627 1477.55 489.667 1478.23 484.191 z" fill="rgb(16,54,82)" fill-opacity="0.709804" transform="translate(0,0)"></path>
<path d="M 871.165 564.856 C 872.173 560.684 872.899 555.059 873.76 550.611 C 888.932 472.187 970.559 423.784 1047.28 442.038 C 1091.84 452.638 1116.31 475.761 1140.18 513.597 L 1140.51 514.313 C 1157.22 553.805 1161.6 583.246 1148.47 625.003 C 1144.95 634.825 1142.25 643.598 1137.3 652.967 C 1134.56 658.143 1129.68 659.166 1128.6 663.692 C 1131.07 666.472 1131.59 666.94 1134.57 669.158 L 1140.57 675.67 C 1150.89 686.741 1165.84 701.806 1176.92 712.263 C 1170.58 716.547 1165.82 720.719 1160.84 726.584 C 1152.45 718.768 1124.35 693.354 1118.67 686.094 C 1117.19 683.217 1116.97 682.881 1114.15 681.316 C 1104.37 681.361 1098.61 693.869 1091.31 698.627 C 1055.36 722.048 1005.3 726.255 965.249 711.658 C 958.481 709.197 948.633 704.471 941.926 703.198 C 935.333 699.484 933.161 698.858 928.321 692.949 C 906.548 675.832 896.127 658.49 883.444 634.96 C 881.239 630.87 878.378 630.122 874.16 628.907 L 873.696 627.971 L 875.781 625.682 L 877.721 624.87 C 879.966 621.701 873.23 617.546 872.438 612.611 C 871.111 604.338 871.362 593.319 871.264 584.944 C 871.437 578.095 871.692 572.411 871.012 565.56 L 871.165 564.856 z M 936.616 658.312 C 946.817 667.425 959.847 676.85 973.177 680.639 C 979.757 684.79 1000.08 687.79 1008.22 688.129 C 1043.74 689.609 1071.14 677.927 1096.9 654.201 C 1105.05 645.559 1112.04 636.426 1116.66 625.426 C 1127.8 605.416 1129.4 580.357 1125.8 558.136 C 1120.17 531.972 1107.78 512.461 1089.17 493.718 C 1071.57 478.838 1045.16 467.228 1022.03 466.988 C 995.22 463.553 964.548 473.826 943.397 490.243 C 930.727 500.238 920.375 512.861 913.054 527.243 C 890.839 571.319 898.781 625.424 936.616 658.312 z" fill="rgb(17,149,146)" fill-opacity="0.988235" transform="translate(0,0)"></path>
<path d="M 1005.85 471.827 C 1034.47 469.921 1060.49 477.633 1082.86 495.687 C 1103.29 514.602 1113.25 529.809 1120.56 557.168 C 1123.99 578.34 1123.6 593.983 1116.04 614.579 C 1109.29 630.434 1103.98 639.747 1091.53 652.081 C 1057.75 683.495 1015.47 691.152 972.108 675.653 C 961.007 671.465 951.179 664.881 941.922 657.6 C 927.513 644.607 916.68 628.132 910.461 609.754 C 900.511 580.304 904.888 554.875 918.369 527.653 C 936.254 494.718 968.638 474.62 1005.85 471.827 z M 1085.17 533.905 C 1073.35 514.611 1054.23 500.922 1032.16 495.956 C 987.841 485.986 943.66 513.181 932.598 557.238 C 923.346 594.086 940.07 632.544 973.33 650.905 C 1006.59 669.267 1048.04 662.927 1074.3 635.464 C 1100.55 608.002 1105.01 566.303 1085.17 533.905 z" fill="rgb(246,245,243)" transform="translate(0,0)"></path>
<path d="M 932.598 557.238 C 943.66 513.181 987.841 485.986 1032.16 495.956 C 1034.23 503.558 1052.15 508.766 1057.52 514.927 L 1058.63 514.945 C 1057.36 517.024 1057.18 517.512 1055.38 519.094 C 1059.16 518.281 1059.14 517.571 1062.71 519.639 C 1068.79 523.158 1080.25 538.401 1082.05 545 L 1081.75 548.841 L 1084.89 548.019 C 1084.55 543.776 1084.95 538.203 1085.17 533.905 C 1105.01 566.303 1100.55 608.002 1074.3 635.464 C 1048.04 662.927 1006.59 669.267 973.33 650.905 C 940.07 632.544 923.346 594.086 932.598 557.238 z M 1032.49 591.057 L 1030.72 587.986 C 1025.31 585.109 1009.28 569.938 1003.86 564.668 C 994.855 572.992 984.471 582.708 975.127 590.59 C 981.508 596.31 998.972 614.871 1005.34 615.024 C 1010.23 613.602 1027.04 595.971 1032.49 591.057 z M 1038.4 641.176 C 1043.75 639.187 1057.82 623.86 1062.58 618.881 C 1059.16 615.747 1036.58 594.491 1034.12 593.532 C 1027.85 600.157 1010.03 613.984 1009.15 619.2 C 1010.45 626.55 1031.62 638.116 1038.4 641.176 z" fill="rgb(18,187,180)" transform="translate(0,0)"></path>
<path d="M 932.598 557.238 C 943.66 513.181 987.841 485.986 1032.16 495.956 C 1034.23 503.558 1052.15 508.766 1057.52 514.927 C 1053.91 517.574 1034.6 534.824 1033.38 535.031 C 1029.98 528.193 1009.02 516.571 1007.19 511.015 C 1011.86 506.702 1018.14 506.142 1021.16 502.266 C 1017.97 502.587 1003.64 507.916 1001.97 509.793 L 1001.94 513.459 C 995.751 517.286 977.755 530.513 976.578 537.244 C 975.215 538.306 975.954 537.859 973.782 537.955 L 973.962 538.746 C 976.013 538.915 975.466 538.489 976.765 539.461 C 982.585 545.866 997.87 559.008 1001.26 563.466 C 997.357 568.055 976.702 587.134 971.918 590.028 L 970.64 587.988 C 965.008 584.376 957.453 577.172 952.255 572.496 C 942.935 572.198 938.746 570.323 934.593 579.878 C 933.244 578.411 932.737 560.388 932.598 557.238 z" fill="rgb(9,209,187)" transform="translate(0,0)"></path>
<path d="M 1055.38 519.094 C 1059.16 518.281 1059.14 517.571 1062.71 519.639 C 1068.79 523.158 1080.25 538.401 1082.05 545 C 1078.47 547.628 1068.34 559.602 1063.88 563.865 C 1054.76 554.695 1045.54 545.625 1036.22 536.656 L 1036.66 535.43 C 1045.53 530.388 1048.59 524.978 1055.38 519.094 z" fill="rgb(9,209,187)" transform="translate(0,0)"></path>
<path d="M 934.593 579.878 C 938.746 570.323 942.935 572.198 952.255 572.496 C 957.453 577.172 965.008 584.376 970.64 587.988 L 971.918 590.028 C 969.434 593.092 951.544 609.565 947.944 613.036 C 939.035 602.835 937.678 592.418 934.593 579.878 z" fill="rgb(7,185,165)" transform="translate(0,0)"></path>
<path d="M 1084.89 548.019 C 1085.78 553.503 1088.69 561.224 1088.52 565.836 C 1088.06 571.117 1088.28 580.138 1086.67 584.458 L 1085.33 585.305 L 1084.01 584.062 C 1078.83 576.755 1073.1 571.383 1066.57 565.374 C 1070.2 561.846 1080.01 552.945 1081.75 548.841 L 1084.89 548.019 z" fill="rgb(7,185,165)" transform="translate(0,0)"></path>
<path d="M 1003.86 564.668 C 1009.28 569.938 1025.31 585.109 1030.72 587.986 L 1032.49 591.057 C 1027.04 595.971 1010.23 613.602 1005.34 615.024 C 998.972 614.871 981.508 596.31 975.127 590.59 C 984.471 582.708 994.855 572.992 1003.86 564.668 z" fill="url(#Gradient6)" transform="translate(0,0)"></path>
<path d="M 1030.72 587.986 C 1023.15 577.36 1010.52 569.851 1006.85 564.34 C 1009.2 559.999 1032.47 535.802 1038.66 541.506 C 1046.79 548.984 1052.22 557.117 1061.74 564.051 C 1056.66 569.35 1038.33 586.894 1032.49 591.057 L 1030.72 587.986 z" fill="rgb(7,185,165)" transform="translate(0,0)"></path>
<path d="M 1034.12 593.532 C 1036.58 594.491 1059.16 615.747 1062.58 618.881 C 1057.82 623.86 1043.75 639.187 1038.4 641.176 C 1031.62 638.116 1010.45 626.55 1009.15 619.2 C 1010.03 613.984 1027.85 600.157 1034.12 593.532 z" fill="url(#Gradient5)" transform="translate(0,0)"></path>
<path d="M 1004.32 514.81 C 1011.52 515.28 1024.04 529.533 1032.05 535.285 C 1023.78 544.691 1010.41 555.195 1004.97 562.485 C 1002.32 561.8 998.827 558.185 997.037 555.988 C 992.452 550.36 979.279 543.738 979.577 535.919 C 981.749 530.078 997.332 521.349 1003.63 515.462 L 1004.32 514.81 z" fill="rgb(9,209,187)" transform="translate(0,0)"></path>
<path d="M 972.934 593.743 C 975.967 595.553 997.934 614.929 1002.69 619.111 C 996.785 624.015 983.002 634.765 979.604 640.705 C 964.085 632.992 958.175 629.005 948.078 615.416 C 954.433 609.207 964.122 602.381 972.934 593.743 z" fill="url(#Gradient4)" transform="translate(0,0)"></path>
<path d="M 1063.8 567.391 C 1068.52 572.341 1073.36 577.551 1078.19 582.358 C 1080.17 584.751 1082.69 587.003 1082.73 589.85 L 1082.23 590.755 C 1061.72 625.061 1065.93 619.729 1037.1 592.07 L 1063.8 567.391 z" fill="rgb(7,185,165)" transform="translate(0,0)"></path>
<path d="M 1003.26 622.747 C 1009.21 624.929 1028.4 641.035 1034.22 645.868 L 1033.59 646.184 C 1027.63 649.109 1019.66 651.707 1013.15 649.49 C 1007.79 649.764 984.778 648.864 983.557 643.006 C 985.341 639.403 999.558 626.419 1003.26 622.747 z" fill="rgb(25,119,130)" transform="translate(0,0)"></path>
<path d="M 1064.79 621.895 L 1072.84 628.667 C 1064.72 635.06 1058.61 640.082 1049.59 645.171 C 1046.36 645.395 1046.01 645.991 1043.72 644.463 C 1044.06 638.573 1060.02 626.116 1064.79 621.895 z" fill="rgb(25,119,130)" transform="translate(0,0)"></path>
<path d="M 1081.41 603.836 L 1083.73 604.33 C 1084.13 610.531 1076.94 621.406 1072.29 625.395 C 1065.6 614.61 1074.18 613.922 1081.41 603.836 z" fill="rgb(17,149,146)" transform="translate(0,0)"></path>
<path d="M 1032.16 495.956 C 1054.23 500.922 1073.35 514.611 1085.17 533.905 C 1084.95 538.203 1084.55 543.776 1084.89 548.019 L 1081.75 548.841 L 1082.05 545 C 1080.25 538.401 1068.79 523.158 1062.71 519.639 C 1059.14 517.571 1059.16 518.281 1055.38 519.094 C 1057.18 517.512 1057.36 517.024 1058.63 514.945 L 1057.52 514.927 C 1052.15 508.766 1034.23 503.558 1032.16 495.956 z" fill="rgb(9,221,209)" fill-opacity="0.988235" transform="translate(0,0)"></path>
<path d="M 913.054 527.243 L 918.369 527.653 C 904.888 554.875 900.511 580.304 910.461 609.754 C 916.68 628.132 927.513 644.607 941.922 657.6 L 936.616 658.312 C 898.781 625.424 890.839 571.319 913.054 527.243 z" fill="rgb(7,30,49)" fill-opacity="0.984314" transform="translate(0,0)"></path>
<path d="M 1091.53 652.081 C 1093.08 652.659 1095.49 653.453 1096.9 654.201 C 1071.14 677.927 1043.74 689.609 1008.22 688.129 C 1000.08 687.79 979.757 684.79 973.177 680.639 L 974.273 679.429 L 972.108 675.653 C 1015.47 691.152 1057.75 683.495 1091.53 652.081 z" fill="rgb(7,30,49)" fill-opacity="0.807843" transform="translate(0,0)"></path>
<path d="M 913.054 527.243 C 920.375 512.861 930.727 500.238 943.397 490.243 C 964.548 473.826 995.22 463.553 1022.03 466.988 C 1017.93 467.474 1009.38 467.584 1006.54 469.035 C 1005.41 470.83 1005.55 469.911 1005.85 471.827 C 968.638 474.62 936.254 494.718 918.369 527.653 L 913.054 527.243 z" fill="url(#Gradient3)" transform="translate(0,0)"></path>
<path d="M 1022.03 466.988 C 1045.16 467.228 1071.57 478.838 1089.17 493.718 L 1082.86 495.687 C 1060.49 477.633 1034.47 469.921 1005.85 471.827 C 1005.55 469.911 1005.41 470.83 1006.54 469.035 C 1009.38 467.584 1017.93 467.474 1022.03 466.988 z" fill="rgb(7,30,49)" fill-opacity="0.921569" transform="translate(0,0)"></path>
<path d="M 1089.17 493.718 C 1107.78 512.461 1120.17 531.972 1125.8 558.136 C 1124.04 558.127 1122.29 557.585 1120.56 557.168 C 1113.25 529.809 1103.29 514.602 1082.86 495.687 L 1089.17 493.718 z" fill="rgb(7,30,49)" fill-opacity="0.980392" transform="translate(0,0)"></path>
<path d="M 1120.56 557.168 C 1122.29 557.585 1124.04 558.127 1125.8 558.136 C 1129.4 580.357 1127.8 605.416 1116.66 625.426 C 1115.2 620.868 1115.54 619.388 1116.04 614.579 C 1123.6 593.983 1123.99 578.34 1120.56 557.168 z" fill="rgb(7,30,49)" fill-opacity="0.972549" transform="translate(0,0)"></path>
<path d="M 1091.53 652.081 C 1103.98 639.747 1109.29 630.434 1116.04 614.579 C 1115.54 619.388 1115.2 620.868 1116.66 625.426 C 1112.04 636.426 1105.05 645.559 1096.9 654.201 C 1095.49 653.453 1093.08 652.659 1091.53 652.081 z" fill="rgb(7,30,49)" fill-opacity="0.988235" transform="translate(0,0)"></path>
<path d="M 936.616 658.312 L 941.922 657.6 C 951.179 664.881 961.007 671.465 972.108 675.653 L 974.273 679.429 L 973.177 680.639 C 959.847 676.85 946.817 667.425 936.616 658.312 z" fill="rgb(7,30,49)" fill-opacity="0.705882" transform="translate(0,0)"></path>
<path d="M 1289.2 465.055 C 1292.87 465.715 1292.93 465.085 1295.11 467.47 C 1288.97 477.771 1280.74 493.567 1279.32 505.852 C 1277.6 520.703 1301.51 555.542 1277.12 561.972 C 1274.57 562.643 1266.99 562.414 1265.36 563.522 C 1303.22 566.301 1341.98 565.482 1379.95 566.529 C 1383.07 566.615 1387.73 566.855 1390.73 566.575 L 1395.61 566.747 C 1393.67 572.034 1393.49 571.605 1388.01 573.095 C 1375.47 573.019 1304.28 572.02 1296.45 573.95 L 1178.04 574.777 C 1173.71 574.109 1168.06 574.392 1162.61 573.582 C 1160.63 569.242 1160.4 563.671 1158.99 559.09 C 1157.54 554.413 1155.03 553.877 1157.6 548.888 C 1159 549.723 1160.94 550.063 1162.59 550.484 C 1168.79 556.431 1161.87 556.688 1164.6 562.328 L 1165.81 560.902 C 1167.02 555.299 1166.32 551.021 1160.96 548.501 C 1158.61 544.561 1158.29 532.217 1158.05 527.189 C 1161.03 521.071 1234.66 481.33 1243.39 475.102 C 1245.95 473.279 1247.14 473.213 1249.95 473.927 C 1253.8 472.863 1252.53 473.112 1255.34 468.847 C 1257.14 470.762 1251.92 473.974 1252.98 477.387 C 1255.01 476.89 1269.83 467.996 1274 465.907 C 1274.56 467.632 1274.98 469.501 1276 470.912 C 1281.32 470.887 1284.51 468.219 1289.2 465.055 z" fill="rgb(17,61,88)" fill-opacity="0.0980392" transform="translate(0,0)"></path>
<path d="M 1160.83 760.445 C 1161.27 753.227 1163.96 745.62 1167.54 739.381 C 1174.63 727.152 1186.35 718.291 1200.04 714.796 C 1217.97 710.091 1232.06 714.033 1247.39 723.15 C 1264.33 738.397 1270.8 757.925 1265.54 780.305 L 1265.1 783.007 C 1263.07 787.372 1260.49 793.392 1257.99 797.336 L 1255.89 800.154 C 1250.33 802.601 1236.82 815.072 1231.93 814.217 C 1221.6 802.391 1185.45 796.49 1168.78 792.248 C 1163.14 781.561 1162.06 772.197 1160.83 760.445 z" fill="rgb(18,187,180)" fill-opacity="0.984314" transform="translate(0,0)"></path>
<path d="M 575.976 309.102 C 581.104 307.13 598.934 310.102 606.085 309.887 C 653.798 308.451 704.235 312.099 751.71 309.57 C 775.402 310.044 804.68 310.679 828.26 309.765 C 864.048 310.085 899.838 310.188 935.627 310.072 C 951.31 310.075 972.843 309.412 988.147 310.233 C 962.588 312.256 927.092 310.648 900.524 311.079 L 670.018 312.911 L 607.37 313.022 C 584.942 313.023 565.248 308.348 550.655 327.089 C 543.739 335.971 541.536 342.564 540.603 354.088 C 539.289 379.273 539.809 405.004 539.986 430.209 L 539.876 544.265 C 539.217 603.187 539.138 662.115 539.638 721.039 C 539.67 750.032 538.238 779.138 540.247 808.339 C 540.894 817.732 543.692 824.389 544.661 832.102 C 541.327 827.34 540.406 824.659 538.301 819.358 L 537.697 819.48 C 537.27 826.087 544.21 836.145 548.401 841.017 C 567.612 863.35 601.119 859.584 627.788 858.385 C 640.455 858.724 653.129 858.72 665.796 858.373 C 675.731 859.139 697.63 859.553 707.466 858.366 C 728.472 858.426 751.835 859.082 772.663 858.575 C 812.481 859.052 852.303 859.127 892.123 858.801 C 938.166 859.292 984.477 858.89 1030.54 858.853 C 1071.7 859.198 1112.86 859.036 1154.01 858.365 C 1161.59 858.245 1168.96 857.91 1176.55 857.639 C 1215.92 856.231 1255.44 860.052 1294.95 858.286 C 1303.07 857.923 1311.66 858.103 1319.76 858.311 C 1346.39 860.06 1378.33 858.46 1405.61 859.024 C 1424.99 859.425 1449.55 859.518 1468.58 858.059 C 1483.52 856.914 1495.76 842.896 1504.2 831.433 C 1502.9 842.086 1493.24 849.155 1484.78 854.74 C 1478.99 858.561 1472.6 859.588 1465.73 859.836 C 1413.12 861.74 1360.42 861.105 1307.78 861.19 L 1189.29 861.044 C 1154.75 861.276 1122.61 862.803 1088.01 859.778 C 1073.04 858.469 1052.73 861.464 1037 861.023 C 1005.46 860.138 973.583 861.954 942.027 860.604 C 936.568 860.256 935.452 863.137 929.863 862.237 C 910.454 859.11 887.255 861.124 867.59 861.042 L 684.771 860.165 C 675.511 860.144 664.421 862.271 656.04 862.176 C 632.678 861.775 608.69 861.42 585.442 860.038 C 548.999 857.873 531.966 827.672 529.802 794.63 C 529.329 787.411 531.466 778.642 531.07 771.922 C 529.861 751.353 534.542 725.655 529.103 706.019 C 530.424 701.606 526.795 699.299 527.538 694.956 C 530.102 679.976 535.455 614.212 531.025 601.448 C 529.166 598.685 527.056 598.474 523.881 597.577 L 526.523 595.47 L 530.058 594.594 C 530.186 588.089 531.672 580.581 531.742 572.873 C 531.908 554.674 532.13 536.366 532.339 518.17 C 532.392 513.541 533.241 495.606 532.468 491.992 C 530.072 491.106 527.653 490.284 525.214 489.526 C 527.374 488.142 529.275 487.147 530.931 485.202 C 531.899 469.746 536.126 423.855 526.951 413.186 C 524.865 413.302 524.129 413.465 522.077 412.865 L 522.61 411.238 C 525.117 411.575 525.869 411.826 528.301 411.337 C 529.285 405.38 530.61 399.518 531.591 393.602 C 533.826 380.122 530.53 365.385 532.513 351.938 L 532.642 351.095 C 533.532 345.032 535.472 341.99 538.351 336.631 C 533.052 358.14 535.08 383.456 534.937 406.094 L 535.006 412.959 L 535.071 442.891 L 534.784 484.12 L 535.356 485.93 C 534.827 492.26 534.951 495.966 535.224 502.211 L 535.051 503.012 C 534.641 528.029 533.815 566.378 535.124 590.64 L 535.11 591.388 C 534.468 627.481 534.046 672.786 535.057 708.684 C 534.563 715.658 534.574 718.479 535.056 725.463 C 534.988 735.6 534.977 745.737 535.023 755.874 C 535.017 763.329 534.801 771.852 535.048 779.212 L 534.922 780.009 C 534.736 790.354 534.077 806.848 536.521 816.463 C 537.587 810.152 536.949 788.376 536.915 780.325 C 537.139 755.861 537.149 731.396 536.946 706.931 L 536.83 645.508 C 537.766 629.385 537.04 605.659 536.856 589.032 L 536.991 503.083 L 536.931 484.104 C 537.017 470.061 537.006 456.018 536.898 441.976 L 536.966 415.554 L 537.059 406.815 C 537.171 387.39 535.644 364.909 538.281 345.737 C 539.972 333.44 550.984 319.732 562.167 314.947 C 566.359 313.152 572.215 311.714 575.976 309.102 z" fill="rgb(7,30,49)" fill-opacity="0.976471" transform="translate(0,0)"></path>
<path d="M 1482.19 310.871 C 1492.55 314.118 1499.4 318.134 1505.08 327.758 C 1509.58 335.368 1509.22 348.757 1518.04 351.395 C 1524.41 353.302 1530.91 353.902 1537.41 355.185 C 1546.8 357.575 1583.54 364.947 1590.93 368.671 L 1591.79 370.606 L 1716.92 402.963 C 1723.82 404.735 1731.1 406.519 1737.96 408.523 C 1741.68 409.608 1744.26 407.247 1746.59 410.113 L 1745.58 413.332 C 1746.89 415.765 1747.68 416.838 1748.06 419.634 C 1745.84 421.642 1743.69 422.262 1741.13 420.679 L 1741.26 421.693 L 1738.88 421.46 L 1742 419.424 L 1742 418.269 L 1743.36 415.706 C 1742.14 413.658 1741.57 412.503 1739 411.798 C 1702.63 401.804 1665.96 392.833 1629.42 383.364 L 1557.64 365.01 C 1549.35 362.921 1519.66 353.985 1513.57 356.801 C 1510.67 375.846 1513.26 396.24 1512.31 414.838 C 1511.39 418.494 1512.58 451.588 1512.79 456.974 C 1513.13 466.528 1510.34 500.033 1514.51 505.258 C 1518.21 505.767 1522.5 504.189 1526.18 503.139 L 1526.58 503.995 C 1519.47 506.575 1514.8 506.823 1513.59 514.625 C 1514.16 521.516 1513.91 525.336 1513.49 532.161 C 1513.17 540.16 1510.57 551.02 1516.22 556.234 C 1514.83 559.704 1513.59 559.397 1512.73 563.419 C 1511.28 585.777 1512.4 612.762 1512.01 635.493 C 1511.82 646.253 1511.17 680.978 1512.98 689.908 C 1512.83 695.228 1512.01 700.608 1515.76 704.594 C 1519.65 703.718 1519.81 699.684 1520.39 696.206 C 1521.93 695.758 1523.55 695.005 1525.04 694.37 C 1529.73 687.506 1538.99 679.275 1544.71 672.468 C 1555.94 659.128 1567.24 645.852 1578.56 632.593 C 1584.77 625.321 1594.52 616.12 1598.54 607.649 L 1592.58 603.377 L 1593.23 602.191 C 1595.94 603.434 1598.13 603.62 1601.05 603.188 C 1605.63 602.508 1629.15 574.665 1633.07 569.251 L 1632.33 565.947 C 1652.34 547.916 1741.46 434.542 1748.89 431.167 C 1750.61 430.014 1751.56 429.042 1753.58 429.181 C 1757.3 430.513 1760.81 434.198 1763.39 437.186 C 1760.2 436 1757.13 434.395 1753.94 435.377 C 1746.91 440.129 1731.26 461.14 1725.04 468.651 C 1710.05 486.412 1695.16 504.258 1680.37 522.19 C 1673.22 530.724 1639.73 567.034 1637.03 574.67 L 1638.53 577.744 C 1628.42 578.91 1611.64 601.976 1603.88 609.913 C 1619.96 619.95 1675.25 660.565 1689.66 658.923 C 1693.18 656.715 1692.51 657.741 1694.21 654.692 C 1692.88 649.342 1687.03 646.931 1684.11 642.553 C 1679.77 636.04 1676.18 628.992 1671.55 622.654 C 1667.74 616.653 1659.62 607.768 1656.74 602.882 L 1658.37 601.363 C 1658.22 597.52 1643.68 580.968 1640.29 577.914 L 1640.55 576.445 C 1646.79 581.377 1694.32 641.974 1696.45 648.628 C 1697.64 651.398 1698.85 652.66 1697.87 655.105 C 1695.73 660.507 1691.6 664.053 1686.41 666.286 C 1684.95 665.798 1682.62 665.094 1681.31 664.484 C 1664.44 659.029 1652.8 645.57 1638.53 637.15 C 1627.23 630.478 1613.97 618.767 1603.47 613.083 C 1592.94 621.925 1581.33 636.683 1572.21 647.458 C 1559.41 662.502 1546.45 677.405 1533.33 692.165 C 1524.01 702.531 1514.43 700.91 1513.61 719.419 C 1512.56 743.44 1513.38 767.458 1512.59 791.495 C 1512.18 803.79 1516.07 822.979 1504.44 830.765 C 1506.48 824.645 1509.02 817.699 1509.13 811.321 C 1509.89 768.115 1509.44 724.67 1509.17 681.514 L 1509.16 496.896 L 1509.32 400.417 C 1509.39 384.615 1509.77 368.523 1509.13 352.721 C 1508.33 333.263 1497.87 321.259 1482.19 310.871 z" fill="rgb(17,61,88)" fill-opacity="0.933333" transform="translate(0,0)"></path>
<path d="M 374.468 340.108 C 380.337 341.583 388.643 342.921 394.488 340.573 C 439.319 322.569 482.66 301.3 527.16 282.611 C 553.232 271.662 579.415 261.056 605.402 249.905 C 620.478 243.361 637.41 237.254 651.478 229.098 C 656.517 223.608 649.127 219.253 658.552 212.516 L 659.464 211.872 C 651.434 225.92 656.567 232.463 672.157 232.095 C 666.671 235.711 659.679 232.055 653.067 234.913 L 460.066 319.41 C 441.599 327.576 422.167 333.486 404.239 342.747 C 395.943 347.033 382.993 348.418 383.573 360.798 C 389.872 364.757 391.107 361.877 399.905 364.899 C 435.524 377.134 470.787 388.16 505.281 403.592 C 508.837 405.183 518.037 408.518 520.571 410.658 C 521.12 420.91 501.387 443.483 496.218 452.701 C 487.728 467.842 476.321 480.846 466.615 495.123 C 465.479 496.794 464.755 503.75 464.478 506.044 C 460.486 509.271 458.947 507.165 454.994 510.188 C 444.184 507.249 445.213 510.534 437.661 511.136 L 437.795 509.755 L 434.805 508.045 L 434.458 506.067 L 435.17 505.532 C 443.887 507.307 456.486 505.444 460.35 496.196 C 459.199 495.15 459.051 495.158 458.349 493.795 C 458.694 493.515 459.033 493.226 459.365 492.93 C 466.187 486.87 515.451 418.813 515.666 414.387 C 508.894 405.814 423.122 377.72 405.442 372.371 C 401.123 371.064 389.435 368.813 384.444 367.916 C 392.602 399.303 409.956 428.629 421.492 458.614 C 424.097 465.385 438.956 489.601 435.757 494.773 L 433.841 492.69 C 432.336 486.729 417.462 454.729 414.084 446.852 C 411.202 439.43 410.004 435.928 405.575 429.261 C 408.63 434.885 408.775 440.224 412.718 446.694 C 415.878 454.854 428.939 487.232 433.118 493.559 C 432.822 495.904 431.764 497.24 430.543 499.27 L 429.367 499.25 C 430.633 483.996 417.661 469.799 412.805 456.421 C 402.995 429.396 382.803 396.332 376.002 368.993 C 369.685 367.105 366.074 365.13 361.3 360.679 C 379.879 369.321 389.162 355.592 374.468 340.108 z" fill="rgb(16,54,82)" fill-opacity="0.952941" transform="translate(0,0)"></path>
<path d="M 448.203 838.152 C 467.875 837.617 484.352 852.936 485.248 872.595 C 486.145 892.254 471.132 909.009 451.493 910.267 C 437.711 911.15 424.634 904.093 417.806 892.09 C 410.977 880.087 411.595 865.24 419.396 853.845 C 425.93 844.302 436.641 838.466 448.203 838.152 z" fill="rgb(18,95,136)" fill-opacity="0.952941" transform="translate(0,0)"></path>
<path d="M 1399.97 309.108 C 1417.26 305.753 1465.25 305.27 1482.19 310.871 C 1497.87 321.259 1508.33 333.263 1509.13 352.721 C 1509.77 368.523 1509.39 384.615 1509.32 400.417 L 1509.16 496.896 L 1509.17 681.514 C 1509.44 724.67 1509.89 768.115 1509.13 811.321 C 1509.02 817.699 1506.48 824.645 1504.44 830.765 L 1504.2 831.433 C 1495.76 842.896 1483.52 856.914 1468.58 858.059 C 1449.55 859.518 1424.99 859.425 1405.61 859.024 C 1378.33 858.46 1346.39 860.06 1319.76 858.311 C 1352.35 854.759 1456.4 861.54 1477.74 852.672 C 1481.33 847.783 1489.86 842.474 1494.81 836.241 C 1506.9 821.046 1503.95 803.764 1503.83 784.803 L 1503.45 723.336 L 1503.76 645.277 C 1503.94 628.412 1504.77 604.214 1503.2 587.8 C 1503.49 582.137 1503.25 574.067 1503.24 568.226 L 1503.02 559.392 L 1502.93 548.438 C 1503.85 538.586 1505.77 508.097 1503.51 499.159 C 1502.96 445.774 1503.23 392.384 1504.34 339.008 C 1497.64 323.049 1488.32 316.446 1472.99 310.216 C 1451.4 309.169 1419.93 311.434 1399.97 309.108 z" fill="rgb(246,245,243)" transform="translate(0,0)"></path>
<path d="M 1504.34 339.008 C 1508.71 353.523 1507.07 423.428 1507.05 441.993 L 1506.98 618.013 L 1507.18 747.718 C 1507.21 769.995 1507.96 795.814 1506.25 818.012 C 1505.26 830.879 1490.35 848.062 1477.74 852.672 C 1481.33 847.783 1489.86 842.474 1494.81 836.241 C 1506.9 821.046 1503.95 803.764 1503.83 784.803 L 1503.45 723.336 L 1503.76 645.277 C 1503.94 628.412 1504.77 604.214 1503.2 587.8 C 1503.49 582.137 1503.25 574.067 1503.24 568.226 L 1503.02 559.392 L 1502.93 548.438 C 1503.85 538.586 1505.77 508.097 1503.51 499.159 C 1502.96 445.774 1503.23 392.384 1504.34 339.008 z" fill="rgb(16,54,82)" transform="translate(0,0)"></path>
<path d="M 1696.45 648.628 C 1705.63 653.752 1737.2 648.135 1741.09 667.765 C 1752.61 726.058 1693.5 700.607 1684.52 703.676 C 1684.82 702.303 1684.98 701.084 1685.19 699.7 L 1682.89 698.124 C 1684.1 697.294 1685.32 696.309 1686.49 695.414 L 1686.15 694.046 C 1667.97 687.865 1577.25 715.336 1552.89 716.128 C 1547.77 716.294 1538.43 719.853 1533.09 718.724 C 1535.14 716.7 1536.42 717.069 1539.72 716.442 L 1538.51 716.154 C 1543.53 714.063 1553.28 713.663 1559.18 712.36 C 1590.82 705.382 1622.24 697.591 1654.18 692.063 C 1660.13 691.033 1669.78 689.688 1675.3 688.026 C 1677.7 687.304 1679.88 685.992 1681.65 684.209 C 1687.45 678.409 1687.1 669.968 1681.31 664.484 C 1682.62 665.094 1684.95 665.798 1686.41 666.286 C 1691.6 664.053 1695.73 660.507 1697.87 655.105 C 1698.85 652.66 1697.64 651.398 1696.45 648.628 z" fill="rgb(17,61,88)" fill-opacity="0.988235" transform="translate(0,0)"></path>
<path d="M 1590.93 368.671 C 1623.14 375.67 1655.43 385.344 1687.53 393.064 C 1694.12 394.651 1740.49 409.145 1743.7 405.593 C 1755.58 392.465 1759.31 376.704 1782.67 381.765 C 1790.17 383.073 1796.73 386.934 1801.24 394.453 C 1805.51 401.657 1806.73 410.265 1804.64 418.373 C 1802.83 425.442 1798.17 431.442 1791.76 434.93 C 1785.87 438.168 1768.9 440.612 1763.39 437.186 C 1760.81 434.198 1757.3 430.513 1753.58 429.181 C 1751.56 429.042 1750.61 430.014 1748.89 431.167 C 1750.62 427.846 1751.9 427.022 1751.1 424.234 L 1748.06 419.634 C 1747.68 416.838 1746.89 415.765 1745.58 413.332 L 1746.59 410.113 C 1744.26 407.247 1741.68 409.608 1737.96 408.523 C 1731.1 406.519 1723.82 404.735 1716.92 402.963 L 1591.79 370.606 L 1590.93 368.671 z" fill="rgb(9,63,83)" transform="translate(0,0)"></path>
<path d="M 1140.57 675.67 C 1159.4 674.895 1169.01 710.075 1185.6 706.232 C 1212.43 700.021 1233.97 696.39 1256.97 716.444 C 1270.21 728.149 1278.22 744.654 1279.23 762.293 C 1279.74 771.486 1278.38 780.687 1275.25 789.346 C 1273.14 795.355 1270.1 798.597 1270.33 804.568 L 1268.72 806.899 C 1265.09 807.219 1264.16 808.722 1261.78 811.215 C 1244.77 829.003 1218.69 836.928 1195.01 828.731 C 1205.17 824.779 1226.89 831.669 1244.52 818.951 C 1249.99 815.697 1256.93 807.577 1262.08 809.268 L 1263.43 807.354 C 1262.85 801.429 1265.43 801.063 1265.09 797.848 C 1262.25 796.696 1261.87 797.012 1258.73 797.798 L 1257.99 797.336 C 1260.49 793.392 1263.07 787.372 1265.1 783.007 C 1265.41 786.507 1265.42 790.788 1267.13 793.747 L 1268.68 793.903 C 1271.34 790.651 1273.32 784.1 1274.83 779.937 C 1281.82 764.377 1274.76 742.749 1265.27 729.62 C 1264.18 728.127 1262.94 726.59 1261.8 725.123 C 1260.35 724.767 1258.99 724.316 1257.52 724.717 C 1254.99 723.385 1255.81 723.899 1254.54 720.368 C 1254.94 718.6 1254.9 719.531 1253.96 717.508 C 1228.83 700.437 1203.44 701.057 1177.23 715.775 C 1174.41 717.357 1173.84 719.596 1173.4 722.434 L 1174.51 723.23 C 1177.97 723.006 1189.85 715.422 1197.25 713.456 C 1216.76 708.271 1230.63 710.525 1247.87 719.778 L 1247.39 723.15 C 1232.06 714.033 1217.97 710.091 1200.04 714.796 C 1186.35 718.291 1174.63 727.152 1167.54 739.381 C 1163.96 745.62 1161.27 753.227 1160.83 760.445 C 1160.19 764.525 1159.76 766.333 1160.23 770.465 C 1159.73 774.796 1159.85 778.034 1155.9 780.695 C 1161.79 772.765 1160.36 762.22 1156.51 753.697 L 1155.07 752.873 C 1151.72 757.544 1152.19 775.553 1152.77 781.524 L 1154.73 783.594 C 1156.47 786.992 1158.27 791.413 1159.9 794.418 L 1163.22 800.409 L 1167.16 805.634 C 1170.02 808.622 1172.92 811.578 1175.85 814.499 C 1177.61 815.732 1180.05 817.665 1181.94 818.38 C 1185.21 820.218 1193.3 823.77 1194.7 826.267 L 1194.46 828.315 C 1159.2 819.152 1143.51 781.502 1150.03 747.732 C 1150.79 746.694 1156.66 733.53 1157.57 731.531 C 1150.19 724.759 1120.38 694.236 1118.67 686.094 C 1124.35 693.354 1152.45 718.768 1160.84 726.584 C 1165.82 720.719 1170.58 716.547 1176.92 712.263 C 1165.84 701.806 1150.89 686.741 1140.57 675.67 z" fill="rgb(7,30,49)" fill-opacity="0.945098" transform="translate(0,0)"></path>
<path d="M 1136.6 172.064 C 1122.48 172.024 1070.83 164.614 1062.25 169.281 C 1057.1 172.079 1055.14 179.211 1050.02 182.538 C 1043.49 186.771 1034.07 186.014 1026.85 184.367 C 1020.98 183.028 1016.53 179.562 1013.43 174.427 C 1009.89 168.558 1008.53 161.226 1010.21 154.542 C 1011.98 147.475 1016.71 140.914 1023.06 137.3 C 1028.98 133.936 1036.45 131.242 1043.26 133.177 C 1055.4 136.625 1057.32 148.15 1062.85 157.568 C 1067.82 166.031 1097.77 163.872 1108.13 166.581 L 1107.97 167.611 C 1113.79 169.134 1134.62 169.909 1136.6 172.064 z" fill="rgb(17,61,88)" transform="translate(0,0)"></path>
<path d="M 883.404 517.567 C 891.058 501.112 897.964 487.725 911.812 475.355 C 915.286 472.251 920.322 468.713 924.244 465.933 C 924.453 464.845 924.663 463.757 924.873 462.669 C 935.161 456.183 950.377 445.208 961.496 441.652 C 1000.84 429.064 1036.57 428.304 1075.02 445 C 1087.8 450.551 1099.38 458.881 1110.52 466.926 C 1114.23 469.605 1116.13 475.355 1118.85 476.658 C 1121.69 478.025 1122.64 477.533 1124.58 480.659 C 1123.89 482.843 1123.73 483.339 1124.5 485.515 C 1126.29 487.268 1127.37 487.087 1130.03 487.415 C 1132.97 490.835 1132.78 491.35 1132.13 496.096 L 1133.17 497.958 L 1135.59 496.406 C 1140.7 500.263 1138.64 507.031 1140.18 513.597 C 1116.31 475.761 1091.84 452.638 1047.28 442.038 C 970.559 423.784 888.932 472.187 873.76 550.611 C 872.899 555.059 872.173 560.684 871.165 564.856 C 870.684 543.944 871.999 542.869 880.19 523.675 C 876.422 522.213 872.641 520.784 868.849 519.388 C 854.753 509.67 790.849 475.33 782.915 466.144 C 798.448 473.676 813.218 484.297 828.388 492.584 C 843.065 500.602 860.024 513.16 875.798 518.495 C 874.377 516.458 868.411 513.006 865.973 511.45 C 872.245 513.401 877.281 515.193 883.404 517.567 z" fill="rgb(7,30,49)" fill-opacity="0.94902" transform="translate(0,0)"></path>
<path d="M 1227.77 172.028 C 1232.15 179.129 1229.28 186.157 1224.28 192.053 L 1225.94 194.953 L 1224.66 195.689 C 1214.91 192.623 1215.85 196.839 1207.87 199.166 C 1212.09 220.739 1204.5 238.638 1201.2 259.71 C 1199.53 270.394 1200.01 277.739 1196.33 288.4 C 1194.84 282.455 1198.32 279.316 1196.6 274.245 C 1194.1 279.312 1196.88 291.221 1190.96 296.479 L 1188.68 297.085 C 1188.96 293.932 1193 293.514 1192.87 289.84 C 1192.23 270.96 1207.26 209.679 1200.75 195.898 C 1195.66 193.915 1184.05 197.031 1179.23 199.532 C 1134.89 222.549 1091.63 248.854 1047 271.318 C 1040.95 274.367 987.64 298.007 985.311 297.975 L 984.934 297.103 C 989.624 294.277 993.551 293.272 998.428 290.893 C 1009.26 285.556 1020.05 280.13 1030.79 274.616 C 1043.4 268.145 1055.93 261.216 1068.26 254.183 C 1107.84 231.608 1148.13 210.278 1187.78 187.86 C 1189.87 186.68 1191.95 184.559 1193.54 182.762 C 1196.66 192.01 1206.6 197.069 1215.91 194.149 C 1225.22 191.229 1230.49 181.401 1227.77 172.028 z" fill="rgb(16,54,82)" fill-opacity="0.968627" transform="translate(0,0)"></path>
<path d="M 846.255 159.45 C 858.663 157.487 869.133 163.48 870.995 176.449 C 871.932 182.62 870.33 188.908 866.555 193.879 C 861.817 200.069 857.279 201.302 850.031 202.271 C 835.679 202.277 830.061 194.932 826.131 182.165 C 827.097 177.777 828.006 173 829.78 168.885 C 832.639 162.255 841.065 161.473 846.255 159.45 z M 838.352 169.818 L 835.508 168.417 C 826.199 174.639 829.687 196.578 846.449 198.835 C 860.828 199.376 870.21 189.092 867.386 174.788 C 864.952 162.464 844.052 160.26 838.352 169.818 z" fill="rgb(246,245,243)" transform="translate(0,0)"></path>
<path d="M 838.352 169.818 C 844.052 160.26 864.952 162.464 867.386 174.788 C 870.21 189.092 860.828 199.376 846.449 198.835 C 852.198 194.79 848.208 198.854 853.319 196.33 L 853.34 194.581 L 851.93 193.895 C 851.044 191.447 851.849 190.783 852.795 187.839 L 852.13 187.031 C 849.247 188.708 847.448 190.05 844.079 190.349 C 837.022 185.388 843.393 176.792 838.352 169.818 z M 849.56 185.801 C 851.172 181.143 852.334 177.633 853.514 172.784 C 851.577 171.441 850.059 172.271 847.11 172.703 C 841.777 176.141 840.833 179.447 844.133 184.947 C 846.563 186.233 846.72 186.131 849.56 185.801 z" fill="url(#Gradient2)" transform="translate(0,0)"></path>
<path d="M 847.11 172.703 C 850.059 172.271 851.577 171.441 853.514 172.784 C 852.334 177.633 851.172 181.143 849.56 185.801 C 846.72 186.131 846.563 186.233 844.133 184.947 C 840.833 179.447 841.777 176.141 847.11 172.703 z" fill="rgb(7,30,49)" fill-opacity="0.180392" transform="translate(0,0)"></path>
<path d="M 846.449 198.835 C 829.687 196.578 826.199 174.639 835.508 168.417 L 838.352 169.818 C 843.393 176.792 837.022 185.388 844.079 190.349 C 847.448 190.05 849.247 188.708 852.13 187.031 L 852.795 187.839 C 851.849 190.783 851.044 191.447 851.93 193.895 L 853.34 194.581 L 853.319 196.33 C 848.208 198.854 852.198 194.79 846.449 198.835 z" fill="rgb(7,30,49)" fill-opacity="0.0117647" transform="translate(0,0)"></path>
<path d="M 1158.95 612.113 C 1160.42 615.723 1155.86 623.673 1157.76 624.923 C 1202.17 654.141 1250.37 677.926 1296.16 705.018 C 1307.65 711.812 1319.53 717.79 1331.02 724.559 C 1335.26 726.949 1344.66 733.273 1348.21 734.762 C 1356 737.779 1362.05 743.227 1369.87 746.427 C 1374.35 748.259 1385.1 746.518 1388.03 748.573 C 1405.18 760.569 1390.15 785.167 1370.06 773.418 C 1368.04 772.236 1366.85 770.791 1366.16 768.192 C 1365.09 748.124 1351.77 747.001 1335.09 736.812 C 1309.87 721.416 1282.43 707.123 1256.24 692.241 L 1194.06 656.731 C 1181.7 649.703 1166.57 640.689 1153.79 634.967 C 1152.3 636.562 1143.86 653.511 1142.1 656.882 C 1142.83 659.301 1143.14 660.242 1143.44 662.731 C 1138.22 663.476 1136.63 663.332 1134.57 669.158 C 1131.59 666.94 1131.07 666.472 1128.6 663.692 C 1129.68 659.166 1134.56 658.143 1137.3 652.967 C 1142.25 643.598 1144.95 634.825 1148.47 625.003 C 1151.67 627.634 1151.85 628.227 1153.29 632.001 L 1273.9 699.783 C 1302.8 715.875 1341.11 736.26 1368.48 754.321 C 1361.79 765.777 1371.35 775.71 1383.45 773.88 C 1396.92 771.84 1395.65 754.959 1385.57 749.804 C 1381.95 747.954 1378.67 748.13 1374.76 749.163 C 1363.85 747.712 1316.09 718.531 1303.9 711.682 L 1184.8 644.643 C 1178.68 641.143 1167.01 633.036 1161.94 630.597 C 1153.75 624.658 1153.67 621.24 1158.95 612.113 z" fill="rgb(7,30,49)" fill-opacity="0.0235294" transform="translate(0,0)"></path>
<path d="M 1343.95 940.864 C 1348.53 939.834 1350.55 939.915 1355.26 939.901 C 1359.88 942.008 1361.05 942.591 1365.09 945.624 L 1366.34 946.159 C 1369.6 950.229 1371 952.09 1373.58 956.591 C 1372.64 967.572 1371.85 969.295 1366.36 978.511 C 1356.47 983.67 1345.09 985.786 1335.85 977.814 C 1334.98 976.59 1334.16 975.333 1333.39 974.047 C 1324.79 959.846 1329.79 948.962 1343.24 940.992 L 1343.95 940.864 z" fill="rgb(42,165,224)" fill-opacity="0.984314" transform="translate(0,0)"></path>
<path d="M 1190.18 497.593 L 1192.16 499.23 C 1184.26 505.932 1156.04 517.366 1152.47 524.452 L 1152.64 527.445 C 1155.89 533.226 1158.11 542.347 1157.6 548.888 C 1155.03 553.877 1157.54 554.413 1158.99 559.09 C 1160.4 563.671 1160.63 569.242 1162.61 573.582 C 1168.06 574.392 1173.71 574.109 1178.04 574.777 C 1174.01 574.741 1167.9 574.191 1164.62 575.956 L 1165.47 577.04 C 1183.08 578.688 1222.55 577.553 1241.42 577.531 L 1372.12 578.068 L 1414.81 578.14 C 1418.19 578.151 1423.87 577.354 1426.44 577.672 C 1430.87 591.625 1443.48 592.679 1448.44 579.233 L 1448.88 579.432 L 1449.06 582.085 L 1448.26 585.21 C 1445.57 588.933 1442 589.638 1437.64 590.948 C 1431 589.578 1426.4 585.423 1421.16 581.161 C 1382.05 579.075 1343.9 579.885 1304.8 579.519 C 1256.32 579.066 1210.34 578.194 1161.86 580.604 C 1162.49 593.922 1157.53 600.909 1158.95 612.113 C 1153.67 621.24 1153.75 624.658 1161.94 630.597 L 1159.79 631.935 L 1155.48 630.474 C 1154.46 631.061 1153.95 631.169 1153.29 632.001 C 1151.85 628.227 1151.67 627.634 1148.47 625.003 C 1161.6 583.246 1157.22 553.805 1140.51 514.313 C 1142.11 515.904 1146.16 520.505 1147.56 520.168 C 1156.27 518.071 1183.3 501.559 1190.18 497.593 z" fill="rgb(7,30,49)" fill-opacity="0.87451" transform="translate(0,0)"></path>
<path d="M 864.637 574.661 L 866.496 575.107 C 868.937 572.82 869.848 568.887 871.012 565.56 C 871.692 572.411 871.437 578.095 871.264 584.944 C 867.27 580.151 867.105 580.374 861.533 580.823 C 847.306 578.092 796.559 580.867 779.323 580.717 C 727.386 580.265 673.961 581.747 622.108 580.875 C 611.007 592.522 598.895 596.401 592.045 577.82 C 594.725 573.996 594.628 570.087 599.149 568.077 C 594.409 572.307 593.855 579.525 597.892 584.43 C 601.93 589.335 609.12 590.178 614.182 586.339 C 619.245 582.501 620.374 575.35 616.741 570.139 C 620.473 572.294 622.903 573.724 626.336 576.299 C 636.17 574.755 673.79 575.948 686.714 575.964 L 797.979 575.885 C 821.846 575.779 840.811 576.503 864.637 574.661 z" fill="rgb(25,119,130)" fill-opacity="0.972549" transform="translate(0,0)"></path>
<path d="M 1472.99 310.216 C 1488.32 316.446 1497.64 323.049 1504.34 339.008 C 1503.23 392.384 1502.96 445.774 1503.51 499.159 L 1500.53 500.072 C 1488.8 491.97 1502.74 355.365 1495.18 331.484 C 1493.34 327.721 1491.03 327.568 1488.49 322.944 C 1484.75 316.908 1478.46 314.844 1472.09 312.244 L 1471.53 310.903 L 1472.99 310.216 z" fill="rgb(16,54,82)" fill-opacity="0.713725" transform="translate(0,0)"></path>
<path d="M 330.703 515.722 C 338.19 504.731 342.748 502.9 355.816 503.328 C 363.321 509.85 366.091 511.189 369.582 520.421 C 368.731 529.095 368.091 534.734 360.288 540.243 C 355.962 543.305 350.576 544.473 345.371 543.48 C 331.313 540.802 328.22 528.073 330.703 515.722 z" fill="rgb(42,165,224)" fill-opacity="0.988235" transform="translate(0,0)"></path>
<path d="M 838.698 308.303 C 942.888 305.364 1049.31 308.19 1153.83 307.561 L 1283.03 307.674 C 1311.74 307.542 1348.93 305.616 1376.88 309.297 C 1347.35 311.123 1304.22 309.821 1273.8 309.843 L 1077.75 309.907 C 1052.66 309.894 1013.36 308.632 989.586 310.22 L 988.147 310.233 C 972.843 309.412 951.31 310.075 935.627 310.072 C 899.838 310.188 864.048 310.085 828.26 309.765 C 832.197 308.884 835.064 310.719 838.698 308.303 z" fill="rgb(185,188,193)" fill-opacity="0.984314" transform="translate(0,0)"></path>
<path d="M 1742 418.269 L 1742 419.424 L 1738.88 421.46 L 1741.26 421.693 L 1741.13 420.679 C 1743.69 422.262 1745.84 421.642 1748.06 419.634 L 1751.1 424.234 C 1747.53 423.351 1742.86 422.323 1739.26 423.548 C 1683.9 442.395 1633.03 470.875 1576.56 487.057 L 1575.7 488.408 C 1579.92 496.235 1586.27 501.299 1588.87 509.619 C 1586.18 507.578 1579.15 497.469 1576.76 494.19 C 1574.12 490.717 1575.17 490.958 1571.78 490.41 L 1571.75 490.85 L 1570.84 490.842 C 1558.95 490.827 1546.43 501.257 1536.28 503.657 C 1536.24 502.555 1536.47 501.889 1536.7 500.766 C 1535.71 500.899 1563.19 490.282 1565.65 489.493 C 1564.92 489.037 1564.25 488.751 1563.44 488.461 C 1565.52 485.399 1590.99 477.736 1597.11 475.347 C 1623 465.036 1648.74 454.351 1674.32 443.295 C 1688.57 437.22 1727.57 420.828 1742 418.269 z" fill="rgb(17,61,88)" fill-opacity="0.862745" transform="translate(0,0)"></path>
<path d="M 1093.01 880.838 C 1097.4 879.082 1109.09 873.451 1112.83 873.525 C 1106.44 878.543 1095.21 883.208 1087.5 886.707 C 1037.38 909.452 987.609 932.152 938.885 957.872 C 928.791 963.2 912.088 965.29 903.787 971.129 C 901.004 972.49 899.318 973.313 896.319 974.322 L 895.388 973.265 L 896.433 969.066 C 905.676 969.612 985.61 927.751 999.638 921.359 C 998.012 924.839 985.956 929.79 981.617 931.904 L 981.412 932.759 C 988.059 930.267 1001.46 924.52 1006.86 920.265 L 1005.92 918.438 C 1032.15 907.505 1066.43 888.06 1093.01 880.838 z" fill="rgb(16,54,82)" fill-opacity="0.968627" transform="translate(0,0)"></path>
<path d="M 651.04 748.884 C 652.556 749.337 658.2 750.895 659.04 750.534 C 680.216 741.443 711.584 721.453 730.212 710.087 C 765.806 688.35 801.778 667.24 838.113 646.766 C 846.254 642.139 854.325 637.389 862.321 632.516 C 866.658 629.819 870.712 625.336 875.781 625.682 L 873.696 627.971 L 874.16 628.907 L 872.615 632.202 C 863.083 634.752 659.026 757.997 659.535 757.166 C 658.904 758.219 658.362 759.323 657.914 760.466 C 657.407 754.044 655.851 753.553 651.04 748.884 z" fill="rgb(17,149,146)" fill-opacity="0.952941" transform="translate(0,0)"></path>
<path d="M 1161.94 630.597 C 1167.01 633.036 1178.68 641.143 1184.8 644.643 L 1303.9 711.682 C 1316.09 718.531 1363.85 747.712 1374.76 749.163 C 1372.7 750.912 1370.65 752.714 1368.48 754.321 C 1341.11 736.26 1302.8 715.875 1273.9 699.783 L 1153.29 632.001 C 1153.95 631.169 1154.46 631.061 1155.48 630.474 L 1159.79 631.935 L 1161.94 630.597 z" fill="rgb(17,149,146)" fill-opacity="0.960784" transform="translate(0,0)"></path>
<path d="M 1682.89 698.124 L 1685.19 699.7 C 1684.98 701.084 1684.82 702.303 1684.52 703.676 C 1679.61 707.86 1669.68 714.42 1663.87 718.846 C 1640.7 736.5 1617.17 753.676 1593.29 770.363 C 1576.18 782.385 1556.5 799.034 1537.72 806.796 L 1537.39 806.201 C 1546.88 797.601 1556.15 792.391 1565.75 784.79 C 1573.99 778.265 1581.87 771.427 1590.33 764.847 C 1613.6 747.123 1637.18 729.814 1661.06 712.927 C 1667.49 708.461 1676.46 701.049 1682.89 698.124 z" fill="rgb(16,54,82)" fill-opacity="0.933333" transform="translate(0,0)"></path>
<path d="M 1160.23 770.465 C 1159.76 766.333 1160.19 764.525 1160.83 760.445 C 1162.06 772.197 1163.14 781.561 1168.78 792.248 C 1185.45 796.49 1221.6 802.391 1231.93 814.217 C 1236.82 815.072 1250.33 802.601 1255.89 800.154 C 1239.54 820.969 1214.76 824.62 1191.03 815.277 C 1187.85 813.498 1184.3 811.193 1181.15 809.255 C 1177.45 806.212 1174.08 802.54 1170.74 799.081 L 1166.83 792.906 L 1163.84 786.43 C 1161.66 779.727 1161.22 777.277 1160.23 770.465 z" fill="rgb(17,149,146)" fill-opacity="0.964706" transform="translate(0,0)"></path>
<path d="M 1198.14 164.061 C 1202.68 159.727 1209.14 158.074 1215.2 159.703 C 1221.26 161.331 1226.03 166.005 1227.77 172.028 C 1230.49 181.401 1225.22 191.229 1215.91 194.149 C 1206.6 197.069 1196.66 192.01 1193.54 182.762 C 1193.43 182.44 1193.33 182.116 1193.24 181.788 C 1191.49 175.428 1193.38 168.62 1198.14 164.061 z" fill="rgb(42,165,224)" fill-opacity="0.988235" transform="translate(0,0)"></path>
<path d="M 866.246 1004.72 C 835.402 969.872 908.192 956.793 890.42 1001.14 C 883.634 1010.05 875.572 1008.68 866.246 1004.72 z" fill="rgb(42,165,224)" fill-opacity="0.988235" transform="translate(0,0)"></path>
<path d="M 1376.88 309.297 C 1383.73 309.199 1393.34 308.785 1399.97 309.108 C 1419.93 311.434 1451.4 309.169 1472.99 310.216 L 1471.53 310.903 C 1457.75 310.69 1442.86 311.365 1429.01 311.644 C 1421.44 311.797 1407.67 311.766 1400.57 312.835 C 1330.66 313.108 1258.97 310.955 1189.04 311.169 L 1076.68 311.639 C 1047.06 311.753 1019.26 312.259 989.586 310.22 C 1013.36 308.632 1052.66 309.894 1077.75 309.907 L 1273.8 309.843 C 1304.22 309.821 1347.35 311.123 1376.88 309.297 z" fill="rgb(16,54,82)" fill-opacity="0.988235" transform="translate(0,0)"></path>
<path d="M 448.287 541.971 C 447.709 541.955 447.131 541.949 446.553 541.956 C 443.455 542.013 442.083 542.125 439.68 544.238 C 426.038 556.232 418.14 571.999 407.294 585.668 C 391.925 604.591 375.404 622.549 359.018 640.584 C 356.106 643.789 347.336 651.319 343.071 647.106 C 344.591 644.526 347.333 645.285 351.774 643.554 C 358.188 632.774 370.361 620.876 378.548 610.641 C 396.209 588.56 412.732 565.421 431.884 544.665 C 436.437 539.73 426.949 526.756 430.865 519.67 C 437.192 530.566 429.784 537.27 449.239 539.16 L 448.287 541.971 z M 401.082 588.031 C 403.358 585.21 405.561 582.332 407.689 579.398 L 406.993 577.896 L 400.313 586.329 L 400.485 587.58 L 401.082 588.031 z" fill="rgb(16,54,82)" fill-opacity="0.909804" transform="translate(0,0)"></path>
<path d="M 406.993 577.896 L 407.689 579.398 C 405.561 582.332 403.358 585.21 401.082 588.031 L 400.485 587.58 L 400.313 586.329 L 406.993 577.896 z" fill="rgb(16,54,82)" fill-opacity="0.552941" transform="translate(0,0)"></path>
<path d="M 1296.45 573.95 C 1300.41 574.356 1321.94 574.46 1325.13 574.174 C 1340.56 572.791 1421.08 577.788 1427.3 573.663 C 1427.17 575.247 1427.23 576.292 1426.44 577.672 C 1423.87 577.354 1418.19 578.151 1414.81 578.14 L 1372.12 578.068 L 1241.42 577.531 C 1222.55 577.553 1183.08 578.688 1165.47 577.04 L 1164.62 575.956 C 1167.9 574.191 1174.01 574.741 1178.04 574.777 L 1296.45 573.95 z" fill="rgb(17,149,146)" fill-opacity="0.909804" transform="translate(0,0)"></path>
<path d="M 1448.88 579.432 C 1451.89 563.876 1445.07 565.943 1445.35 559.785 L 1447.21 560.736 C 1449.5 559.705 1465.05 552.439 1465.62 552.671 C 1490.13 562.649 1486.46 546.907 1494.18 528.546 C 1495.06 529.676 1495.78 530.564 1496.73 531.655 L 1497.34 526.331 C 1501.38 531.21 1502.03 542.034 1502.93 548.438 L 1503.02 559.392 L 1498.25 545.531 C 1496.3 551.141 1493.16 560.837 1490.47 565.612 C 1470.8 565.227 1453.96 557.276 1449.67 582.081 L 1449.06 582.085 L 1448.88 579.432 z" fill="rgb(16,54,82)" fill-opacity="0.447059" transform="translate(0,0)"></path>
<path d="M 1512.79 456.974 C 1515.33 448.961 1529.6 441.147 1536.15 448.575 C 1519.07 453.463 1527.03 475.292 1527.11 488.203 C 1527.14 492.273 1523.49 495.636 1524.05 499.94 L 1525.96 502.305 L 1526.18 503.139 C 1522.5 504.189 1518.21 505.767 1514.51 505.258 C 1510.34 500.033 1513.13 466.528 1512.79 456.974 z" fill="rgb(7,30,49)" fill-opacity="0.156863" transform="translate(0,0)"></path>
<path d="M 1400.57 312.835 C 1407.67 311.766 1421.44 311.797 1429.01 311.644 C 1442.86 311.365 1457.75 310.69 1471.53 310.903 L 1472.09 312.244 C 1469.88 315.204 1470.38 313.811 1470.21 317.505 C 1473.08 321.948 1483.44 324.324 1488.49 322.944 C 1491.03 327.568 1493.34 327.721 1495.18 331.484 C 1494.48 336.267 1493.56 346.432 1490.29 349.363 C 1484.97 345.294 1485.5 345.42 1478.81 345.181 C 1475.67 345.07 1474.6 343.419 1473.31 340.936 C 1472.62 340.182 1472.74 340.083 1472.35 339.035 C 1479.53 336.815 1487.06 347.075 1490.96 339.681 C 1490.98 337.036 1489.53 332.617 1487.87 330.88 C 1483.35 326.143 1471.18 328.766 1465.66 326.864 C 1461.73 325.511 1453.63 319.179 1449.64 317.948 C 1446.9 317.099 1436.74 319.011 1433.65 318.437 C 1418.55 315.638 1416.49 312.832 1400.57 312.835 z" fill="rgb(16,54,82)" fill-opacity="0.282353" transform="translate(0,0)"></path>
<path d="M 437.661 511.136 C 445.213 510.534 444.184 507.249 454.994 510.188 L 458.75 513.336 C 466.685 525.567 463.608 536.047 449.239 539.16 C 429.784 537.27 437.192 530.566 430.865 519.67 C 432.014 514.329 432.29 513.389 437.661 511.136 z" fill="rgb(42,165,224)" fill-opacity="0.984314" transform="translate(0,0)"></path>
<path d="M 357.659 696.506 L 358.319 694.589 C 363.498 694.239 363.658 698.844 369.258 697.942 C 374.122 699.813 393.336 712.23 398.723 715.333 C 434.971 736.216 469.687 760.526 503.985 784.551 L 503.048 785.154 C 491.001 778.338 476.853 771.922 465.726 763.713 C 431.315 738.325 393.676 719.556 357.659 696.506 z" fill="rgb(16,54,82)" fill-opacity="0.905882" transform="translate(0,0)"></path>
<path d="M 343.31 546.644 C 333.745 539.331 321.72 528.548 330.703 515.722 C 328.22 528.073 331.313 540.802 345.371 543.48 C 350.576 544.473 355.962 543.305 360.288 540.243 C 368.091 534.734 368.731 529.095 369.582 520.421 C 372.675 546.8 364.736 536.809 348.292 551.381 C 355.004 555.419 349.187 559.702 348.1 566.87 C 346.395 578.12 344.529 587.365 340.44 598.006 C 340.131 589.821 347.784 551.589 345.485 547.926 C 344.719 549.271 331.549 650.956 331.826 654.386 L 332.606 654.855 C 333.152 651.517 335.777 630.329 336.848 628.812 L 337.385 629.757 C 337.21 633.221 336.109 646.935 336.815 648.903 L 345.143 653.023 C 345.096 655.777 341.886 656.231 340.949 660.716 C 336.62 661.189 333.891 658.498 330.42 655.963 C 330.857 651.997 330.497 647.155 330.819 642.918 C 333.247 610.95 340.468 578.434 343.31 546.644 z" fill="rgb(7,30,49)" fill-opacity="0.960784" transform="translate(0,0)"></path>
<path d="M 1512.31 414.838 C 1514.6 417.432 1516.82 420.026 1519.32 422.416 C 1525.74 430.463 1532.98 437.523 1540.23 444.846 C 1547.24 451.942 1556.14 467.603 1564.21 472.138 C 1565.51 474.927 1567.3 477.71 1566.88 480.562 C 1560.35 480.066 1541.84 454.902 1536.15 448.575 C 1529.6 441.147 1515.33 448.961 1512.79 456.974 C 1512.58 451.588 1511.39 418.494 1512.31 414.838 z" fill="rgb(7,30,49)" fill-opacity="0.678431" transform="translate(0,0)"></path>
<path d="M 1317.01 422.978 C 1321.9 424.944 1323.39 434.163 1321.81 438.579 C 1319.1 446.173 1307.45 445.868 1301.66 448.906 C 1290.99 443.711 1294.37 444.754 1284.97 449.105 C 1277.96 452.25 1270.91 456.507 1264.28 460.474 C 1227 482.79 1189.03 503.763 1152.64 527.445 L 1152.47 524.452 C 1156.04 517.366 1184.26 505.932 1192.16 499.23 C 1196.26 495.216 1227.17 480.194 1237.06 472.166 C 1241.02 470.911 1249.78 465.158 1253.11 462.652 C 1256 462.354 1259.69 459.37 1261.93 457.595 C 1267.94 454.594 1288.16 442.937 1292.24 438.547 L 1294.51 438.056 L 1295.58 438.793 C 1312.77 450.424 1323.39 442.516 1317.01 422.978 z" fill="rgb(16,54,82)" fill-opacity="0.956863" transform="translate(0,0)"></path>
<path d="M 1498.25 545.531 L 1503.02 559.392 L 1503.24 568.226 C 1499.5 565.647 1500.33 565.303 1496.76 565.707 C 1493.9 569.015 1494.62 574.813 1490.35 575.79 C 1488.25 573.788 1486.17 574.263 1483.17 574.36 C 1476.97 574.562 1475.82 582.135 1470.03 584.122 C 1465.4 583.137 1462.69 579.562 1459.01 576.207 L 1449.67 582.081 C 1453.96 557.276 1470.8 565.227 1490.47 565.612 C 1493.16 560.837 1496.3 551.141 1498.25 545.531 z" fill="rgb(16,54,82)" fill-opacity="0.34902" transform="translate(0,0)"></path>
<path d="M 458.75 513.336 C 478.795 517.091 504.547 490.199 515.862 491.985 L 516.669 493.405 C 513.555 498.658 512.042 494.799 506.704 497.366 C 493.1 503.907 479.71 511.285 465.814 517.17 C 464.863 524.056 465.06 527.667 466.068 534.586 C 463.277 535.518 457.718 536.896 456.168 539 C 460.249 542.464 462.139 537.627 460.022 546.411 C 463.597 558.965 475.786 580.182 480.642 593.493 C 482.696 599.123 485.044 598.765 486.106 606.449 L 485.503 607.071 C 484.333 604.396 484.069 603.776 482.266 601.497 L 480.975 604.148 C 475.458 601.975 463.216 564.478 457.602 558.181 C 456.687 557.154 453.584 552.089 452.696 550.64 C 453.02 548.544 453.309 547.079 453.826 545.023 C 451.856 542.385 451.884 543.039 448.287 541.971 L 449.239 539.16 C 463.608 536.047 466.685 525.567 458.75 513.336 z" fill="rgb(7,30,49)" fill-opacity="0.980392" transform="translate(0,0)"></path>
<path d="M 1365.09 945.624 C 1372.94 936.4 1384.7 928.209 1394.35 920.564 L 1439.14 885.012 C 1445.47 879.937 1451.21 873.078 1458.03 869.394 L 1459.01 869.661 L 1455.44 873.745 L 1457.15 874.55 C 1445.61 887.373 1381.52 941.611 1367.69 944.767 L 1366.34 946.159 L 1365.09 945.624 z" fill="rgb(7,30,49)" fill-opacity="0.921569" transform="translate(0,0)"></path>
<path d="M 774.638 929.712 C 787.76 933.744 840.058 967.878 848.509 963.089 C 849.551 962.499 850.47 961.618 851.333 960.797 L 856.938 960.287 C 869.217 976.419 872.728 965.412 880.968 971.245 C 888.751 972.042 887.973 976.136 895.962 979.822 C 896.03 988.635 897.387 994.558 890.42 1001.14 C 908.192 956.793 835.402 969.872 866.246 1004.72 C 859.493 1000.99 858.425 997.14 855.329 990.162 C 856.995 984.434 858.205 978.105 862.362 973.716 C 861.245 971.227 855.171 974.951 852.718 973.712 C 846.868 970.76 840.931 967.454 835.038 964.55 C 823.942 956.023 781.588 937.262 774.638 929.712 z" fill="rgb(7,30,49)" fill-opacity="0.933333" transform="translate(0,0)"></path>
<path d="M 1152.64 527.445 C 1189.03 503.763 1227 482.79 1264.28 460.474 C 1270.91 456.507 1277.96 452.25 1284.97 449.105 L 1286.31 451.63 C 1282.8 455.591 1274.47 461.544 1274 465.907 C 1269.83 467.996 1255.01 476.89 1252.98 477.387 C 1251.92 473.974 1257.14 470.762 1255.34 468.847 C 1252.53 473.112 1253.8 472.863 1249.95 473.927 C 1247.14 473.213 1245.95 473.279 1243.39 475.102 C 1234.66 481.33 1161.03 521.071 1158.05 527.189 C 1158.29 532.217 1158.61 544.561 1160.96 548.501 C 1166.32 551.021 1167.02 555.299 1165.81 560.902 L 1164.6 562.328 C 1161.87 556.688 1168.79 556.431 1162.59 550.484 C 1160.94 550.063 1159 549.723 1157.6 548.888 C 1158.11 542.347 1155.89 533.226 1152.64 527.445 z" fill="rgb(17,61,88)" fill-opacity="0.129412" transform="translate(0,0)"></path>
<path d="M 707.115 437.71 C 707 432.217 706.275 428.002 709.556 424.015 C 709.311 425.481 709.092 426.951 708.897 428.425 C 707.205 441.508 729.822 450.051 730.055 425.603 C 730.888 428.564 731.174 431.791 733.415 433.275 C 743.188 439.745 754.959 445.82 765.02 451.797 L 865.973 511.45 C 868.411 513.006 874.377 516.458 875.798 518.495 C 860.024 513.16 843.065 500.602 828.388 492.584 C 813.218 484.297 798.448 473.676 782.915 466.144 C 769.464 457.871 746.254 442.149 732.019 439.635 C 727.697 441.072 722.02 442.303 717.504 443.415 L 707.115 437.71 z" fill="rgb(17,149,146)" fill-opacity="0.984314" transform="translate(0,0)"></path>
<path d="M 1374.76 749.163 C 1378.67 748.13 1381.95 747.954 1385.57 749.804 C 1395.65 754.959 1396.92 771.84 1383.45 773.88 C 1371.35 775.71 1361.79 765.777 1368.48 754.321 C 1370.65 752.714 1372.7 750.912 1374.76 749.163 z" fill="rgb(9,221,209)" fill-opacity="0.984314" transform="translate(0,0)"></path>
<path d="M 1247.87 719.778 L 1251.81 721.924 C 1254.26 725.275 1258.44 730.868 1262.1 732.593 L 1263.89 732.161 L 1265.27 729.62 C 1274.76 742.749 1281.82 764.377 1274.83 779.937 C 1270.9 777.969 1269.74 779.102 1265.54 780.305 C 1270.8 757.925 1264.33 738.397 1247.39 723.15 L 1247.87 719.778 z" fill="rgb(16,54,82)" fill-opacity="0.701961" transform="translate(0,0)"></path>
<path d="M 1232.81 192.414 C 1235.92 192.854 1237 193.151 1239.77 191.565 C 1242.98 191.644 1342.17 243.088 1355.95 249.681 C 1349.58 252.293 1327.26 238.437 1317.75 234.621 C 1311.62 232.952 1301.77 225.261 1288.82 221.658 C 1284.09 216.604 1242.27 198.801 1232.81 192.414 z" fill="rgb(9,63,83)" fill-opacity="0.952941" transform="translate(0,0)"></path>
<path d="M 1257.99 797.336 L 1258.73 797.798 C 1257.18 802.269 1257.77 802.869 1254.16 805.947 C 1251.06 808.589 1247.01 811.528 1245.67 815.388 L 1245.33 816.375 C 1245.02 817.258 1244.78 818.06 1244.52 818.951 C 1226.89 831.669 1205.17 824.779 1195.01 828.731 L 1194.46 828.315 L 1194.7 826.267 C 1193.3 823.77 1185.21 820.218 1181.94 818.38 C 1184.17 814.299 1186.77 815.346 1191.03 815.277 C 1214.76 824.62 1239.54 820.969 1255.89 800.154 L 1257.99 797.336 z" fill="rgb(16,54,82)" fill-opacity="0.780392" transform="translate(0,0)"></path>
<path d="M 352.568 661.748 C 393.405 644.361 437.472 630.4 478.388 612.636 C 480.145 611.873 482.381 612.564 484.085 613.185 L 484.117 613.93 C 483.825 613.99 483.534 614.049 483.243 614.109 C 443.299 630.166 403.854 647.21 363.417 662.211 C 360.712 663.214 358.919 665.181 355.994 665.031 C 357.39 662.549 360.028 663.626 360.563 661.364 C 358.34 661.974 356.397 662.423 354.283 663.387 L 352.568 661.748 z" fill="rgb(17,61,88)" fill-opacity="0.933333" transform="translate(0,0)"></path>
<path d="M 333.524 685.173 C 335.602 684.286 338.884 683.102 340.021 681.283 C 345.542 672.451 354.322 681.335 367.34 678.2 C 372.451 679.525 378.738 680.456 383.527 681.891 C 395.324 685.428 406.65 684.876 418.516 686.799 C 437.882 689.937 457.214 693.608 476.673 696.258 L 472.466 697.228 C 475.398 698.531 479.529 699.049 482.777 699.634 L 481.373 700.371 C 455.364 697.968 375.045 679.358 355.314 684.459 C 354.926 683.307 354.681 682.774 354.154 681.677 C 350.62 680.421 349.516 680.347 345.928 679.963 L 343.832 681.124 L 343.204 684.018 C 346.29 687.937 350.386 686.845 353.371 690.773 L 352.873 692.55 C 344.686 687.024 343.304 686.047 333.524 685.173 z" fill="rgb(17,61,88)" fill-opacity="0.894118" transform="translate(0,0)"></path>
<path d="M 1335.85 977.814 C 1317.72 962.355 1332.66 952.785 1330.63 943.788 C 1320.75 931.31 1279.92 879.364 1268.44 874.448 L 1267.41 874.009 C 1270.35 873.588 1273.77 874.729 1276.77 875.451 C 1278.7 878.036 1281.61 882.15 1284.19 884.012 C 1303.08 897.618 1314.59 919.516 1330.46 936.284 C 1335.01 941.096 1337 940.912 1343.24 940.992 C 1329.79 948.962 1324.79 959.846 1333.39 974.047 C 1334.16 975.333 1334.98 976.59 1335.85 977.814 z" fill="rgb(7,30,49)" fill-opacity="0.756863" transform="translate(0,0)"></path>
<path d="M 1252.74 223.257 C 1255.22 222.602 1260.5 224.321 1263.21 225.278 C 1273.87 237.894 1327.93 285.031 1330.88 293.223 C 1331.42 294.723 1331.2 294.784 1330.51 296.2 C 1327.31 296.244 1312.41 279.956 1309.1 276.82 L 1252.74 223.257 z" fill="rgb(17,61,88)" fill-opacity="0.87451" transform="translate(0,0)"></path>
<path d="M 1302.73 419.603 C 1309.2 419.008 1311.22 419.866 1317.01 422.978 C 1323.39 442.516 1312.77 450.424 1295.58 438.793 L 1294.51 438.056 L 1292.24 438.547 C 1295.38 434.523 1294.44 433.816 1293.38 429.243 C 1296.22 424.171 1298.01 422.801 1302.73 419.603 z" fill="rgb(9,221,209)" fill-opacity="0.976471" transform="translate(0,0)"></path>
<path d="M 657.914 760.466 C 652.835 785.538 631.577 771.216 633.382 755.433 C 634.143 748.781 645.128 747.579 651.04 748.884 C 655.851 753.553 657.407 754.044 657.914 760.466 z" fill="rgb(9,221,209)" fill-opacity="0.988235" transform="translate(0,0)"></path>
<path d="M 1628.29 177.519 C 1632.32 175.779 1636.98 176.355 1640.47 179.023 C 1643.96 181.692 1645.73 186.037 1645.11 190.386 C 1644.49 194.734 1641.56 198.407 1637.47 199.989 C 1631.3 202.372 1624.36 199.378 1621.86 193.256 C 1619.36 187.135 1622.21 180.137 1628.29 177.519 z M 1633.22 193.711 C 1637.75 193.036 1636.33 193.854 1639.11 191.032 C 1640.2 188.072 1640.03 187.648 1639.03 184.621 C 1638.03 183.553 1637.17 182.467 1635.91 181.747 C 1632.57 183.148 1628.56 184.287 1626.79 187.297 C 1627.55 191.247 1629.56 191.923 1633.22 193.711 z" fill="rgb(246,245,243)" fill-opacity="0.988235" transform="translate(0,0)"></path>
<path d="M 1635.91 181.747 C 1637.17 182.467 1638.03 183.553 1639.03 184.621 C 1640.03 187.648 1640.2 188.072 1639.11 191.032 C 1636.33 193.854 1637.75 193.036 1633.22 193.711 C 1629.56 191.923 1627.55 191.247 1626.79 187.297 C 1628.56 184.287 1632.57 183.148 1635.91 181.747 z" fill="url(#Gradient1)" transform="translate(0,0)"></path>
<path d="M 892.424 858.029 C 926.041 853.942 966.336 858.52 1000.58 857.004 C 1008.46 856.655 1017.51 858.118 1025.18 857.722 C 1068.36 855.497 1110.92 857.583 1154.01 858.365 C 1112.86 859.036 1071.7 859.198 1030.54 858.853 C 984.477 858.89 938.166 859.292 892.123 858.801 L 892.424 858.029 z" fill="rgb(185,188,193)" fill-opacity="0.960784" transform="translate(0,0)"></path>
<path d="M 333.524 685.173 C 316.159 686.91 304.024 670.845 318.598 661.959 C 318.523 667.085 319.515 673.625 322.831 677.687 C 331.531 681.685 334.334 663.048 341.538 665.499 L 343.408 667.745 L 347.463 668.46 C 347.656 669.525 347.637 668.935 347.393 670.229 C 350.848 674.822 354.206 676.338 359.749 677.125 L 367.34 678.2 C 354.322 681.335 345.542 672.451 340.021 681.283 C 338.884 683.102 335.602 684.286 333.524 685.173 z" fill="rgb(16,54,82)" fill-opacity="0.980392" transform="translate(0,0)"></path>
<path d="M 1513.57 356.801 L 1513.73 357.726 C 1514.71 363.173 1516.56 364.14 1518.21 368.71 C 1519.65 372.701 1517.04 384.129 1517.99 387.846 C 1521.59 401.933 1523.71 408.462 1523.33 423.059 L 1522.68 423.858 C 1521.57 423.291 1520.48 422.571 1519.32 422.416 C 1516.82 420.026 1514.6 417.432 1512.31 414.838 C 1513.26 396.24 1510.67 375.846 1513.57 356.801 z" fill="rgb(7,30,49)" fill-opacity="0.192157" transform="translate(0,0)"></path>
<path d="M 361.3 360.679 C 351.552 347.106 362.091 341.546 374.468 340.108 C 389.162 355.592 379.879 369.321 361.3 360.679 z" fill="rgb(9,221,209)" fill-opacity="0.988235" transform="translate(0,0)"></path>
<path d="M 599.149 568.077 C 601.675 565.822 605.046 564.757 608.409 565.152 C 611.772 565.546 614.805 567.361 616.741 570.139 C 620.374 575.35 619.245 582.501 614.182 586.339 C 609.12 590.178 601.93 589.335 597.892 584.43 C 593.855 579.525 594.409 572.307 599.149 568.077 z" fill="rgb(9,221,209)" fill-opacity="0.980392" transform="translate(0,0)"></path>
<path d="M 798.544 882.925 L 798.519 879.958 C 812.248 898.573 831.138 914.525 843.77 935.277 C 848.258 942.65 853.3 955.428 856.938 960.287 L 851.333 960.797 C 845.782 955.813 846.584 947.614 842.307 941.959 C 827.826 922.814 813.65 901.571 797.852 883.67 L 798.544 882.925 z" fill="rgb(7,30,49)" fill-opacity="0.964706" transform="translate(0,0)"></path>
<path d="M 676.185 881.409 C 691.807 885.581 717.545 902.188 732.967 909.172 C 738.632 911.738 745.21 916.217 751.238 917.38 C 752.86 917.693 755.506 919.354 756.993 920.244 L 755.708 921.667 C 762.516 926.257 812.041 952.498 812.899 954.557 C 806.561 953.603 761.471 927.315 753.393 923.221 C 727.527 910.113 699.708 896.301 674.343 882.236 L 676.185 881.409 z" fill="rgb(7,30,49)" fill-opacity="0.952941" transform="translate(0,0)"></path>
<path d="M 659.464 211.872 C 678.548 206.134 688.127 222.398 672.157 232.095 C 656.567 232.463 651.434 225.92 659.464 211.872 z" fill="rgb(18,95,136)" fill-opacity="0.988235" transform="translate(0,0)"></path>
<path d="M 1252.74 223.257 C 1243.57 216.615 1235.83 208.203 1229.97 198.518 L 1230.65 199.248 C 1229.99 197.248 1229.29 195.259 1228.56 193.283 C 1230.47 193.374 1230.63 193.249 1232.35 192.596 L 1232.81 192.414 C 1242.27 198.801 1284.09 216.604 1288.82 221.658 C 1273.51 215.783 1257.98 204.599 1244.1 202.814 L 1243.49 203.892 L 1242.19 203.381 C 1247.91 206.225 1259.22 219.658 1263.21 225.278 C 1260.5 224.321 1255.22 222.602 1252.74 223.257 z" fill="rgb(9,63,83)" fill-opacity="0.592157" transform="translate(0,0)"></path>
<path d="M 1427.3 573.663 C 1434 560.825 1448.04 564.704 1448.44 579.233 C 1443.48 592.679 1430.87 591.625 1426.44 577.672 C 1427.23 576.292 1427.17 575.247 1427.3 573.663 z" fill="rgb(9,221,209)" fill-opacity="0.976471" transform="translate(0,0)"></path>
<path d="M 709.556 424.015 C 718.189 417.998 723.342 416.125 730.055 425.603 C 729.822 450.051 707.205 441.508 708.897 428.425 C 709.092 426.951 709.311 425.481 709.556 424.015 z" fill="rgb(9,221,209)" fill-opacity="0.984314" transform="translate(0,0)"></path>
<path d="M 330.42 655.963 C 333.891 658.498 336.62 661.189 340.949 660.716 C 346.81 660.315 345.904 663.766 352.568 661.748 L 354.283 663.387 C 350.537 664.555 346.572 665.492 343.408 667.745 L 341.538 665.499 C 334.334 663.048 331.531 681.685 322.831 677.687 C 319.515 673.625 318.523 667.085 318.598 661.959 C 321.02 659.85 327.387 657.192 330.42 655.963 z" fill="rgb(16,54,82)" fill-opacity="0.866667" transform="translate(0,0)"></path>
<path d="M 1274.78 445.983 L 1274.99 447.883 C 1270.62 451.681 1264.21 453.922 1261.93 457.595 C 1259.69 459.37 1256 462.354 1253.11 462.652 C 1248.3 464.274 1240.4 468.382 1237.06 472.166 C 1227.17 480.194 1196.26 495.216 1192.16 499.23 L 1190.18 497.593 C 1204.84 489.056 1218.43 479.299 1232.7 470.278 C 1246.18 461.752 1260.83 453.759 1274.78 445.983 z" fill="rgb(25,119,130)" fill-opacity="0.545098" transform="translate(0,0)"></path>
<path d="M 1284.97 449.105 C 1294.37 444.754 1290.99 443.711 1301.66 448.906 L 1300.88 449.606 C 1299.8 450.549 1299.62 450.61 1298.25 451.172 C 1295.77 454.936 1291.76 462.675 1289.2 465.055 C 1284.51 468.219 1281.32 470.887 1276 470.912 C 1274.98 469.501 1274.56 467.632 1274 465.907 C 1274.47 461.544 1282.8 455.591 1286.31 451.63 L 1284.97 449.105 z" fill="rgb(17,61,88)" fill-opacity="0.360784" transform="translate(0,0)"></path>
<path d="M 1108.13 166.581 C 1131.45 168.507 1154.66 170.859 1177.94 173.053 C 1192.56 174.431 1188.98 170.02 1198.14 164.061 C 1193.38 168.62 1191.49 175.428 1193.24 181.788 C 1191.96 180.156 1190.12 178.241 1187.97 178.026 C 1170.66 176.289 1153.82 174.779 1136.6 172.064 C 1134.62 169.909 1113.79 169.134 1107.97 167.611 L 1108.13 166.581 z" fill="rgb(18,95,136)" fill-opacity="0.952941" transform="translate(0,0)"></path>
<path d="M 1576.76 494.19 C 1579.15 497.469 1586.18 507.578 1588.87 509.619 C 1596.69 515.507 1609.52 534.405 1614.25 543.616 L 1613.24 542.492 C 1613.6 543.568 1618.79 551.582 1620.1 553.977 L 1619.6 555.129 C 1615.33 552.059 1575.56 499.852 1574.9 495.962 L 1576.76 494.19 z" fill="rgb(17,61,88)" fill-opacity="0.643137" transform="translate(0,0)"></path>
<path d="M 1399.22 271.087 C 1410.44 276.662 1421.9 282.287 1433 288.063 C 1441.37 292.422 1446.63 296.136 1455.61 299.849 L 1455.79 300.656 C 1438.66 301.853 1410.67 280.397 1395.74 274.376 C 1397.05 273.55 1398.14 272.233 1399.22 271.087 z" fill="rgb(9,63,83)" fill-opacity="0.952941" transform="translate(0,0)"></path>
<path d="M 1357.34 875.286 L 1364.13 874.452 C 1353.79 880.119 1357.43 918.444 1356.4 930.439 L 1354.19 930.234 L 1353.36 932.432 L 1352.37 921.849 C 1351.97 924.342 1350.76 935.644 1351.5 937.447 L 1351.89 934.46 C 1353.88 938.789 1351.47 936.488 1355.26 939.901 C 1350.55 939.915 1348.53 939.834 1343.95 940.864 C 1352.29 932.962 1351.71 897.764 1354.17 885.118 C 1354.66 886.11 1354.21 901.306 1354.2 903.778 C 1355.12 901.29 1356.95 879.411 1357.34 875.286 z" fill="rgb(7,30,49)" fill-opacity="0.968627" transform="translate(0,0)"></path>
<path d="M 1518.88 559.471 L 1523.57 559.128 C 1531.18 568.268 1569.52 585.539 1581.25 594.295 C 1583.87 596.254 1590.83 599.551 1593.23 602.191 L 1592.58 603.377 C 1590.93 604.018 1589.19 604.221 1587.54 603.206 C 1566.23 590.088 1545.12 574.771 1522.22 564.677 C 1519.53 563.491 1519.71 562.004 1518.88 559.471 z" fill="rgb(9,63,83)" fill-opacity="0.882353" transform="translate(0,0)"></path>
<path d="M 1490.35 575.79 C 1494.62 574.813 1493.9 569.015 1496.76 565.707 C 1500.33 565.303 1499.5 565.647 1503.24 568.226 C 1503.25 574.067 1503.49 582.137 1503.2 587.8 L 1501.15 586.933 C 1500.71 584.832 1500.26 582.733 1499.8 580.638 C 1494.92 578.312 1484.21 602.179 1479.07 603.746 L 1479.12 602.247 C 1483.01 596.625 1485.4 589.955 1488.04 583.647 C 1489.52 580.133 1487.83 580.211 1490.35 575.79 z" fill="rgb(16,54,82)" fill-opacity="0.176471" transform="translate(0,0)"></path>
<path d="M 538.351 336.631 C 544.382 322.485 559.94 308.746 575.976 309.102 C 572.215 311.714 566.359 313.152 562.167 314.947 C 550.984 319.732 539.972 333.44 538.281 345.737 C 535.644 364.909 537.171 387.39 537.059 406.815 L 534.937 406.094 C 535.08 383.456 533.052 358.14 538.351 336.631 z" fill="rgb(185,188,193)" fill-opacity="0.956863" transform="translate(0,0)"></path>
<path d="M 1317.75 234.621 C 1327.26 238.437 1349.58 252.293 1355.95 249.681 C 1360.18 251.626 1379.56 260.285 1382.25 262.315 L 1384.52 266.019 L 1384.06 267.675 C 1370.08 260.976 1328.11 244.694 1317.75 234.621 z" fill="rgb(18,95,136)" fill-opacity="0.729412" transform="translate(0,0)"></path>
<path d="M 1513.59 514.625 C 1516.96 511.906 1519.79 510.433 1523.57 508.313 C 1523.28 514.455 1522.94 521.786 1522.57 527.848 C 1522.22 533.685 1524.22 544.464 1523.37 548.324 C 1520.79 540.595 1520.47 536.073 1513.49 532.161 C 1513.91 525.336 1514.16 521.516 1513.59 514.625 z" fill="rgb(7,30,49)" fill-opacity="0.0588235" transform="translate(0,0)"></path>
<path d="M 1512.73 563.419 C 1513.59 559.397 1514.83 559.704 1516.22 556.234 C 1510.57 551.02 1513.17 540.16 1513.49 532.161 C 1520.47 536.073 1520.79 540.595 1523.37 548.324 C 1523.42 553.391 1523.71 553.994 1524.68 558.751 L 1523.57 559.128 L 1518.88 559.471 C 1517 560.79 1514.78 562.496 1512.73 563.419 z" fill="rgb(7,30,49)" fill-opacity="0.0862745" transform="translate(0,0)"></path>
<path d="M 337.385 629.757 L 336.848 628.812 C 335.777 630.329 333.152 651.517 332.606 654.855 L 331.826 654.386 C 331.549 650.956 344.719 549.271 345.485 547.926 C 347.784 551.589 340.131 589.821 340.44 598.006 C 340.317 602.864 339.586 626.236 337.385 629.757 z" fill="rgb(16,54,82)" fill-opacity="0.309804" transform="translate(0,0)"></path>
<path d="M 627.788 858.385 C 601.119 859.584 567.612 863.35 548.401 841.017 C 544.21 836.145 537.27 826.087 537.697 819.48 L 538.301 819.358 C 540.406 824.659 541.327 827.34 544.661 832.102 C 567.382 863.949 593.509 855.146 627.788 858.385 z" fill="rgb(185,188,193)" fill-opacity="0.976471" transform="translate(0,0)"></path>
<path d="M 756.993 920.244 C 760.709 921.604 772.299 926.891 774.638 929.712 C 781.588 937.262 823.942 956.023 835.038 964.55 C 829.613 965.954 817.587 957.784 812.899 954.557 C 812.041 952.498 762.516 926.257 755.708 921.667 L 756.993 920.244 z" fill="rgb(17,61,88)" fill-opacity="0.313725" transform="translate(0,0)"></path>
<path d="M 535.11 591.388 C 537.435 596.915 535.434 633.637 536.83 645.508 L 536.946 706.931 L 535.057 708.684 C 534.046 672.786 534.468 627.481 535.11 591.388 z" fill="rgb(145,157,165)" fill-opacity="0.360784" transform="translate(0,0)"></path>
<path d="M 476.673 696.258 C 485.126 697.304 491.127 699.081 499.361 701.07 C 504.964 702.423 525.441 700.883 528.674 704.215 L 529.103 706.019 C 524.48 704.434 523.864 704.276 519.023 704.804 L 520.051 705.143 C 506.986 705.632 493.927 704.021 481.373 700.371 L 482.777 699.634 C 479.529 699.049 475.398 698.531 472.466 697.228 L 476.673 696.258 z" fill="rgb(16,54,82)" fill-opacity="0.513725" transform="translate(0,0)"></path>
<path d="M 535.051 503.012 L 536.991 503.083 L 536.856 589.032 L 535.124 590.64 C 533.815 566.378 534.641 528.029 535.051 503.012 z" fill="rgb(145,157,165)" fill-opacity="0.988235" transform="translate(0,0)"></path>
<path d="M 880.968 971.245 C 882.173 965.14 886.625 963.228 892.362 964.396 C 894.851 966.041 895.497 966.291 896.433 969.066 L 895.388 973.265 L 896.319 974.322 C 899.318 973.313 901.004 972.49 903.787 971.129 C 902.848 974.783 899.231 976.924 895.962 979.822 C 887.973 976.136 888.751 972.042 880.968 971.245 z" fill="rgb(7,30,49)" fill-opacity="0.0431373" transform="translate(0,0)"></path>
<path d="M 352.873 692.55 L 353.371 690.773 C 350.386 686.845 346.29 687.937 343.204 684.018 L 343.832 681.124 L 345.928 679.963 C 349.516 680.347 350.62 680.421 354.154 681.677 C 354.681 682.774 354.926 683.307 355.314 684.459 L 354.649 686.08 L 355.646 686.514 C 362.135 689.39 364.626 692.569 369.258 697.942 C 363.658 698.844 363.498 694.239 358.319 694.589 L 357.659 696.506 C 356.147 695.644 354.221 693.762 352.873 692.55 z" fill="rgb(7,30,49)" fill-opacity="0.780392" transform="translate(0,0)"></path>
<path d="M 1154.73 783.594 L 1152.77 781.524 C 1152.19 775.553 1151.72 757.544 1155.07 752.873 L 1156.51 753.697 C 1160.36 762.22 1161.79 772.765 1155.9 780.695 L 1154.73 783.594 z" fill="rgb(16,54,82)" fill-opacity="0.772549" transform="translate(0,0)"></path>
<path d="M 1258.73 797.798 C 1261.87 797.012 1262.25 796.696 1265.09 797.848 C 1265.43 801.063 1262.85 801.429 1263.43 807.354 L 1262.08 809.268 C 1256.93 807.577 1249.99 815.697 1244.52 818.951 C 1244.78 818.06 1245.02 817.258 1245.33 816.375 L 1245.67 815.388 C 1247.01 811.528 1251.06 808.589 1254.16 805.947 C 1257.77 802.869 1257.18 802.269 1258.73 797.798 z" fill="rgb(17,61,88)" fill-opacity="0.0156863" transform="translate(0,0)"></path>
<path d="M 772.663 858.575 C 804.952 857.793 837.551 856.832 869.833 858.028 C 877.296 858.305 884.953 858.156 892.424 858.029 L 892.123 858.801 C 852.303 859.127 812.481 859.052 772.663 858.575 z" fill="rgb(185,188,193)" fill-opacity="0.756863" transform="translate(0,0)"></path>
<path d="M 1274.78 445.983 C 1278.52 440.648 1290.25 441.672 1293.38 429.243 C 1294.44 433.816 1295.38 434.523 1292.24 438.547 C 1288.16 442.937 1267.94 454.594 1261.93 457.595 C 1264.21 453.922 1270.62 451.681 1274.99 447.883 L 1274.78 445.983 z" fill="rgb(17,149,146)" fill-opacity="0.341176" transform="translate(0,0)"></path>
<path d="M 486.106 606.449 L 486.903 607.407 C 492.236 610.091 515.238 596.891 526.523 595.47 L 523.881 597.577 C 512.112 603.12 500.528 606.909 488.416 612.621 C 486.561 610.292 486.408 609.915 485.503 607.071 L 486.106 606.449 z" fill="rgb(17,61,88)" fill-opacity="0.870588" transform="translate(0,0)"></path>
<path d="M 1488.49 322.944 C 1483.44 324.324 1473.08 321.948 1470.21 317.505 C 1470.38 313.811 1469.88 315.204 1472.09 312.244 C 1478.46 314.844 1484.75 316.908 1488.49 322.944 z" fill="rgb(16,54,82)" fill-opacity="0.00784314" transform="translate(0,0)"></path>
<path d="M 751.71 309.57 C 778.008 308.017 812.497 308.111 838.698 308.303 C 835.064 310.719 832.197 308.884 828.26 309.765 C 804.68 310.679 775.402 310.044 751.71 309.57 z" fill="rgb(185,188,193)" fill-opacity="0.776471" transform="translate(0,0)"></path>
<path d="M 1640.29 577.914 C 1643.68 580.968 1658.22 597.52 1658.37 601.363 L 1656.74 602.882 C 1650.56 596.017 1640.79 586.949 1640.29 577.914 z" fill="rgb(9,63,83)" fill-opacity="0.701961" transform="translate(0,0)"></path>
<path d="M 1265.54 780.305 C 1269.74 779.102 1270.9 777.969 1274.83 779.937 C 1273.32 784.1 1271.34 790.651 1268.68 793.903 L 1267.13 793.747 C 1265.42 790.788 1265.41 786.507 1265.1 783.007 L 1265.54 780.305 z" fill="rgb(17,61,88)" fill-opacity="0.0235294" transform="translate(0,0)"></path>
<path d="M 536.946 706.931 C 537.149 731.396 537.139 755.861 536.915 780.325 L 534.922 780.009 L 535.048 779.212 C 536.982 771.682 536.456 763.334 536.001 755.637 C 536.065 746.861 536.491 733.709 535.056 725.463 C 534.574 718.479 534.563 715.658 535.057 708.684 L 536.946 706.931 z" fill="rgb(145,157,165)" fill-opacity="0.85098" transform="translate(0,0)"></path>
<path d="M 1160.23 770.465 C 1161.22 777.277 1161.66 779.727 1163.84 786.43 C 1162.58 788.878 1160.9 791.917 1159.9 794.418 C 1158.27 791.413 1156.47 786.992 1154.73 783.594 L 1155.9 780.695 C 1159.85 778.034 1159.73 774.796 1160.23 770.465 z" fill="rgb(16,54,82)" fill-opacity="0.976471" transform="translate(0,0)"></path>
<path d="M 1170.74 799.081 C 1174.08 802.54 1177.45 806.212 1181.15 809.255 C 1178.05 811.079 1177.44 811.322 1175.85 814.499 C 1172.92 811.578 1170.02 808.622 1167.16 805.634 L 1170.74 799.081 z" fill="rgb(16,54,82)" fill-opacity="0.854902" transform="translate(0,0)"></path>
<path d="M 1525.96 502.305 C 1529.18 501.794 1533.98 499.827 1536.7 500.766 C 1536.47 501.889 1536.24 502.555 1536.28 503.657 C 1531.48 505.022 1526.62 507.452 1523.57 508.313 C 1519.79 510.433 1516.96 511.906 1513.59 514.625 C 1514.8 506.823 1519.47 506.575 1526.58 503.995 L 1526.18 503.139 L 1525.96 502.305 z" fill="rgb(9,63,83)" fill-opacity="0.619608" transform="translate(0,0)"></path>
<path d="M 536.898 441.976 C 537.006 456.018 537.017 470.061 536.931 484.104 L 534.784 484.12 L 535.071 442.891 L 536.898 441.976 z" fill="rgb(145,157,165)" fill-opacity="0.984314" transform="translate(0,0)"></path>
<path d="M 1512.98 689.908 C 1518.14 691.915 1517.33 693.426 1520.39 696.206 C 1519.81 699.684 1519.65 703.718 1515.76 704.594 C 1512.01 700.608 1512.83 695.228 1512.98 689.908 z" fill="rgb(7,30,49)" fill-opacity="0.105882" transform="translate(0,0)"></path>
<path d="M 534.922 780.009 L 536.915 780.325 C 536.949 788.376 537.587 810.152 536.521 816.463 C 534.077 806.848 534.736 790.354 534.922 780.009 z" fill="rgb(185,188,193)" fill-opacity="0.988235" transform="translate(0,0)"></path>
<path d="M 1390.73 566.575 C 1388.51 565.382 1387.65 565.404 1385.13 565.347 C 1390.72 564.77 1408.96 562.475 1413.69 564.308 L 1412.94 564.425 L 1414.04 565.314 L 1412.89 564.871 L 1412.59 566.309 C 1411.12 566.586 1409.58 566.901 1408.11 567.145 L 1395.61 566.747 L 1390.73 566.575 z" fill="rgb(16,54,82)" fill-opacity="0.729412" transform="translate(0,0)"></path>
<path d="M 412.718 446.694 L 414.084 446.852 C 417.462 454.729 432.336 486.729 433.841 492.69 L 433.118 493.559 C 428.939 487.232 415.878 454.854 412.718 446.694 z" fill="rgb(17,61,88)" fill-opacity="0.286275" transform="translate(0,0)"></path>
<path d="M 1382.25 262.315 C 1387.68 264.956 1394.2 267.899 1399.22 271.087 C 1398.14 272.233 1397.05 273.55 1395.74 274.376 C 1392.01 272.37 1387.44 270.077 1384.06 267.675 L 1384.52 266.019 L 1382.25 262.315 z" fill="rgb(9,63,83)" fill-opacity="0.839216" transform="translate(0,0)"></path>
<path d="M 665.796 858.373 C 678.168 856.122 695.088 856.105 707.466 858.366 C 697.63 859.553 675.731 859.139 665.796 858.373 z" fill="rgb(185,188,193)" fill-opacity="0.984314" transform="translate(0,0)"></path>
<path d="M 674.343 882.236 C 669.561 879.506 670.601 878.614 664.908 877.125 L 664.844 876.137 C 668.21 874.486 676.365 875.596 679.201 877.723 L 676.966 878.38 L 681.593 879.962 L 681.394 880.78 L 676.185 881.409 L 674.343 882.236 z" fill="rgb(7,30,49)" fill-opacity="0.0313725" transform="translate(0,0)"></path>
<path d="M 1395.61 566.747 L 1408.11 567.145 C 1402.79 573.789 1396.11 573.02 1388.01 573.095 C 1393.49 571.605 1393.67 572.034 1395.61 566.747 z" fill="rgb(16,54,82)" fill-opacity="0.294118" transform="translate(0,0)"></path>
<path d="M 1093.01 880.838 L 1092.71 879.886 C 1095.75 876.401 1111.47 869.826 1116.28 869.862 L 1116.83 871.068 L 1112.83 873.525 C 1109.09 873.451 1097.4 879.082 1093.01 880.838 z" fill="rgb(16,54,82)" fill-opacity="0.780392" transform="translate(0,0)"></path>
<path d="M 1181.15 809.255 C 1184.3 811.193 1187.85 813.498 1191.03 815.277 C 1186.77 815.346 1184.17 814.299 1181.94 818.38 C 1180.05 817.665 1177.61 815.732 1175.85 814.499 C 1177.44 811.322 1178.05 811.079 1181.15 809.255 z" fill="rgb(16,54,82)" fill-opacity="0.811765" transform="translate(0,0)"></path>
<path d="M 1251.81 721.924 L 1254.54 720.368 C 1255.81 723.899 1254.99 723.385 1257.52 724.717 C 1258.99 724.316 1260.35 724.767 1261.8 725.123 C 1262.94 726.59 1264.18 728.127 1265.27 729.62 L 1263.89 732.161 L 1262.1 732.593 C 1258.44 730.868 1254.26 725.275 1251.81 721.924 z" fill="rgb(17,61,88)" fill-opacity="0.482353" transform="translate(0,0)"></path>
<path d="M 535.006 412.959 L 536.966 415.554 L 536.898 441.976 L 535.071 442.891 L 535.006 412.959 z" fill="rgb(145,157,165)" fill-opacity="0.435294" transform="translate(0,0)"></path>
<path d="M 375.546 510.463 C 380.872 513.337 379.405 529.139 378.459 534.335 C 373.89 532.422 379.46 516.952 375.546 510.463 z" fill="rgb(7,30,49)" fill-opacity="0.815686" transform="translate(0,0)"></path>
<path d="M 536.856 589.032 C 537.04 605.659 537.766 629.385 536.83 645.508 C 535.434 633.637 537.435 596.915 535.11 591.388 L 535.124 590.64 L 536.856 589.032 z" fill="rgb(114,134,145)" fill-opacity="0.560784" transform="translate(0,0)"></path>
<path d="M 999.638 921.359 C 1001.05 920.226 1004.1 919.184 1005.92 918.438 L 1006.86 920.265 C 1001.46 924.52 988.059 930.267 981.412 932.759 L 981.617 931.904 C 985.956 929.79 998.012 924.839 999.638 921.359 z" fill="rgb(17,61,88)" fill-opacity="0.737255" transform="translate(0,0)"></path>
<path d="M 1163.84 786.43 L 1166.83 792.906 C 1165.68 795.482 1164.64 797.966 1163.22 800.409 L 1159.9 794.418 C 1160.9 791.917 1162.58 788.878 1163.84 786.43 z" fill="rgb(16,54,82)" fill-opacity="0.87451" transform="translate(0,0)"></path>
<path d="M 1166.83 792.906 L 1170.74 799.081 L 1167.16 805.634 L 1163.22 800.409 C 1164.64 797.966 1165.68 795.482 1166.83 792.906 z" fill="rgb(16,54,82)" fill-opacity="0.913725" transform="translate(0,0)"></path>
<path d="M 412.718 446.694 C 408.775 440.224 408.63 434.885 405.575 429.261 C 410.004 435.928 411.202 439.43 414.084 446.852 L 412.718 446.694 z" fill="rgb(17,61,88)" fill-opacity="0.396078" transform="translate(0,0)"></path>
<path d="M 535.056 725.463 C 536.491 733.709 536.065 746.861 536.001 755.637 L 535.023 755.874 C 534.977 745.737 534.988 735.6 535.056 725.463 z" fill="rgb(185,188,193)" fill-opacity="0.721569" transform="translate(0,0)"></path>
<path d="M 535.023 755.874 L 536.001 755.637 C 536.456 763.334 536.982 771.682 535.048 779.212 C 534.801 771.852 535.017 763.329 535.023 755.874 z" fill="rgb(185,188,193)" fill-opacity="0.45098" transform="translate(0,0)"></path>
<path d="M 1237.06 472.166 C 1240.4 468.382 1248.3 464.274 1253.11 462.652 C 1249.78 465.158 1241.02 470.911 1237.06 472.166 z" fill="rgb(17,149,146)" fill-opacity="0.364706" transform="translate(0,0)"></path>
<path d="M 536.931 484.104 L 536.991 503.083 L 535.051 503.012 L 535.224 502.211 C 536.053 496.698 537.067 491.256 535.356 485.93 L 534.784 484.12 L 536.931 484.104 z" fill="rgb(114,134,145)" fill-opacity="0.635294" transform="translate(0,0)"></path>
<path d="M 534.937 406.094 L 537.059 406.815 L 536.966 415.554 L 535.006 412.959 L 534.937 406.094 z" fill="rgb(185,188,193)" fill-opacity="0.713725" transform="translate(0,0)"></path>
<path d="M 535.356 485.93 C 537.067 491.256 536.053 496.698 535.224 502.211 C 534.951 495.966 534.827 492.26 535.356 485.93 z" fill="rgb(185,188,193)" fill-opacity="0.278431" transform="translate(0,0)"></path>
<metadata><recraft-signature>{"signed_by": "recraft", "signature_b64": "XD1jS1feVdNuidt5SKxOMSrBofv1CkqtYo2XtMJLwvf3K1+yRmO1AdRArYcw+vUK2wSo4a4hTksSidO0lN7bCw==", "signing_algo": "Ed25519", "generation_timestamp": 1778163843, "identifier": "cdd0581e-7bc0-467c-913f-67aa82275e14"}</recraft-signature></metadata></svg>